<svg xmlns="http://www.w3.org/2000/svg" width="253.538" height="196.137" viewBox="0 0 253.538 196.137">
  <g id="그룹_27" data-name="그룹 27" transform="translate(-61.462 -158.467)">
    <g id="그룹_26" data-name="그룹 26" transform="translate(84.519 -84.616)">
      <path id="패스_60" data-name="패스 60" d="M4048.607,3695.951c19.73-1.064,88.921-42.579,108.082,52.16s-59.611,123.48-99,130.931-127.737,2.129-147.962-92.61,50.03-100.06,67.062-101.125S4028.877,3697.016,4048.607,3695.951Z" transform="translate(-3929.163 -3442.159)" fill="#5890ff"/>
      <g id="Beagle_1" data-name="Beagle 1" transform="translate(-909.171 -1537.865)">
        <path id="Beagle_1.5" data-name="Beagle 1.5" d="M968.506,1934.3c0-.065.925-8.723,1.536-11.609.774-3.645,4.467-10.536,4.7-10.857,7-9.673,6.484-15.58,23.187-36.583,3.353-4.218,8.938-8.941,11.4-19.014,5.3-21.646-10.735-40.255,14.3-54.064,1.582-.873,6.347-1.676,8.125-1.676,10.151,0,13.982,7.048,15.6,7.854,5.813,2.915,1.271,1.362,6.855,1.708.232.64.155-.034,1.358,1.948-1.029.291-1.863,1.714.213,3.3,1.631,1.248,2.528,2.588,2.951,5.455-.053-.367.135.956.069.535.258,1.9.361,3.6-1.328,7.207-3.145,6.764-6.757,6.713-9.722,9.583-.123,5.426-.083,8.18,1.272,12.868,6.008,20.768,9.712,20.871,8.993,33.545-.387,7.6-6.167,28.764-7.123,41.52-1.183,14.792-1.777,18.508-.618,21.4,1.7,4.008,5.654,5.665,5.852,9.863.168,3.539-5.811,3.877-9.385,2.952-2.672-.7-10.944.318-8.075-15.33a210.669,210.669,0,0,0-.393-21.181c-.347-3.512.812-2.867-4.264-1.6-6.729,1.674-5.737-.481-5.915,2.152-.119,1.742-.3,18.7-.232,22.423.222,7.828,16.642,13.326,6.147,18.09-5.954,2.7-6.917-.089-8.1.232a4.2,4.2,0,0,1-1.572.177c-4.062-.525-5.325-3.123-6.263-4.5-2.721-4.021-.356-3.123-2.574-.186-2.768,3.665-7.647,3.749-11.711,1.82-3.217-1.51-21.072.184-27.962-5.368C970.241,1952.81,968.105,1941.248,968.506,1934.3Z" transform="translate(-0.649)" fill="#eef2ff"/>
        <g id="Beagle_1.4" data-name="Beagle 1.4" transform="translate(1006.067 1802.93)">
          <path id="Beagle_1.4.2" data-name="Beagle 1.4.2" d="M1054.334,1804.59c3.5,0,4.943,1.955,7.911,4.064,4.6,3.583,5.477,3.665,6.583,4.818a8.465,8.465,0,0,1,1.989,5.255c.871,8.952-5.485,13.779-8.532,17.613-2.03,2.769-3.237,6.167-8.677,8.122-.749.27-17.609,4.188-20-4.873C1030.264,1827.544,1037.867,1804.59,1054.334,1804.59Z" transform="translate(-1032.831 -1804.59)" fill="#acc3ff"/>
          <path id="Beagle_1.4.1" data-name="Beagle 1.4.1" d="M1059.459,1886.539a.677.677,0,0,1,.428.315c2.369,3.993,3.453,5.513,4.142,9.6.166.943,1.031,9.96,1.038,10.394a19.508,19.508,0,0,1-4.219,12.517c-4.652,6.1-4.964,2.428-7.16,17.058a74.661,74.661,0,0,0-.34,13.825c.361,8.787.768,7.1-3.37,11.612-2.284,2.5-3.184,3.162-6.583,3.251-6.7.187-5.294-2.328-5.653-8.162-.2-3.174-1.205-9.751-1.205-9.756-.64-10.3-1.975-8.948-3.363-16.971-1.108-6.314.874-16.81.934-17.552,1.058-9.259.223-9.871.1-12.438a14.081,14.081,0,0,1,6.487-11.968C1045.592,1885.473,1055.262,1882.321,1059.459,1886.539Z" transform="translate(-1032.835 -1837.003)" fill="#acc3ff"/>
        </g>
        <g id="Beagle_1.2" data-name="Beagle 1.2" transform="translate(1025.999 1804.592)">
          <path id="Beagle_1.2.3" data-name="Beagle 1.2.3" d="M1096.579,1810.494c.6.323,1.12-.257.721-.72-.615-.734-1.184-1.653-1.379-1.891C1094.6,1806.279,1093.631,1808.944,1096.579,1810.494Zm.569-.9-.022-.028Zm.074.1-.011-.015Z" transform="translate(-1077.842 -1807.387)"/>
          <path id="Beagle_1.2.2" data-name="Beagle 1.2.2" d="M1104.547,1815.466c2.517-.644,5.919,1.129,5.62,4.47a34.433,34.433,0,0,1-1.07,4.9,13.623,13.623,0,0,0,.722,2.2,4.12,4.12,0,0,0,.518.887c1.269,2.457.646,2.171,1.436,2.067a1.285,1.285,0,0,0,.291-.031c-.073,1.126-.039.97-.173.979a1.069,1.069,0,0,1-.76.112c-.332.18-6.392,5.821-6.417,5.848-.512.728-1.68.053-.216-1.025.027-.023,1.875-1.832,1.93-1.889,2.619-2.688,2.983-1.52,2.849-4.484a15.531,15.531,0,0,0-1.18-3.948,2.934,2.934,0,0,1-1.566-.611c-1.63-1-2.894-.856-4.347-1.388C1096.654,1821.532,1101.164,1816.308,1104.547,1815.466Z" transform="translate(-1079.845 -1810.611)"/>
          <path id="Beagle_1.2.1" data-name="Beagle 1.2.1" d="M1066.767,1821.547c-.537,1.532-.778,2.244.932,2.08,1.965-.182,4.765-.161,5.871-1.784C1075.3,1819.3,1069.133,1814.8,1066.767,1821.547Zm2.9-2.633.01-.007Zm-2.038,1.054-.057.074Zm0,0,.018-.024Zm4.066-1.75.143.059Zm-.02-.008.02.008Z" transform="translate(-1066.37 -1811.694)"/>
        </g>
        <g id="Beagle_1.1" data-name="Beagle 1.1" transform="translate(966.859 1816.333)">
          <path id="Beagle_1.1.2" data-name="Beagle 1.1.2" d="M1035.221,1827.143a1.343,1.343,0,0,1,1.239,1.015c1.839,8.507,14.765,16.382,18.664,26.064.78,1.912,1.99,8.791-2.134,11.613-5.436,4.809-8.23,5.611-11.48,6.009-6.871.853-9.619-2.9-13.985-6.728-4.186-3.665-4.725-4.1-4.725-11.145,0-5.783,4.993-22.621,10.968-26.127C1034.626,1827.339,1034.745,1827.143,1035.221,1827.143Z" transform="translate(-989.553 -1827.143)" fill="#eef2ff"/>
          <path id="Beagle_1.1.1" data-name="Beagle 1.1.1" d="M966.86,1979.286c.08-18.577,9.6-28.416,12.85-34.244,11.372-20.3,6.077-11.214,23.789-34.14,1.379-1.78,2.245-3.124,3.325-2.049.031.032.931.325.873,1.142-.213,3.071.413,4.615.062,8.813-.646,7.876-2.513,12.01-1.524,19.868,1.22,9.5,5.411,18.748-12.536,28.944-5.369,3.057-17.083,5.9-22.516,19.556.054.866.181,2.852.742,3.514,6.232,7.129,10.55,8.545,19.15,12.173,4.141.932,17.993,6.89,18.233,7.79.518,1.947-4.731-.631-12.148-2-13.613-2.547-25.017-1.469-28.8-14.709a18.592,18.592,0,0,1-.748-5.185C967.094,1981.847,966.837,1983.886,966.86,1979.286Z" transform="translate(-966.859 -1860.136)" fill="#acc3ff"/>
        </g>
      </g>
    </g>
  </g>
</svg>
