<svg xmlns="http://www.w3.org/2000/svg" width="253.538" height="196.137" viewBox="0 0 253.538 196.137">
  <g id="그룹_31" data-name="그룹 31" transform="translate(-61.462 -158.467)">
    <g id="그룹_27" data-name="그룹 27">
      <g id="그룹_26" data-name="그룹 26" transform="translate(84.519 -84.616)">
        <path id="패스_60" data-name="패스 60" d="M4048.607,3695.951c19.73-1.064,88.921-42.579,108.082,52.16s-59.611,123.48-99,130.931-127.737,2.129-147.962-92.61,50.03-100.06,67.062-101.125S4028.877,3697.016,4048.607,3695.951Z" transform="translate(-3929.163 -3442.159)" fill="#5890ff"/>
      </g>
    </g>
    <g id="Saint_Bernard_1" data-name="Saint Bernard 1" transform="translate(-3054.74 -2553.504)">
      <g id="Saint_Bernard_1.7" data-name="Saint Bernard 1.7" transform="translate(3277.981 2751.912)">
        <path id="Saint_Bernard_1.7.2" data-name="Saint Bernard 1.7.2" d="M3547.188,2756.763c-2.465,0-4.378,3.467-5.451,5.688-1.189,2.462-2.4,3.589-3.292,6.21-1.293,3.816.065.387-2.822,9.488-1.116,3.487.138,1.577-1.546,6.785a3.615,3.615,0,0,0-.09,2.6c.19.607.556,1.66,1.181,1.75,1.567.229,2.164,1.688,4.11-.574,1.392-1.619.908-1.333,2.245-2.14,1.609-.992,2.517-.687,3.5-1.635,2.279-2.22,1.287-3.444,3.558-6.516,1.908-2.372,3.7-2.925,4.733-5.659.619-1.627.479-4.886.6-6.675a6.776,6.776,0,0,0-.776-3.091c-.945-1.933-.361-4.586-3.619-5.62a7.8,7.8,0,0,0-2.331-.614" transform="translate(-3533.785 -2755.929)" fill="#bad1ff"/>
        <path id="Saint_Bernard_1.7.1" data-name="Saint Bernard 1.7.1" d="M3591.221,2754.515a1.192,1.192,0,0,0-1.11.927,15.933,15.933,0,0,0,.137,2.7c1.026,7.912-.485,7.583.355,10.949,1.642,6.53,3.879,4.5,6.281,8.268,1.032,1.613.755,1.733,1.982,3.437,1.474,2.066,1.679,1.858,2.583,5.262.432,1.622.4,3.209.671,4.519.07.34.75,2.582,1.317,2.868.526.26.948-.05,1.4-.4-.016.01,1.656-1.8,1.54-1.68.654-.655,2.292-.9,2.807-2.023,1.142-2.523-.493-6.274-.4-6.032a27.01,27.01,0,0,1-.555-4.055c-.541-3.437-1.487-2.814-1.813-6.854-.246-3.094-.488-7.369-2.332-9.908a32.536,32.536,0,0,0-2.3-2.73c.016-.01-.792-1.339-.8-1.355-1.75-2.615-3.921-3.857-9.758-3.891" transform="translate(-3569.219 -2754.511)" fill="#bad1ff"/>
      </g>
      <g id="Saint_Bernard_1.6" data-name="Saint Bernard 1.6" transform="translate(3184.04 2786.574)">
        <path id="Saint_Bernard_1.6.2" data-name="Saint Bernard 1.6.2" d="M3403.125,2848.055c.1,0-1.442,0-2.07.009a23.548,23.548,0,0,0-3.563.4c-3.467.531-4.347,1.722-3.653,2.057a26.544,26.544,0,0,0,2.9.191c6.016.444,6.45,1.67,7.7,2.575,3.065,2.232,5.341,3,5.868,6.033.584,3.377-1.649,6.706-1.767,7.874a5.743,5.743,0,0,1-.5,1.722c-.73,2.266-1.026,7.274-3.423,11.04-1.284,2-4.926,12.924-4.931,12.94a17.908,17.908,0,0,0-.133,6.121c.617,3.091,3.416,3.545,6.574,3.307a13.238,13.238,0,0,1,1.815-.083c1.437.02,1.972.729,2.545.021.507-.629,1.031-4.192,1.8-5.483.578-.969,1.055-1.177,1.5-1.874.679-1.062,1.868-4.946,2.8-4.946,1.718,0,8.791,6.554,14.121,6.411,5.886-.186,1.775-4.9,3.407-8.644,1.672-3.878-3.943-7.426-4.606-14.649-1.073-11.77.979-11.875,2.386-16.622a9.3,9.3,0,0,1,1.611-3.089c1.534-1.949.432-1.171,2.356-2.656.855-.663,1.406-1.352.363-1.644-1.726-.473-8.5-.819-13.327-.175-11.139,1.463-10.45-.832-19.779-.832m19.868,1.464H3423C3423.065,2849.5,3422.664,2849.544,3422.993,2849.519Zm-12.017,11.895c.013-.089.019-.12,0,0" transform="translate(-3351.615 -2848.055)" fill="#bad1ff"/>
        <path id="Saint_Bernard_1.6.1" data-name="Saint Bernard 1.6.1" d="M3318.011,2856c-.017,0-5.843,1-11.324,8.042-.708.912-3.688,5.205-5.535,7.24a40.682,40.682,0,0,0-3.938,4.326c-1.818,2.12-3.615,6.705-3.606,6.689-3.976,7.531-9.4,1.913-13.156,5.463-.393.376-.111.731.232,1.066,3.515,3.431,1.846,3.916,3.253,5.538a7.262,7.262,0,0,0,4.27,2.561c3.386.866,5.012,2.257,6.571.927,1.5-1.284.542-3.217.5-4.57a3.46,3.46,0,0,1,.286-1.489c1.292-2.87,3.439-2.421,5.19-4.645,1.918-2.447-1.868-7.94,2.464-12.555,3.012-3.229,3.084-3.116,3.763-4.734a29.517,29.517,0,0,1,3.785-6.589c.016-.019,4.986-5.424,7.283-6.714.257-.035.289-.556-.043-.556" transform="translate(-3280.261 -2853.058)" fill="#bad1ff"/>
      </g>
      <path id="Saint_Bernard_1.5" data-name="Saint Bernard 1.5" d="M3491.436,2753.307a25.354,25.354,0,0,0-4.713,1.252.171.171,0,0,0,.129.315,5.817,5.817,0,0,1,2.7.463c.616.156,1.194.274,2.1,1.638a8.57,8.57,0,0,1,.959,2.527c.633,2.977,1,1.455,1.183,4.347a5.254,5.254,0,0,1-.092,1.646c-.387,1.829.211,4.938-1.182,6.359a8.3,8.3,0,0,0-.633.728c.143.148-3.005,2.831-4.05,4.485-1.914,3.007-1.433,5.072-4.686,6.421-3.221,1.313-1.774,1.118-4.715,3.49-.83.635-.636.4-1.5.47-.646.055-.577-.071-1.26-.292-1.251-.4-.662.014-1.685-2.341-.1-.235-.217-.444-.466-.194a.289.289,0,0,0-.2.041c-2.922,1.854-7.487,3.15-8.748,5.584a1.639,1.639,0,0,1-.421.549c-3.1,2.928-2.893,1.879-4.329,6.667-.7,2.351-2.956,5.283-2.761,9.215.256,5.28-.966,6.113.512,8.564a10.126,10.126,0,0,1,.761,2.354c1.292,3.889,2.656,5.071,3.676,7.433,1.122,2.79-.814,3.763-.445,6.227.081.568.176,1.75.186,2.053.072,2.037.073,2.172-.768,2.562-1.762.808-2.673.487-4.531-.062-.65-.194-1.17-.169-2.025-.476-.364-.165-1.362-.779-1.825-1.008-8.462-4.214-7.529-6.551-10.316-.122-1.127,2.586-2.023,1.205-2.926,5.869a19.813,19.813,0,0,1-.635,2.165c-.177.359-.852.836.653,1.074a29.468,29.468,0,0,1,5.544,1.7c2.332,1.145,2.812.605,4.02,1.346,3.494,2.143,1.964,2.4,5.2,3.02,6.8,1.285,7.954-.833,11.411-.022a15.645,15.645,0,0,0,7.413.217c4.146-.5,3.525,5.37,11.356,4.416,3.31-.4,4.141-1.222,6.357-1.382l2.791-.262c5.02-.563,3.552.528,10.293-1.953,4.862-1.772,4.473-2.96,8.774-3.644,4.518-.715,5.495-.744,6.771-.238,3.448,1.5,2.228,1.342,4.42,2.74a7.637,7.637,0,0,0,2.134.735c2.9,1.328,4.5,6.007,10.664,6.749.775.109.83.028,1.63.129.885.134,5.24,1.388,6.924.69a2.856,2.856,0,0,0,.426-.251,13.321,13.321,0,0,0,4.841,1.053,10.922,10.922,0,0,0,2.677-.373c.244-.026.371-.008.613-.048.9-.149,1.175-2.011,1.035-2.916-.536-3.52-12.694-8.558-16.021-11.187-3.485-2.752-3.959-1.766-7.079-4.094a16.287,16.287,0,0,0-3.143-1.921c-5.138-2.8-3.84-1.614-4.124-2.669a20.03,20.03,0,0,1-.579-4.546c-.7-7.331-3-10.027-1.769-12.968.8-1.9-1.975-8.7-2.162-9.248-1.193-3.486-.573-4.276-1.367-6.078-.663-1.508-4.664-7.8-4.664-12.129,0-1.5.051-1.186-.843-.939-.866.239-.776.568-1.808,1.132a2.336,2.336,0,0,0-1.13.771c-.767,1.077-1.078,1.448-1.577,1.528-1.451.165-1.667-4.4-1.845-5.684a18.355,18.355,0,0,0-1.976-5.674c-.541-.966-.458-.417-1.643-2.155-1.168-1.712-2.042-3.978-3.693-4.837a7.934,7.934,0,0,1-2.476-2.261c-1.784-2.392-1.72-5.8-1.476-8.426.5-5.223-.98-7.59-.361-9.084.148-.331.79-.841-.073-.827C3493.924,2753.716,3493.109,2753.317,3491.436,2753.307Zm-4.4,25.966c.028-.067-.084.18,0,0Z" transform="translate(-195.777 -1.841)" fill="#eef2ff"/>
      <path id="Saint_Bernard_1.4" data-name="Saint Bernard 1.4" d="M3573.762,2810.915a11.934,11.934,0,0,0-3.071.26c-3.891.891-4.433,3.85-5.039,5.069-1.222,2.478-4.583,7.107-4.1,12.347a4.911,4.911,0,0,0,2.463,3.842c1.519.567,3.594-.47,4.371-1.076.708-.555,2.3-2.838,3.074-3.2,3.28-1.306,5.053,2.9,6.1,3.547,3.629,2.247,5.607-3.108,5.041-7.329.028.5-.417-4.5-1.464-6.42-1.862-3.474-3.466-7.043-7.372-7.043" transform="translate(-273.25 -38.095)" fill="#bad1ff"/>
      <g id="Saint_Bernard_1.3" data-name="Saint Bernard 1.3" transform="translate(3127.397 2788.498)">
        <path id="Saint_Bernard_1.3.2" data-name="Saint Bernard 1.3.2" d="M3650.613,3018.841a28.91,28.91,0,0,0-1.331-2.74c-.589-1.451-1.2-4.324-2.433-5.226a2.709,2.709,0,0,1-1.011-1.407c-1.517-4.747-.388-2.444-2.641-4.523a4.965,4.965,0,0,0-.569-.346c-.982-1.016-3.587-1.321-5-1.218a10.425,10.425,0,0,0-2.884.595c-.753.073-.817-.254-1.251,2.369-.24,1.419.221.835-.664,3.307-.725,2.008-.412,2.053-.676,4.173-.3,1.842-.976,2.239-.05,4.4.512,1.241,2.88,3.164,3.974,3.677,1.271.6,2.735.06,3.648.153,1.1.17,3.672,1.254,6.044-.732C3646.973,3020.32,3650.976,3020.844,3650.613,3018.841Zm-15.888-14.861.032,0C3634.773,3003.976,3634.741,3003.978,3634.725,3003.98Zm6.709.46c-.285-.132-.072-.055.22.057C3642.153,3004.718,3641.863,3004.61,3641.435,3004.44Zm5.414,6.435h0Z" transform="translate(-3444.796 -2947.738)" fill="#eef2ff"/>
        <path id="Saint_Bernard_1.3.1" data-name="Saint Bernard 1.3.1" d="M3225.206,2853.247c-3.443,0-7.18,3.821-7.995,5.039a24.212,24.212,0,0,1-1.853,1.768c-4.142,3.87-4.022,7.055-5.991,9.74-1.065,1.446-1.628,1.473-3.427,3.821-1.124,1.458-.833,1.715-1.054,3.374-.719,5.383.586,4.563-.635,7.694a2.877,2.877,0,0,1-.64,1.181,4.514,4.514,0,0,1-1.294.946c-6.915,3.635-.551,8.651-5.3,9.072a4.515,4.515,0,0,1-2.625-.3c-.016-.007-4.165-1.286-3.941-1.206-3.3-1.179-2.765-4.261-5.821-7.579-1.832-1.969-7.855-.35-10.2.273-4.682,1.246-4.85.064-6.868.868-.715.283-.651.548-1.793.6-4.756.228-10.943-.446-12.721.374-3.7,1.677-3.276,1.089-6.149,1.625-1.283.236-4.118.512-4.141,1.8-.014.938-6.229,3.364-8.84,5.8a3.214,3.214,0,0,0-1.083,2.317c-.529,1.529-6.346,5.115-5.321,7.05.459.871,1.43.781,3.3,1.432a13.6,13.6,0,0,0,4.64,1.493c7.094.957,7.24.316,11.344.316.844,0,4.578.544,4.336.506,3.287.515,6.938-.468,14.535-1.953,7.941-1.538,9.2-.779,14.3-.634,5.692.154,6.232-2.5,14.825.011a22.676,22.676,0,0,0,4.443.936c3.2.212,10.116-1.513,13.187-1.911a28.344,28.344,0,0,1,4.129-.128c.351,8.091,5.071,6.187,9.251,6.428,5.843.33,8.048,3.51,12.766,2.929,5.89,1.5,6.74-.245,8.712-.567,1.27-.2,1.531-.567,2.073-.617.842-.021,4.954,2.2,6.68-2.979.52-1.584-2.169-3.658-3.706-4.194-3.9-1.38-3.742-1.587-7.523-2.539-5.409-1.36-10.416.32-11.779-2.362a10.648,10.648,0,0,1-.151-9.179,43.366,43.366,0,0,0,2.385-5.87c1.357-4.36,2.2-3.985,3.526-8.19.007-.02,1.244-3.485,1.21-3.4.91-2.273,1.294-6.318,1.454-7.218.7-3.911,3.712-6.448-.053-10.3-1.944-2.135-1.726-1.089-3.73-3.038a9.186,9.186,0,0,0-2.773-1.755c-.639-.187-9.576-1.468-9.685-1.468" transform="translate(-3127.397 -2853.247)" fill="#eef2ff"/>
      </g>
      <g id="Saint_Bernard_1.2" data-name="Saint Bernard 1.2" transform="translate(3287.967 2768.799)">
        <path id="Saint_Bernard_1.2.3" data-name="Saint Bernard 1.2.3" d="M3584.309,2821.406c-.482,0-1.131.107-1.531.107-2.133,0-3.167-.324-4.586,1.345a3.293,3.293,0,0,0-.507,3.2c.72,1.73,3.3,2.055,4.66,3.613.277.318.354.185.545.024,1.7-1.226,2.1-.834,3.47-1.836,3.006-2.226,2.3-6.455-2.051-6.455" transform="translate(-3571.274 -2813.505)" fill="#2e2920"/>
        <path id="Saint_Bernard_1.2.2" data-name="Saint Bernard 1.2.2" d="M3564.942,2802.563c.057-.286-.295-.29-.183-.278-.237-.041-.4-.257-.722-.478-1.835-1.274-3.571,1.047-3.266,1.352C3563.3,2805.691,3565.05,2802.981,3564.942,2802.563Zm-2.079,1.2h0Zm1.364-1.2c.013.009.009.008.005.011S3564.229,2802.559,3564.227,2802.555Z" transform="translate(-3560.736 -2800.929)" fill="#2e2920"/>
        <path id="Saint_Bernard_1.2.1" data-name="Saint Bernard 1.2.1" d="M3612.478,2801.249c-1.4-.752-1.458-1.218-2.414-1.161-.675.036-1.061.507-1.859,1-.561.352.684,1.031,1.279,1.333a2.024,2.024,0,0,0,2.667-.457c.474-.471.353-.287.413-.389A.24.24,0,0,0,3612.478,2801.249Zm-1.2-.18c.112.091.088.07.038.077A.289.289,0,0,0,3611.281,2801.069Z" transform="translate(-3590.526 -2800.083)" fill="#2e2920"/>
      </g>
      <g id="Saint_Bernard_1.1" data-name="Saint Bernard 1.1" transform="translate(3267.769 2750.382)">
        <path id="Saint_Bernard_1.1.2" data-name="Saint Bernard 1.1.2" d="M3523.976,2751.84a2.605,2.605,0,0,0-1.287.371,5.063,5.063,0,0,1-.771.339c-4.5,1.7-3.129,1.953-5.125,3.837-1.49,1.4-9.985,5.3-10.532,7.26-.286,1.978,1.184-.065,2.019,5.89a7.558,7.558,0,0,0,.264,1.431,4.343,4.343,0,0,0,1.051,1.693c3.792,4.465,2.417,8.233,2.79,9.853a7.867,7.867,0,0,0,.859,2.036c.735,1.828.984,1.1,3.092-.528.594-.463.644-2.266,1.256-3.888a5.794,5.794,0,0,0,.468-1.712c-.016-.011.075-2.432.03-2.133.291-1.921,1.945-3.245,2.245-7.368.017,0,.26-1.146.256-1.13.687-2.849,4.408-10.659,8.1-13.725.939-.778-3.9-2.226-4.712-2.226" transform="translate(-3506.226 -2751.3)" fill="#afcaff"/>
        <path id="Saint_Bernard_1.1.1" data-name="Saint Bernard 1.1.1" d="M3610.095,2750.382a8.189,8.189,0,0,0-1.6.183,9.914,9.914,0,0,1-1.748-.069,8.231,8.231,0,0,0-3.9,1.318c-.331.057-.155.725.206.484a8.34,8.34,0,0,1,1.946.631c3.576,1.624,2.79,1.933,4.4,4.1-.1-.192,2.135,2.3,2.32,2.558,1.959,2.732,2.241,6.938,2.335,10.331.1,4.178,1.25,2.624,1.988,8.341,0,2.476,1.876,3.824.952,7.552-.274,1.1-.322,1.556.024,1.556.57,0,1.195-1.143,1.6-1.666a4.973,4.973,0,0,0,1.164-2.158,13.8,13.8,0,0,0,.311-2.537c.161-3.429,2.028-4.383.972-8.557-.06-.239-.387-1.3-.382-1.289-1.26-4.044,1.707-2.86,1.5-5.388a3.914,3.914,0,0,1,.272-2.368c.106-.641-.293-1.205-.466-1.936a3.494,3.494,0,0,1-.124-.878c-.564-2.353-5.244-5.22-5.584-5.532-1.321-1.217-4.315-4.677-6.187-4.677" transform="translate(-3566.936 -2750.382)" fill="#afcaff"/>
      </g>
    </g>
  </g>
</svg>
