<svg xmlns="http://www.w3.org/2000/svg" width="253.538" height="196.137" viewBox="0 0 253.538 196.137">
  <g id="그룹_27" data-name="그룹 27" transform="translate(-61.462 -158.467)">
    <g id="그룹_26" data-name="그룹 26" transform="translate(84.519 -84.616)">
      <path id="패스_60" data-name="패스 60" d="M4048.607,3695.951c19.73-1.064,88.921-42.579,108.082,52.16s-59.611,123.48-99,130.931-127.737,2.129-147.962-92.61,50.03-100.06,67.062-101.125S4028.877,3697.016,4048.607,3695.951Z" transform="translate(-3929.163 -3442.159)" fill="#5890ff"/>
    </g>
    <g id="Border_Collie_3_brown_white_" data-name="Border Collie 3 [ brown &amp; white ]" transform="translate(-3452.052 -1068.559)">
      <g id="Border_Collie_3.5" data-name="Border Collie 3.5" transform="translate(3603.784 1254.288)">
        <path id="Border_Collie_3.5.2" data-name="Border Collie 3.5.2" d="M3739.525,1254.541a16.641,16.641,0,0,0-2.816.175,7.351,7.351,0,0,0-2.142.005c-4.725.286-6.809-.541-10.568,2.31a24.949,24.949,0,0,0-5.583,6.39c-1.2,2.508-.28,2-1.885,5.224a38.756,38.756,0,0,0-2.851,7.337c-.7,1.994-2.491,3.963-3.246,5.036-1.653,2.349-1.266,2.035-1.807,2.779-1.169,1.464-3.718,3.711-4.876,5.457-.451.681-2.448,3.612-1.958,4.673.292.635-.686,1.909-1.23,3.251-1.01,2.459-.837,2.88-2.722,5.56-1.471,2.083-4.918,5.673-5.781,7.251-2.065,3.789.15,1.829-1.825,4.667-2.264,3.271-3.93,5.611-4.4,8.163a15.879,15.879,0,0,1-2.57,5.413c-3.787,4.876-2.49,6.639-5.084,9.359-1.12,1.171-2.183,1.609-3.354,4.182-1.741,3.817-4.214,3.76-6.833,8.115-1.986,3.275-1.619,3.089-2.144,5.475-.7,3.146-1.391,2.885-3.8,10.132-1.046,3.13.337,5.293-.163,10.259-.971,6.309-5.373,4.984-5.95,7.584-.356,1.594.552,4.6,1.327,6.155.731,1.468,1.861,1.877,3.433,2.373,3.095.981,2.335.569,6.481.821,1.785.114,2.808.129,2.282-.954-.642-1.361-.274-2.4.434-2.807,1.93-1.12,2.56-3.526,6.857-3.526a8.858,8.858,0,0,1,2.586.625c2.171.644,3.229.383,3.566,3.633.193,1.846-.866,2.76,1.071,3.42,3.9,1.331,6.469-1.225,11.709-.163a42.165,42.165,0,0,0,11.573-.076c1.008-.162.823-1.105.916-1.568.2-1.4-.578-9.213-.578-9.2-.038-7.354-3.752-6.156-3.139-15.111.032-.489.027-2.2,0-2.636-.055-.765-.283-1.3-1.012-1.463-.794-.179-.283-4.037-.194-5.019.9-10.154,4.955-6.672,7.843-10.475,3.074-4.04,1.836-6.711-.092-11.705-2.069-5.075.013-8.059-1.473-13.856-1.26-4.964-1.383-4.149-1.594-5.512a22.839,22.839,0,0,1-.152-4.748c.326-1.583,2-5.422,3.51-5.422a5.354,5.354,0,0,1,2.141.409c.863-.017.23-1.118,1.428-3.4a15.05,15.05,0,0,0,1.411-3.51c.929-.341,1.382-3.814,1.623-4.682.69-2.5.458-2.529,2.052-4.472,1.371-1.68,4-2.081,5.887-2.8a2.208,2.208,0,0,0,.453.8c.521.707.21.841,1.019,1.519,1.1.922,1.4,2.239,4.379,3.031a10.484,10.484,0,0,0,7.9-.673c3.224-1.521,6.175-.627,7.82,1.438,2.133,2.863,1.472,5.414,2.812,8.019.1.2,1.813,2.995,1.8,2.977.279.607.79.8,1.219.207,3.317-4.523,2.994-5.779,3.278-5.427.624.836.536,1.508,1.057,1.508.908,0,.2-1.481.4-3.3.269-1.666.767-1.981.993-4.03.146-1.32-.046-2.418.144-4.157.192-1.257.782-2.817.927-3.742a27.33,27.33,0,0,0,.189-4.54.535.535,0,0,0,.532-.606c-.92-8.119-3.622-9.474-4.883-12.3-.916-2.24-1.15-3.916-1.848-5.88-2.815-7.891-5.734-6.8-8.623-7.138A52.531,52.531,0,0,0,3739.525,1254.541Z" transform="translate(-3655.856 -1254.541)" fill="#bad1ff"/>
        <path id="Border_Collie_3.5.1" data-name="Border Collie 3.5.1" d="M3806.371,1558.987c-.562,0-.343.535-.366.427a15.787,15.787,0,0,0,.307,1.735c.237.752.84,1.044,1.257,1.929.736,1.553,2.007,1.745,2.861,3.59.469,1.133.7.864.954.811,4.142-.346,4.728-.461,5.228-1.616.794-1.837.369-2.955-.88-4.257a5.319,5.319,0,0,0-3.379-2.279C3812.334,1559.325,3806.388,1558.987,3806.371,1558.987Z" transform="translate(-3742.079 -1429.397)" fill="#bad1ff"/>
      </g>
      <g id="Border_Collie_3.4" data-name="Border Collie 3.4" transform="translate(3616.882 1255.439)">
        <path id="Border_Collie_3.4.3" data-name="Border Collie 3.4.3" d="M3789.063,1331.467c-.179,0,.217-.044-1.215.376a10.944,10.944,0,0,0-2.6.838,7.488,7.488,0,0,0-3.724,3.65,19.561,19.561,0,0,0-1.835,6.019c-.705,3.743-2.43,2.834-2.991,8.045-.02.193-.263-.419-1.442-.455-1.662-.018-3.749,1.672-4.44,3.047-1.951,3.889,1.838,10.966,2.11,15.676.434,6.9-.859,6.575.953,11.339.126.339,3.365,6.593,1.955,8.939-2.851,4.66-2.673,2.539-4.871,4.567-.483,0-.618.7-2.144,1.071-.989.242-1.637.3-1.729,2.308-.128,2.723-.763,2.762-1.037,4.942a20.507,20.507,0,0,0,.1,5.058c.475,1.249,1.166-.46,1.245,2.883.086,3.612-.3,5.907.813,8.232,2.217,4.626,1.492,5.886,2.353,9,1.688,6.239-.922,8.488,1.609,11.361.793.89,3.541,1,4.5,1.1a27.629,27.629,0,0,0,4.61.732c.742-.035,3.672-.622,4.458-.68,1.061-.086,1.386.079,1.911-.2,1.211-.646.5-2.724.041-3.016a4.176,4.176,0,0,0-1.3-2.06,11.231,11.231,0,0,1-2.74-3.266c-.818-1.1-.135-.7-1.024-3.679a3.012,3.012,0,0,1,.958-.985c4.853-2.739,5.177-5.783,5.737-5.436a.8.8,0,0,0,.935.1,6.794,6.794,0,0,0,2.037-4.191c.673-4.094,1.342-4.655,1.628-5.186a14.48,14.48,0,0,0,.994-3.063c.537-1.9.281-2.032.5-1.239a21.869,21.869,0,0,0,2.749,6.038c1.291,2.28,1.419,6.124,1.649,8.11a36.667,36.667,0,0,1,.9,6.727c.024,3.458.4,2.469.84,5.457.048.415.049.846.113,1.268.248,1.605,1.589,4.02,2.46,3.616,1.1.784,2.436.208,4.316.208,1.565,0,6.781.716,8.2-.43.878-.7.291-4.42-1.564-6.481-1.43-1.592-2.141-1.014-3.054-1.3-.935-.787-3.113-10.543-3.15-10.791-.284-1.833-.23-6.544-.345-7.643-1-9.924-.192-16.836,1.7-25.539.585.547,1.281,1.323,1.693.634a3.057,3.057,0,0,0,.246-.912c.257-.99,2-3.9,1.528-7.769-.106-.82-.24-.422.382-.26,1.45.395,1.347-6.5,1.441-8.022.26-4.3,1.553-5.678,2.49-8.454.489-1.436.34-3.143.878-5.04.416-1.45.838-1.819,1.348-3.714a15.434,15.434,0,0,0-.021-8.954c-.25-.936-.091-1.047-.3-1.262a.478.478,0,0,0-.672,0,15.845,15.845,0,0,1-1.788,4c-1.944,2.834-1.29,2.888-1.8,1.845-.724-1.458-1.438-2.041-1.945-3.2a25.57,25.57,0,0,1-.857-3.887c-.825-4.136-3.813-7.01-8-6.228a5.489,5.489,0,0,0-2.335.849c-.556.209-1.067.43-1.027.414-3.39,1.351-7.671.44-8.952-.5C3789.817,1333.859,3789.855,1331.467,3789.063,1331.467Z" transform="translate(-3732.183 -1299.873)" fill="#eef2ff"/>
        <path id="Border_Collie_3.4.2" data-name="Border Collie 3.4.2" d="M3691.761,1561.987a10.213,10.213,0,0,0-3.595,2.654c-.722.526-1.546.92-1.541,2.076a7.14,7.14,0,0,0,.469,2.157c.443.906,2.681,1.081,3.694,1.126,1.161.054,2.452.57,2.957.57,2.7,0,2.436-.372,4.6-.135.967.144,1.532.314,2.226-.393.88-.895.286-1.551.379-2.407.124-.877-.277-3.584-1.218-4.243C3697.716,1561.977,3694.287,1561.03,3691.761,1561.987Z" transform="translate(-3686.625 -1432.048)" fill="#eef2ff"/>
        <path id="Border_Collie_3.4.1" data-name="Border Collie 3.4.1" d="M3829.843,1257.244c-.911,0-3.749,1.508-3.381,3.511.674,3.712.879,6.356-1.165,9.566-1.333,2.1-1.746,2.031-2.6,3.327-2.328,3.53-1.552,4.667-2.365,8.241a14.718,14.718,0,0,0-.47,3.992c.095,1.6.941,3.525,2.661,3.56,5.116.072,4.293-2.874,8.926.105a3.277,3.277,0,0,0,2.369.765,2.874,2.874,0,0,0,2.586-1.646,8.431,8.431,0,0,0,.815-4.133c.09-9.812-3.876-6.923-4.312-13.874-.382-6.153.891-5.308,1.083-9.047a3.312,3.312,0,0,0-.625-2.479A8.253,8.253,0,0,0,3829.843,1257.244Z" transform="translate(-3763.14 -1257.244)" fill="#eef2ff"/>
      </g>
      <g id="Border_Collie_3.3" data-name="Border Collie 3.3" transform="translate(3565.193 1254.101)">
        <path id="Border_Collie_3.3.3" data-name="Border Collie 3.3.3" d="M3601.889,1536.054a6.234,6.234,0,0,1-2.191.6c-7.667,1.058-5.261,1.879-8.985,3.451-3.025,1.278-4.055.56-12.624,4.175a30.224,30.224,0,0,1-3.562,1.012c-1.19.21-9.054,1.428-9.322,2.619-.188.836,2,.953,2.616.9,9.762-.894,19.016.716,23.184.716,6.243,0,5.514-.192,7.09.007,5.88.864,7.288,1.536,6.847-.173-.417-1.615-1.26-5.245.014-6.334,2.7-1.921,4.94-2.984,5.381-7.7.021-.224-.31-.735-.653-.744A19.487,19.487,0,0,0,3601.889,1536.054Z" transform="translate(-3565.193 -1415.184)" fill="#afcaff"/>
        <path id="Border_Collie_3.3.2" data-name="Border Collie 3.3.2" d="M3878.49,1255.682c-2.743,0-3.741,1.328-2.835,1.328,3.7,1.616,5.288,10.986,6.188,12.711.508.977,1.257,1.4,2.5,3.705.733,1.358.578,1.734.964,1.734.8,0,.247-2.941.353-2.89,2.835,1.172,5.925,1.5,6.661,2.035.382.315.717.018.579-.49-.28-.7.767-5.733-5.04-11.077-1.207-1.105-4.143-2.82-4.886-3.717a4.316,4.316,0,0,0-2.46-2.018c-1.9-.812-1.157-.672-1.6-1.174A.586.586,0,0,0,3878.49,1255.682Z" transform="translate(-3743.317 -1255.009)" fill="#bad1ff"/>
        <path id="Border_Collie_3.3.1" data-name="Border Collie 3.3.1" d="M3790.593,1254.1c-1.02,0-.5.485-2.139.523-1.756.038-5.27,1.189-4.221,1.807-4.746,3.261-3.809,2.486-5.338,4.495-2.859,3.521-4.68,4.02-6.395,8.2.3-.576-1.412,2.89.578,1.606a5.535,5.535,0,0,1,2.973-.671c3.657,0,3.052-.838,3.146.858a2.451,2.451,0,0,0,.2.985,8.5,8.5,0,0,1,.906,3.518c.8.8.715-2.338,2.88-6.34,2.951-5.449.272-4.351,5.683-10.2,3.435-3.693,5.55-3.341,5.7-3.915.1-.367-.369-.427-.743-.5C3793.207,1254.335,3790.659,1254.1,3790.593,1254.1Z" transform="translate(-3684.029 -1254.101)" fill="#bad1ff"/>
      </g>
      <path id="Border_Collie_3.2" data-name="Border Collie 3.2" d="M3832.976,1305.35c-2.376,0-3.96,1.805-3.171,4.738.474,1.769,1.424,2.316,3.047,2.827.789.24.881,1.111,1.389.643.6-.559.911-.359,1.567-.618,3.151-1.211,3.5-5.136,2.226-6.506a3.2,3.2,0,0,0-2.794-.954C3833.944,1305.481,3833.507,1305.35,3832.976,1305.35Z" transform="translate(-151.86 -29.435)" fill="#2e2920"/>
      <g id="Border_Collie_3.1" data-name="Border Collie 3.1" transform="translate(3673.217 1266.86)">
        <path id="Border_Collie_3.1.2" data-name="Border Collie 3.1.2" d="M3820.414,1284.078a1.52,1.52,0,0,0-1.178,2.375,1.8,1.8,0,0,0,2.188.5C3822.818,1286.39,3822.279,1284,3820.414,1284.078Z" transform="translate(-3818.975 -1284.077)" fill="#2e2920"/>
        <path id="Border_Collie_3.1.1" data-name="Border Collie 3.1.1" d="M3861.039,1286.551a1.476,1.476,0,0,0-.755,2.449,1.53,1.53,0,0,0,2.791-.672C3863.262,1287.132,3861.958,1286.4,3861.039,1286.551Z" transform="translate(-3842.461 -1285.487)" fill="#2e2920"/>
      </g>
    </g>
  </g>
</svg>
