<svg xmlns="http://www.w3.org/2000/svg" width="253.538" height="196.137" viewBox="0 0 253.538 196.137">
  <g id="그룹_34" data-name="그룹 34" transform="translate(-61.462 -158.467)">
    <g id="그룹_27" data-name="그룹 27">
      <g id="그룹_26" data-name="그룹 26" transform="translate(84.519 -84.616)">
        <path id="패스_60" data-name="패스 60" d="M4048.607,3695.951c19.73-1.064,88.921-42.579,108.082,52.16s-59.611,123.48-99,130.931-127.737,2.129-147.962-92.61,50.03-100.06,67.062-101.125S4028.877,3697.016,4048.607,3695.951Z" transform="translate(-3929.163 -3442.159)" fill="#5890ff"/>
      </g>
    </g>
    <g id="Boxer_1_tan_" data-name="Boxer 1 [ tan ]" transform="translate(-2058.086 -2963.76)">
      <path id="Boxer_1.10" data-name="Boxer 1.10" d="M2479.605,3159.709c-.89,0-4.04.184-4.057.186-1.384.133-3.823-.323-6.7.46-1.981.529-2.268,1.573-4.189,3.92-.481.563-1.847,2.078-2.453,2.875-2.621,3.442-1.066,6.578-2.533,11.381-1.181,3.863-.965,5.353-.413,7.358a24.41,24.41,0,0,0,3.334,7.98c.415.748.205.349,1.947,2.374.39.457.831.1.747-.251-.624-2.664-2.262-3.567-2.482-7.913-.05-1.085-.412-1.958.015-2.989.756-1.344,4.808-1.164,2.152-6.574-.239-.489-2.095-2.979-.366-5.416a5.943,5.943,0,0,1,1.99-1.976c3.217-2.218,3.561-2.482,4.764-2.073,1.322.447,1.365,1.5,1.158,2.765-.342,2.11.231,2-1.085,4.095a16.594,16.594,0,0,0-.834,2.143c-.12.63.768.69,1.12.138.594-.344.038-.271,1.181-.684a5.834,5.834,0,0,1,1.515-.5c3.46-.713,1.752-7.806,2.88-11.658.246-1.426.3-.451.26.984a27.536,27.536,0,0,0,.359,3.83c.472,2.779-.022,3,.361,5.123.335,1.986,1.535,2.227,2.458,2.785a14.569,14.569,0,0,1,2.5,2.124c.358.46.552,1.06,1,.719.512-.38-.425-2.534-.868-3.086-1.213-1.513-2.311-2.793-1.844-4.722.176-.735-.04-1.664.641-2.6,1.326-1.834,1.583-.514,3.147.674,1.08.815,1.913.674,2.9,2.383,2.419,4.181-2.082,7.482-1.147,10.413.1.321.018.336-.005.753-.063,1.112,1.006,2.155,1.362,3.338.2.494-.009.837.423.92.535.473,1.131-1,1.306-1.689,2.379-9.342.447-6.534.918-11.229.155-1.537.7-3.378.16-5.59a40.824,40.824,0,0,0-2.772-6.243,10.925,10.925,0,0,0-8.854-4.528" transform="translate(-178.819 -0.705)" fill="#bad1ff"/>
      <g id="Boxer_1.9" data-name="Boxer 1.9" transform="translate(2156.46 3186.458)">
        <path id="Boxer_1.9.3" data-name="Boxer 1.9.3" d="M2522.9,3238.577c-.33,0-.39.3-.523.7-.773,2.329-2.093,4.906.283,7.569,7.786,8.732,2.931,10.319,3.638,14.048a11.024,11.024,0,0,0,1.913,4.114c1.077,1.282,1.034,1.116,1.029,2.79-.02,2.87-.762,6.144-2.777,8.188-1.094,1.1-.7,2.148-1.444,2.821-1.135.757-3.551.335-4,1.022-.307.472.161,1.642,1.52,2.531.252.167.545.268.794.443a.955.955,0,0,1,.161.169c.482.662.673.133.6.779-.1.631-.106,1.118.4,1.5.642.493,1.739.067,2.218-.061,1.783-.473,4-.083,6.575-2.211.645-.481,1.888-.752,1.442-1.529-.026-.047-.8-1.111-.794-1.1-2.086-2.936-2.654-2.947-2.105-8.9.382-4.184.67-5.235-.4-8.114-1.917-5.161-1.029-8.744-3.137-13.174-.017.007-2.927-6.071-4.356-9.806-.554-1.457-.543-1.783-1.034-1.783" transform="translate(-2370.824 -3232.295)" fill="#bad1ff"/>
        <path id="Boxer_1.9.2" data-name="Boxer 1.9.2" d="M2291.864,3223.891a.39.39,0,0,0-.368.279c-3.412,3.416-4.346,7.061-8.139,8.7-4.281,1.771-2.9,2.075-9.33,4.414a31.985,31.985,0,0,1-6.635,1.484c-5.922.912.653,1.48-15.93,1.725-3.3.042-16.82.828-18.774.964-6.319.441-5.729,1.165-8.652,2.013-7.06,2.044-9.311,5.107-13.067,7.335-8.489,5.053-4.9,9.232-15.09,14.966-3.912,2.219-3.676,1.981-8.708,1.981-5.819,0-7.53-.394-10.6,1.947-.091.069-3.2,2.783-4.307,3.594s-3.49,1.8-1.446,2.284c.57.219,2.494,2.919,5,3.076a6.233,6.233,0,0,0,2.678-.843c4.235-1.688,10.217-1.487,15.76-2.184,5.873-.738,5.758.1,16.808-.538,9.551-.566,14.209-.164,19.25-3.475,3.062-2.013,3.873-3.142,5.1-3.005,3.051.091,5.87,3.469,5.853,3.452,6.319,6.434,6.7,9.188,13.107,10,4.4.561,2.767-2.164,4.173-4.537.987-1.5,1.645-1.43,2.43-4.028.55-1.77.6-2.376,1.433-2.9a24.192,24.192,0,0,1,1.564,2.877,30.164,30.164,0,0,0,2.123,2.618c2.127,2.5,5.052,3.51,8.268,3.927.63.08.583-.136.487.821-.612,6.271,2.722,6.4,8.916,6.092,5.825-.276,13.291,2.624,21.161,1.556,1.534-.206,3.286.2,3.1-.719a1.9,1.9,0,0,0-.29-.547c-.917-1.28-.361-3.506-.416-4.155-.109-1.325-.937-1.479-.113-3.537a5.851,5.851,0,0,1,1.333-1.746,4.409,4.409,0,0,0,.61-.777c2.182-1.208-7.28-.886-10.012-4.181-1.322-1.759-.44-4.544-.44-6.267,0-2.808.642-2.5,1.363-3.428a4.9,4.9,0,0,0,.4-4.985c-.51-.97-1.02-1.535-.67-3.008,1.21-5.16-2.946-7.407-5.43-9.963-2.934-3.013-1.656-5.8-2.363-10.791-.225-1.6-1.2-5.334-.2-8.558.248-.8.786-1.935.071-1.935" transform="translate(-2170.02 -3223.891)" fill="#bad1ff"/>
        <path id="Boxer_1.9.1" data-name="Boxer 1.9.1" d="M2493.671,3235.17c-.164-.722-1.045.2-1.893-.173a14.611,14.611,0,0,1-2.029-1.1c-.981-.844-1.26-2.074-2.2-3.135s-.691-.72-1.082-1.149c-1.208-1.328-.391-2.184-4.037,1.5-5.475,5.564-7.2.7-7.971,1.425-.532.507.614,2.871.022,3.344-1.4,1.022,4.3,3.592,4.995,3.746a14.237,14.237,0,0,0,4.352.462c3.147.042,3.1.066,4.522-.333C2491.862,3238.78,2493.768,3235.609,2493.671,3235.17Zm-19.184.707h0C2474.5,3235.867,2474.5,3235.868,2474.487,3235.877Zm5.279.02c-.008.017-.009.018,0,0Zm8.06-3.349c-.03-.012-.026-.006-.019-.03Zm-1.647-3.267-.053-.076Zm-4.511,3.573c.1-.093.048-.031,0,0Zm-5.35.685-.06-.029Z" transform="translate(-2344.119 -3226.514)" fill="#bad1ff"/>
      </g>
      <path id="Boxer_1.8" data-name="Boxer 1.8" d="M2515.363,3335.341a7.538,7.538,0,0,0-2.837.8c-1.125.474,1.167.751,3.051,4.823,1.56,3.374,1.839,3.142,1.839,3.142,1.516,1.2,5.921,2.2,7.851,2.567.894.167,2.171.161,2.858.308,2.129.453,3.538,1.164,6.285,1.817,3.092.748,5.507,3.933,6.646,4.825,2.449,1.9,2.628.987,6.561,1.3.684.052,2.582.272,4.032.272,1.938,0,3.248-1.873,2.7-3.09-3.205-6.969-4.874-5.546-8.424-6.024-2.534-.355-2.466-.513-9.564-5.342-.61-.417-4.271-2.218-4.254-2.209-2.505-1.281-1.607-1.874-3.153-.825-4.861,3.248-4.074,1.982-6.156,2.528,0-.017-1.181.241-1.177.257-2.8.474-.855-.391-2.6-2.008-.6-.575-.823-.321-1.994-1.382a6.46,6.46,0,0,1-.956-1.586c-.1-.184-.372-.182-.706-.182" transform="translate(-209.386 -101.209)" fill="#eef2ff"/>
      <g id="Boxer_1.7" data-name="Boxer 1.7" transform="translate(2283.645 3168.034)">
        <path id="Boxer_1.7.2" data-name="Boxer 1.7.2" d="M2473.233,3181.611c-9.085,6.091-2.025,7.042-5.208,13.892-1.022,1.948-.922,7.421.574,9.438,1.313,1.76.921,3.677,1.631,3.948.584.19.5-.652.49-.635.453-.987-.487-2.986-.354-3.855.791-3.841-.715-2.622,1.471-5.863,1.215-1.824.589-2.858,1.482-4.52a13.24,13.24,0,0,1,1.889-2.338c1.057-1.49-.215-.874,1.482-3.935C2479.337,3182.979,2477.007,3179.092,2473.233,3181.611Zm-5.6,15.412-.01.02Z" transform="translate(-2467.35 -3180.82)" fill="#afcaff"/>
        <path id="Boxer_1.7.1" data-name="Boxer 1.7.1" d="M2518.317,3195.133c.337-4.218,2.242-7.634-1.625-10.209a6.264,6.264,0,0,1-2.215-1.654,1.55,1.55,0,0,0-1.125-.593.716.716,0,0,0-.72.139,5.657,5.657,0,0,0-.974,1.91c-1.477,5.137,1.417,5,2.116,8.239.454,2.09,0,1.053.378,2.918a18.8,18.8,0,0,1,.674,3.743c-.023,4.135-.58,2.985-1.144,5.665a8.759,8.759,0,0,1-.915,2.272c-.97,1.974,1.032,1.979,3.718-.413.738-.658.713-1.4,1.948-3.095C2520.448,3201.182,2517.951,3199.323,2518.317,3195.133Zm.635-4.775Z" transform="translate(-2492.468 -3181.859)" fill="#afcaff"/>
      </g>
      <g id="Boxer_1.6" data-name="Boxer 1.6" transform="translate(2274.236 3158.476)">
        <path id="Boxer_1.6.2" data-name="Boxer 1.6.2" d="M2459.009,3158.476c-1.134,0-2.97,1.152-4.514,1.74-3.2,1.2-4.97-.053-7.393,1.476-1.527.969-1.671.908-1.746,1.731a14.339,14.339,0,0,0,.073,1.433c.379,1.883-.15,4.335.892,6.359,1.677,3.229,1.022,4.409.587,7.221-.224,1.473.516,1.283,1.274.364a33.692,33.692,0,0,0,2.654-4.208c.993-1.4,1.246-1.173,1.229-1.171,1.294-.051.747,0,1.2-2.6.054-.334.247-1.917.389-2.375.679-2.24,2.856-3.64,3.654-4.9a8.469,8.469,0,0,1,4.444-3.758c1.552-.653-1.054-1.309-2.74-1.309" transform="translate(-2445.353 -3158.476)" fill="#afcaff"/>
        <path id="Boxer_1.6.1" data-name="Boxer 1.6.1" d="M2519.22,3161.1c-3.59,0-.252.967,1.076,2.075,2,1.93,1.835,2.28,2.753,4.1a8.542,8.542,0,0,1,.867,1.615c.008-.017.1.322.117.314a8.6,8.6,0,0,1,.87,4.117c.1,2.93-.855,3.941-.126,3.969.208,0,.133-.069.611-.482,3.315-2.938.372-2.354,3.082,1.092,1.492,1.9.977,3.407,2.286,4.325.245.167.212.352.455.361.519,0,1.053-2.049.084-4.572-1.211-3.457,4.086-7.006,1.934-11.586a3.016,3.016,0,0,0-1.475-1.585,7.039,7.039,0,0,0-1.418-.537c-4.835-1.154-2.906-3.212-11.115-3.212" transform="translate(-2486.7 -3159.98)" fill="#afcaff"/>
      </g>
      <path id="Boxer_1.5" data-name="Boxer 1.5" d="M2285.24,3327.863c-1.747,0-4.97,2.685-5.585,3.079-5.514,3.509-8.465,2.221-18.445,3.264-1.255.125-1.346.228-2.472.336-1.139.125-1.318.043-1.454.239a10.453,10.453,0,0,1,2.17,2.388c.211.625.111,1.184.366,1.607.085.119.3.326.445.508a6.256,6.256,0,0,1,.438.777c.846,1.26.292,1.228,1.108,1.228,0,.2,5.068-.637,11.828-.258,3.689.2,8.962-.6,11.106-.81,1.517,0,5.121-.29,5.051-.283a15.95,15.95,0,0,0,6.654-2.282c.59-.355-1.2-1.716-2.459-3.344-.918-1.183-4.943-5.481-6.492-6A6.676,6.676,0,0,0,2285.24,3327.863Zm-1.338.357h0Z" transform="translate(-63.497 -96.93)" fill="#afcaff"/>
      <path id="Boxer_1.4" data-name="Boxer 1.4" d="M2378.01,3333.072c-1.074,0-1.4,1.985-1.78,3.215-.757,2.51-2.334,2.766-2.848,4.853a11.3,11.3,0,0,1-.625,2.438,1.588,1.588,0,0,1-.668.747c-.31,0-.383.466.156.574,4.2.827,4.275,1.417,9.821,2.311-.226-.075,9.936,1.8,9.953,1.805a.235.235,0,0,0,.215-.4c.108-.1-.427-.089-1.122-1.265-2.076-3.5,1.5-4.858-2.53-5.406a10,10,0,0,1-5.462-2.172h0l-.023-.017h0l-.013-.015a9.992,9.992,0,0,1-1.842-2.116,10.813,10.813,0,0,1-2.333-3.062c-.481-1.091-.591-1.492-.9-1.492" transform="translate(-129.055 -99.911)" fill="#eef2ff"/>
      <g id="Boxer_1.3" data-name="Boxer 1.3" transform="translate(2146.324 3183.558)">
        <path id="Boxer_1.3.3" data-name="Boxer 1.3.3" d="M2455.509,3217.111c-.645,0-.253.862-1.584,2.4.08-.058-.053.026-.156.247-.171.361-.693,5.629-.7,6.338-.028,3.067.734,4,.869,6.147.065,1.016-.223,5.395.853,7.542a5.752,5.752,0,0,0,2.168,2.611,5.822,5.822,0,0,1,2.108,1.92c.92,1.415,1.3,1.255,2.1,3.081,1.722,3.99-1.034,3.664.844,6.948a4.5,4.5,0,0,1,.553,2.557c-.136,2.868-2.217,2.042-2.161,5.739.044,5.646-1.193,7.776,5.48,8.854,1.684.263,1.911.9,4.181.9,2.5,0,.3,1.1-.643,2.21a3.891,3.891,0,0,0-.625,3.27c.558,2.9-.438,1.548.314,4.986.145.656-.113,1.885,2.043,2.124.424.047,2.231.236,2.726.236,4.958,0,7.282,1.306,11.54,1.543a9.561,9.561,0,0,1,4.094.751c-.13-.073.756.33.692.3,1.446.687,1.634,1.181,4.023,1.192a25.592,25.592,0,0,1,2.677-.059c.412.047.553.206,1.527.333.453.058,1.137.071,1.12.07,3.07.105,3.852.11,5.34-1.174.276-.164.45-.075.854-.241.823-.349.506-1.352.507-1.335-.052-1,.191-.23-.093-1.669a5.091,5.091,0,0,0-.89-1.283c-1.8-2.132-3.558-2.631-7.537-3.7a33.923,33.923,0,0,0-3.847-1.087c-.179-.028-2.193-.235-3.079-.385-7.6-1.257-11.849-4.864-15.234-6.3h0c.019.012-.042-.023-.072-.036l.023.015c-1.271-.593-1.54.028.876-1.712,1.189-.863,2.043-2.015,3.91-2.149-.017,0,.994-.129.977-.128.423-.057.645-.2,2.45-.689,3.172-.463,3.875-2.762,3.806-2.628,1.646-3.2,2.092-2.2,2.6-5.308.442-3.128.773-2.653.722-4.518-.034-1.676-1.245-2.041-1.865-3.535-.007-.018-.738-1.639-.746-1.656-1.588-3.388,1.043-5.041.432-8.049-.41-1.995-1.618-2.993-1.951-3.892-1.272-3.477-5.876-4.048-2.956-10.383a8.182,8.182,0,0,1,.442-.981.425.425,0,1,0-.735-.425,4.615,4.615,0,0,1-.787.9c-.787.763-1.234,1.17-1.217,1.154-.274.266-5.105,9.116-16.5,3.712a8.787,8.787,0,0,1-3.119-2.694c-7-7.558-4.859-12.054-6.35-12.054" transform="translate(-2321.854 -3217.111)" fill="#eef2ff"/>
        <path id="Boxer_1.3.2" data-name="Boxer 1.3.2" d="M2245.947,3343.532c-2.272,0-2.79,1.694-3.906,2.863a3.638,3.638,0,0,0-1.072,2.1c-.47,3.2.145,6.757,3.331,6.683a20.407,20.407,0,0,1,2.618-.071c3.192.251,5.324-4.026,4.889-5.112a7.409,7.409,0,0,0-1.242-2.066c-.451-.488-.3-.956-.513-1.745a8.477,8.477,0,0,0-2.232-2.459c-.2-.076-1.856-.2-1.874-.2" transform="translate(-2200.404 -3289.454)" fill="#eef2ff"/>
        <path id="Boxer_1.3.1" data-name="Boxer 1.3.1" d="M2156.4,3343.036a30.363,30.363,0,0,0-5.282,1.348c-1.024.469-2.414.934-2.639,1.03-1.693.716-1.161,1.847-1.53,2.624-1.738,3.863.706,4.862.714,4.845.628.342.751.69,1.161,1.113,1.632,1.722,3.925-.042,5.8-.061a3.569,3.569,0,0,0,3.036-.963,9.423,9.423,0,0,0,2.931-3.492c1.271-2.132,2.681-2.242,2.463-2.675-.163-.341-.83.226-2.319-.519-2.113-1.166-2.248-2.141-3.63-2.812-.316-.143-.559-.437-.7-.437" transform="translate(-2146.323 -3289.17)" fill="#eef2ff"/>
      </g>
      <path id="Boxer_1.2" data-name="Boxer 1.2" d="M2493.229,3189.341c-.075-.516-.263-1.911-.7-2.187a12.569,12.569,0,0,0-3.8-3.254c-2.745-1.821-1.125-2.971-2.005-8.094-.145-.915-.261-3.783-.259-3.767-.1-2-.824-1.641-1.034,2.441-.053,1.229-.214,1.24-.383,3.089-.076.8.356,4.952-1.754,5.476a14.54,14.54,0,0,0-3.794,1.8,17.537,17.537,0,0,0-1.139,1.548c-1.513,1.834-1.855,1.717-2.548,4.966-.573,2.347-1.335,1.961-1.558,3.664-.76,5.994-.161,4.281.639,4.978,1.954,1.865,5.493.9,7.184-1.144,1.358-1.693,1.2-1.538,1.854-2.048,1.037-.8,1.088-1.12,1.515-.929.651.385.65.768,1.2,1.332,1.831,1.919,1.766,2.866,2.858,3.878,2.694,2.156,1.866-.515,3.47-4.081C2494.78,3193.026,2493.675,3192.484,2493.229,3189.341Zm-8.62,6.891.012-.013Zm7.361-7.153c.049.024.041,0,.042.064C2492,3189.122,2491.985,3189.1,2491.97,3189.079Z" transform="translate(-187.454 -7.084)" fill="#eef2ff"/>
      <g id="Boxer_1.1" data-name="Boxer 1.1" transform="translate(2286.352 3171.959)">
        <path id="Boxer_1.1.3" data-name="Boxer 1.1.3" d="M2493.406,3201.947c-2.149,0-3.14,1-4.271,1.494-2.327,1-1.51,3.057-1.6,2.587.182.91.424.718,2.12,1.508,1.076.577,2.142,3.707,4.293,2.756.779-.345.394-.7,1.752-1.564.683-.439,1.746-.708,2.391-1.2.9-.685.894-2.375-.911-3.67-1.11-.8-1.266-1.912-3.771-1.912" transform="translate(-2481.568 -3196.835)" fill="#2e2920"/>
        <path id="Boxer_1.1.2" data-name="Boxer 1.1.2" d="M2519.946,3194.586c.02-.22-.036-.1-.582-.775a1.8,1.8,0,0,0-1.594-.869c-1.27-.037-1.568,1.212-1.992,1.825a.343.343,0,0,0,.247.51c.614.049,1.586,2.3,3.333.009C2519.714,3194.917,2520.033,3194.9,2519.946,3194.586Zm-.2-.332c.022.021,0,0-.027-.022Zm-3.021,1.482.018.016Z" transform="translate(-2497.742 -3191.682)" fill="#2e2920"/>
        <path id="Boxer_1.1.1" data-name="Boxer 1.1.1" d="M2478.252,3191.775c-.076-.371-.081-.263-.285-.408-2.329-2.465-2.654-1.126-4.182.3-.258.243,0,.468.241.668.434.416,1.479,2.652,3.658.086C2477.946,3192.124,2478.32,3192.105,2478.252,3191.775Zm-.273-.395Zm-3.855-.059c-.009.017.045-.051-.024.027Zm3.578,1.076c-.017.017,0,.006.019-.022Z" transform="translate(-2473.677 -3189.997)" fill="#2e2920"/>
      </g>
    </g>
  </g>
</svg>
