<svg xmlns="http://www.w3.org/2000/svg" width="253.538" height="196.137" viewBox="0 0 253.538 196.137">
  <g id="그룹_30" data-name="그룹 30" transform="translate(-61.462 -158.467)">
    <g id="그룹_27" data-name="그룹 27">
      <g id="그룹_26" data-name="그룹 26" transform="translate(84.519 -84.616)">
        <path id="패스_60" data-name="패스 60" d="M4048.607,3695.951c19.73-1.064,88.921-42.579,108.082,52.16s-59.611,123.48-99,130.931-127.737,2.129-147.962-92.61,50.03-100.06,67.062-101.125S4028.877,3697.016,4048.607,3695.951Z" transform="translate(-3929.163 -3442.159)" fill="#5890ff"/>
      </g>
    </g>
    <g id="Bull_Dog_1_tan_" data-name="Bull Dog 1 [ tan ]" transform="translate(-853.287 -2478.551)">
      <g id="Bull_Dog_1.6" data-name="Bull Dog 1.6" transform="translate(980.621 2689.733)">
        <path id="Bull_Dog_1.6.2" data-name="Bull Dog 1.6.2" d="M1096.253,2713.3c-.357,0-1.613.62.882,1.928.254.137.074.271.414.479a29.314,29.314,0,0,1,2.8,2.411c7.138,7.27,3.52,11.17,2.12,15.908-1.124,3.84.487,6.88-.468,9.257-3.259,7.53-1.4,9.816-4.286,14.292-7.315,11.338-4.471,14.27-7.681,18.85-2.3,2.745-4.49,3.992-1.788,6.732,2.976,3.011,4.545,2.157,4.466,4.883-2.654,3.352-9.037,1.071-8.026,6.253.347,1.805,2.622,3.087,2.682,5.814.569,4.3,2.478,4.339,4.347,5.6.489.314.446.347.389.483a10.125,10.125,0,0,0-.595,3.387c-.577,3.386-2.821,5.073-3.682,7.771-1.981,6.172-3.792,3.429-6.666,7.78a3.833,3.833,0,0,0-.622,3.887c.256,2.405.338,5,3.443,4.479,2.33-.381,2.692.765,5.811.765,2.215-.015,3.013-1.4,5.251-1.136,10.85,1.506,8.354-6.037,11.793-18.254.465-3.367-.561-2.9,1.723-2.461,5.976,1.147,21.32.676,24.392,1.269.788.149-3.03.2-4.954,3.267-1.267,2.046-2.055,2.015-2.193,4.629-.058,1.091,1.015,2.459,1.908,3.128a4.121,4.121,0,0,0,1.415.431,12.08,12.08,0,0,0,6.735,1.8c1.906-.173,2.57-.859,4.07-1.17,7.181-1.493,2.067-1.287,9.85-2.927a19.5,19.5,0,0,0,8.718-3.919c1.052-.823,1.564-3.109,1.346-4.45-.271-1.655-2.013-3.458-.448-9.682a9.389,9.389,0,0,0,.063-5.167c-.924-3.967.814-2.781-1.427-11.079-2.56-9.387-.321-8.464-1.524-14.146-2.424-11.427-21.5-21.1-26.274-25.022-2.587-2.135-3.083-3.2-4.517-4.156-4.561-3.036-1.946-1.928-6.731-6.147-2.571-2.284-3.324-2.069-7.694-7.508-4.112-5.4-3.632-10.7-12.417-16.839C1098.828,2714.686,1096.314,2713.3,1096.253,2713.3Z" transform="translate(-1024.453 -2713.296)" fill="#bad1ff"/>
        <path id="Bull_Dog_1.6.1" data-name="Bull Dog 1.6.1" d="M993.157,2741.531c-.774,0-1.012.767-1.166,1.058a37.155,37.155,0,0,1-2.223,3,24.076,24.076,0,0,0-3.52,6.751c-1.072,2.486-2,3.652-2.5,7.7a21.429,21.429,0,0,0-.2,6.206,21.168,21.168,0,0,0,2.633,7.477c5.572,10.665,2.407,8.412,4.3,17,2.6,11.8,6.607,17.068,5.877,23.4a36.515,36.515,0,0,1-3.926,10.388c-2.26,2.6-5.217,2.7-8.923,6.436-1.9,1.917-3.483,5.947-2.1,7.55,1.144,1.333,10.174,1.021,9.568,1.021,1.984,0,1.553.365,2.741.761,2.885.954,9.413-3.617,10.292-5.238a9.96,9.96,0,0,0,.464-1.046c.846-1.819,1.815-1.7,2.761-3.964.855-2.041.421-1.988.616-4.765.344-5.2,1.31-3.837,1.406-8.656.173-7.952,3.1-13,1.229-13-.6,0-1.252-2.011-6.156-5.673-2.123-1.736-.478-2.924-1.33-6.274-.9-3.485-4-2.37-5.352-7.734a23.087,23.087,0,0,0-1.877-5.124c-3.89-8.682-4.73-6.968-3.5-13.126,1.157-5.779,2.473-1.6,6.666-5.983.333-.347,2.659-2.315,1.156-2.77a.63.63,0,0,0-.339,0c-1.342-1.444-2.434-1.184-2.729-3.137-.255-2.667,1.515-4.275-.847-8.538C995.93,2744.788,993.812,2741.531,993.157,2741.531Zm-4.83,9-.051.108Z" transform="translate(-980.882 -2725.675)" fill="#bad1ff"/>
      </g>
      <path id="Bull_Dog_1.5" data-name="Bull Dog 1.5" d="M1029.537,2665.49c-3.31.229-8.784-.361-8.888.012-.031.113-5.25,2.333-5.909,6.937-.428,4.041,2.829,6.195,3.133,10.1.05.893-.255.535-.056.809a.758.758,0,0,0,.953.682c8.981-3.262,19.783,1.6,23.7,7.742a24.3,24.3,0,0,1,3.109,7.866c-.01.045.8,6.771.794,6.746,1.406,15.291.149,15.468-1.76,18.051-2.6,3.227-5.1,2.87-7.932.012-3.946-3.949-6.438-1.381-10.29-1.511-2.1-.064-3.3-.482-4.6-.482a23.984,23.984,0,0,1-3.193.255c-5.5-.788-5.393-2.763-6.254-1.472-.417.628-.189,1.266-2.807,2.492-2.246.828-.268.856-3.244,2.744-3.355,2.132-5.406.44-6.236,4.212-2.055,9.048.728,7.095,4.126,17.08.558,1.648.829,4.109,1.656,5.2,2.365,3.122,3.543,2.585,4.708,4.555,1.452,2.463-1.084,5,1.69,7.713,1.233,1.194,3.711,2.084,8.132,6.92,9.4,10.225,17.169,11.475,26.465,13.631,2.552.569,7.605,2.28,9.04,2.3.829,0,.847-.955.886-1.072a1.634,1.634,0,0,0,.261-.9c.227-3.483-3.356-2.068-4.641-7.591-.882-3.736-3.124-3.829-2.822-6.693.321-1.94,1.085-1.552,2.255-1.812,1.916-.429,5.8-1.3,6.136-2.873a3.122,3.122,0,0,0-1.29-2.875c-5.767-4.7-5.73-4.643-2.861-7.389a11.8,11.8,0,0,0,3.509-6.949c.188-3.26.184-4.873,3.661-10.554,3.9-6.356,3.635-9.579,4.473-13.262.986-4.362,2.246-3.71,1.741-7.39-1.072-8.284,4.56-9.921,2.029-16.987-1.889-5.284-7.261-6.869-9.109-10.336a13.066,13.066,0,0,1-1.107-2.115c-2.666-8.937-5.53-8.434-8.1-12.914C1044.513,2665,1045.032,2664.406,1029.537,2665.49Z" transform="translate(-8.358 -2.439)" fill="#eef2ff"/>
      <path id="Bull_Dog_1.4" data-name="Bull Dog 1.4" d="M1016.637,2665.162c-.371,0-7.048.319-9.77,2.478-4.9,3.9-10.847,13.933-11.525,18.335,0,.025-.387,3.728-.384,3.7a36.028,36.028,0,0,0-.72,5.758c-.022,8.494,5.6,13.544,6.723,15.307a3.34,3.34,0,0,0,.641.655c1.337,2.247,1.05,2.556,1.515,2.556,1.683,0-3.157-17.058,6.665-26.652,5.4-5.266,6.319-2.72,5.767-5.693-.58-2.969-3.443-5.461-3.051-9.148C1013.38,2666.068,1022.082,2665.162,1016.637,2665.162Z" transform="translate(-6.116 -2.46)" fill="#bad1ff"/>
      <g id="Bull_Dog_1.3" data-name="Bull Dog 1.3" transform="translate(980.288 2659.551)">
        <path id="Bull_Dog_1.3.2" data-name="Bull Dog 1.3.2" d="M996.745,2659.551c-1.468,0-2.63.3-5.849,1.913a25.267,25.267,0,0,0-5.069,3.635c-9.267,6.986-4.072,7.127-4.229,17.694-.011.706.517.725.9.177,2.2-3.136.791-3.618,2.5-2.4a6.059,6.059,0,0,1,1.38,1.039c.211.291,1.586,3.17,1.991,3.639a.377.377,0,0,0,.641.3c.1-.1.106-.159.2-.889,1.405-7.312,9.926-21,16.223-21.134.376-.008,1.248-.411-.236-1.339a7.3,7.3,0,0,0-2.792-1.061A15.02,15.02,0,0,0,996.745,2659.551Z" transform="translate(-980.288 -2659.551)" fill="#afcaff"/>
        <path id="Bull_Dog_1.3.1" data-name="Bull Dog 1.3.1" d="M1083.379,2663.5c-1.519,0-6.126,1.082-5.908,1.851.169.628.261-.669,3.16,3.508,1.27,1.825,5.355,8.515,6.841,10.138a27.316,27.316,0,0,1,3,3.461c.881,1.353.861,1.783,1.272,1.783.488,0,1.364-1.486,1.344-1.437.208-.5.029-.512.457.4.546,1.171,1.154,1.8,1.6,2.788.012.025.765,1.5.782,1.524.863,1.268,1.393-3.217,2.063-4.316.872-2.095,1.789-3.423,1.91-5.881.295-5.789-5.788-8.775-8.182-10.6A24.681,24.681,0,0,0,1083.379,2663.5Z" transform="translate(-1022.892 -2661.28)" fill="#afcaff"/>
      </g>
      <path id="Bull_Dog_1.2" data-name="Bull Dog 1.2" d="M1051.422,2726.705c0-.027-.309-3.792-.378-5.329.2-.317.078-1.66,0-3.857-.257-7.667-1.881-14.093-8.923-17.947-8.28-4.5-12.1-3.187-18.137-3.195-2.1,0-3.27.847-5.305,2.149-12.414,7.954-8.2,22.685-9.284,22.685a36.694,36.694,0,0,0-.2,5.428c.2,4.115-2.183,7.352.385,9.9a4.14,4.14,0,0,0,3.483,1.4c2.891-.032,4.047-2.7,4.306-2.57,6.481,2.978,7.764.716,11.439,1.542a16.926,16.926,0,0,0,7.311-.309c1.8-.235,2.944,1.3,5.924,3.141C1044.191,2742.1,1052.363,2741.665,1051.422,2726.705Zm-.32-5.691c.016.107.013.082,0,0Z" transform="translate(-12.317 -16.071)" fill="#afcaff"/>
      <g id="Bull_Dog_1.1" data-name="Bull Dog 1.1" transform="translate(997.594 2680.642)">
        <path id="Bull_Dog_1.1.3" data-name="Bull Dog 1.1.3" d="M1014.475,2697.108a3.252,3.252,0,0,0-2.069,5.844,2.083,2.083,0,0,0,2.6.173c3.113-2.671,2.92-2.062,3.147-2.5C1018.68,2699.621,1017.43,2697.108,1014.475,2697.108Z" transform="translate(-1011.105 -2697.108)" fill="#2e2920"/>
        <path id="Bull_Dog_1.1.2" data-name="Bull Dog 1.1.2" d="M1074.011,2698.653c-2.228,0-3.469,2.8-2.717,3.29,2.213,1.418,2.557,2.7,2.959,2.806,1.07.309,3.047-.927,3.17-2.869A3.215,3.215,0,0,0,1074.011,2698.653Z" transform="translate(-1037.397 -2697.785)" fill="#2e2920"/>
        <path id="Bull_Dog_1.1.1" data-name="Bull Dog 1.1.1" d="M1042.672,2702.61c-3.955,0-6.912.029-9.421,3.108-.825,1-3.144,2.7.635,3.933,2.639.868,3.352,7.634,7.745,6.6,2.87-.673,3.053-4.334,4.366-5.424,1.607-1.166,5.3-.685,3.475-3.83C1048.2,2704.813,1045.322,2702.61,1042.672,2702.61Z" transform="translate(-1020.174 -2699.521)" fill="#2e2920"/>
      </g>
    </g>
  </g>
</svg>
