<svg xmlns="http://www.w3.org/2000/svg" width="253.538" height="196.137" viewBox="0 0 253.538 196.137">
  <g id="그룹_27" data-name="그룹 27" transform="translate(-61.462 -158.467)">
    <g id="그룹_26" data-name="그룹 26" transform="translate(84.519 -84.616)">
      <path id="패스_60" data-name="패스 60" d="M4048.607,3695.951c19.73-1.064,88.921-42.579,108.082,52.16s-59.611,123.48-99,130.931-127.737,2.129-147.962-92.61,50.03-100.06,67.062-101.125S4028.877,3697.016,4048.607,3695.951Z" transform="translate(-3929.163 -3442.159)" fill="#5890ff"/>
    </g>
    <g id="Chuhuahua_2_tan_" data-name="Chuhuahua 2 [ tan ]" transform="translate(-195.439 -9.04)">
      <g id="Chuhuahua_2.7" data-name="Chuhuahua 2.7">
        <path id="Chuhuahua_2.7.2" data-name="Chuhuahua 2.7.2" d="M354.113,281.528c-1.79-.914-6.011,7.382-6.256,7.8-3.9,6.68-2.577,2.253-5.552,11.415-1.659,5.114-1.094.158-2.3.851-.2.118-.343,1.3-.325,1.269-.322,2.47-1.629,3.427-1.61,7.748,0,1.214-.3,8.806-.307,8.844-.395,7.2-6.651,11.648.643,14.205a4.117,4.117,0,0,0,2.538.132c1.875-.513,4.122-.441,4.85-.892a2.948,2.948,0,0,0,.88-2.326,16.824,16.824,0,0,0-1.043-2.651c-.706-1.451-1.275-1.633-.787-11.214.244-5.15.93-3.476,1.815-9.773.228-1.632.587-4.652,4.76-9.248,2.83-3.106,3.353-9.041,4.4-12.55C356.48,282.927,357.048,283.052,354.113,281.528Z" fill="#afcaff"/>
        <path id="Chuhuahua_2.7.1" data-name="Chuhuahua 2.7.1" d="M370.379,329.676c0-14.181-2.685-16.546-4-20.444-1.931-5.611-.262-13.863-2.745-9.909-.386.642-1.966,2.242-2.559,3.956-.633,1.805.442,3.147.442,8.773,0,4.624.426,3.356.774,5.683.651,5.409-2.183,13.268,6.416,12.789C370.363,330.436,370.379,330.632,370.379,329.676Zm-5.936-29.7c.005.037,0,.015,0,.045C364.416,300.005,364.422,300.006,364.443,299.972Zm-.378,22.213v0C364.063,322.164,364.062,322.159,364.065,322.185Zm3.642-9.668v0c.012.026-.005-.011,0-.009Z" fill="#afcaff"/>
      </g>
      <path id="Chuhuahua_2.6" data-name="Chuhuahua 2.6" d="M434.823,188.172c-4.626-6.043-18.634,13.971-23.4,16.149-5.965,2.409-3.864-.238-16.593,1.611-9.861,1.555-5.123,2.884-12.53-.643-19.321-9.1-16.276-7.779-19.011-8.534-2.54-.726-4.292.616-2.976,5.011,2.45,8.051,7.033,17.948,9.738,22.179,3.765,5.935,5.769,2.7,8.711,6.544,1.169,3.471.247,3.845,1.468,7.79.787,2.539,3.47,5.223,3.23,7.829-.623,3.844-14.6-9.656-34.225,5.768-1.874,1.454-1.18,1.444-2.2,1.046-4.862-2.129-12.8-14.127-12.429-24.387.092-2.153.979-8.039-.3-8.039-.756,0-7.114,9.638,1.974,27.433,2.5,4.879,6.218,7.524,7.344,9h0l0,0,0,0c1.57,2.082,0-1.52-3.1,12.21-.688,3.085.085,8.914-.852,21.462-.83,9.138.308,7.32.646,11.606.132,2.65,1.611,1.235,2.448-1.326,3.914-12.05,1.208-3.811,6.919-14.272,5.073-9.268,5.37-3.209,13.354,3.071,1.053.809.787.864,1.263,1.287-.872,3.622.417,7.656.63,8.727.8,4.191-.123,6.6,1.874,11.214.111.27.74,1.638,1.847,4.653.477,1.061,2.641,13.742.633,20.76-.706,2.508-3.346,4.108.092,7.179,1.577,1.408,3.675.733,4.607.6.946-.1,9.436,1.18,8.086-4.074-.522-2.013.274-2.754-.09-5.043-.425-2.717-1.3-3.948-1.485-7.657-.178-4.24.766-6.114-.5-10.156-.951-3.1-2.094-5.686-1.621-12.945.317-4.827-.125-4.133.578-3.806,4.569,2.227,6.176,5.371,13.445,4.724,3.506-.263,5.254-.506,8.8-3.335,2.213-1.754,5.352-5.161,6.6-5.656.969-.389-.518,3.907-.649,4.791-1.127,5.334.661,9.409-.749,21.817-.735,6.667-.013,3.756.74,8.958,1.946,15.233,3.481,11.251,8.056,12.618,3.41,1,4.049-.131,7.52-.131a1.82,1.82,0,0,0,1.985-1.663c.063-1.286-.656-1.745-1.485-3.379-.537-1.054-.74-2.329-2.107-2.856-2.754-1.081-2.113.6-3.364-4.57-1.357-5.636-1.408-4.681-1.7-7.205a10.789,10.789,0,0,0-.312-2.6h0l-.019-.037h0c-.13-.325-.13-.069.11-.291.809-.747,2.686-10.206,2.694-10.243.91-4.222,2.477-6.5,2.969-13.531.813-11.895,5.37-12.235,2.917-23.87-.728-3.448-1.05-3.772-1.422-6a97.338,97.338,0,0,0-2.544-12.08c-1.212-4.81.129-13.071,1.974-18.19.678-1.9.294-2.787.515-4.962a29.228,29.228,0,0,0,.463-3.489c.822-7.88,3.521-6.721,5.835-9.5C433.2,214.989,436.539,190.427,434.823,188.172ZM332.3,233.749h0v-.02l0,.02h0C332.317,233.917,332.328,234.034,332.3,233.749Z" fill="#eef2ff"/>
      <g id="Chuhuahua_2.5" data-name="Chuhuahua 2.5">
        <path id="Chuhuahua_2.5.3" data-name="Chuhuahua 2.5.3" d="M421.913,277.977c-2.276,0-3.175,2.416-5.954,4.613-4.328,3.436-6.1,2.155-9.446,4.251-4.275,2.564-6.115.209-9-.006a14.254,14.254,0,0,1-6.795-1.86c-1.781-1.167-2.689-.712-4.283-1.339-2.738-1.071-2.427.017-4.02-1.049-3.443-2.317-8.729-6.361-10.289-2.288a5.513,5.513,0,0,0-.055,1.758c.147,1.828-1.834,3.9.671,8.186,1.27,2.2,1.025,4.058,3.428,4.6,3.652.878,5.391-.283,7.38,1.8,4.257,4.487,6.471,4.051,8.758,5.169,1.211.594,3.959,2.56,7.549-1.532,2.991-1.82,2.55-5.412,4.787-7.016,2.138-1.527,9.988-1.089,10.309-1.089,7.333.047,7.233-4.044,8.011-6.5a15.048,15.048,0,0,0,.774-5.27c.162-1.579-.093-2.428-1.823-2.428" fill="#bad1ff"/>
        <path id="Chuhuahua_2.5.2" data-name="Chuhuahua 2.5.2" d="M411.357,214.717c-1.273,0-2.712,2.377-3.035,3.527-.2.733-.3,3.116.67,3.116.455,0,.755-.979,2.6-2.14.871-.552,2.37-1.32,2.575-2.728s-1.547-1.232-1.953-1.369c-.3-.16-.352-.383-.861-.406" fill="#bad1ff"/>
        <path id="Chuhuahua_2.5.1" data-name="Chuhuahua 2.5.1" d="M391.633,217c-.687,0-.8.416-2.133,1.187-2.218,1.292-.751,3.133,1.633,3.815,4.847,1.4,2.6.486,3.1.792,1.507.843-.486-5.794-2.6-5.794" fill="#bad1ff"/>
      </g>
      <g id="Chuhuahua_2.4" data-name="Chuhuahua 2.4">
        <path id="Chuhuahua_2.4.2" data-name="Chuhuahua 2.4.2" d="M431.466,190.828c-1.5,0-4.457,2.1-4.12,1.869-5.232,3.663-5.411,5.775-7.128,7.5-4.194,4.189-2.507,6.512-2.761,9.353-.052.584-.085.824.13.968a2.459,2.459,0,0,0,.55,1.611h0c1.369,1.736,3.447,2.607,3.179,2.782.468.591,1.365,3.934,2.916,4.118a4.6,4.6,0,0,0,4.991-2.346c.98-1.457.43-3.8,1.25-6.189a38.78,38.78,0,0,0,2.8-11.136c.151-2.609.793-8.525-1.8-8.525" fill="#bad1ff"/>
        <path id="Chuhuahua_2.4.1" data-name="Chuhuahua 2.4.1" d="M364.4,199.8c.069,0-2.688.008-1.448,3.824,1.153,3.694,2.2,3.626,3.082,8.259.481,2.523,4.3,8.613,4.276,8.575,1.071,1.778.585,3.577,5.166,5.094,3.961,1.314,2.519-3.8,2.543-4.163a2.563,2.563,0,0,1,.986-1.351l.015-.016a3.52,3.52,0,0,0,.513-.387c.92-.739,1.527-.6,2.19-1.824a11.19,11.19,0,0,0,.43-5.166c-.877-4.557-7.27-9.4-11.321-11.659-1.635-.939-3.817-1.166-6.432-1.186" fill="#bad1ff"/>
      </g>
      <g id="Chuhuahua_2.3" data-name="Chuhuahua 2.3">
        <path id="Chuhuahua_2.3.2" data-name="Chuhuahua 2.3.2" d="M419.268,223.08c-.264-1.739-5.543-4.439-7.562.664-.761,1.921-1.22,1.777-.115,2.55C415.737,229.716,420.5,226.182,419.268,223.08Z"/>
        <path id="Chuhuahua_2.3.1" data-name="Chuhuahua 2.3.1" d="M393.71,227.289c.013-.133-3.034-5.79-7.478-2.738-.2-.293-2.69,2.86-2.125,3.366,1,2.544,5.1,3.817,7.565,2.038C392.4,229.435,394.044,228.124,393.71,227.289Z"/>
      </g>
      <path id="Chuhuahua_2.2" data-name="Chuhuahua 2.2" d="M412.594,233.666c-3.36-2.674-2.539-3.5-6.86-4.615a10.782,10.782,0,0,0-11.6,4.9c-.3.5-2.933,6.336-2.073,8.321-.524-1.221,1.073,4.61,7.285,1.363,2.218-1.17,3.138-1.776,4.888-1.569,2.316.345,4.133,2.2,7.251,1.416C416.64,242.167,416.134,236.472,412.594,233.666Zm-17.132,3.477v0Zm0,0v0Zm16.67,3.464c.01-.024.011-.04.005,0Zm-7.246-9.783-.03-.013Zm2.712,3.131c.633,1.866-1.588,3.6-3.333,4.483-2.027,1.034-.323,1.281-2.966.13.036.036-4.422-1.159-4.038-4.3C397.97,229.683,405.782,228.563,407.6,233.955Zm-10.164,1.988c-.034-.077-.028-.066-.011-.024Zm2.172-4.84c.161-.066.147-.064.04-.016Z" fill="#bad1ff"/>
      <path id="Chuhuahua_2.1" data-name="Chuhuahua 2.1" d="M403.185,230.331c-4.368,0-6.162,2.1-6.007,4.652.186,2.829,3.724,2.941,5.123,4.361.144.477.657.122,1-.153a14.724,14.724,0,0,1,1.441-.711,5.705,5.705,0,0,0,2.023-1.83c.745-1.016,2.52-2.371-.763-5.353a4.585,4.585,0,0,0-2.821-.966"/>
    </g>
  </g>
</svg>
