<svg xmlns="http://www.w3.org/2000/svg" width="253.538" height="196.137" viewBox="0 0 253.538 196.137">
  <g id="그룹_27" data-name="그룹 27" transform="translate(-61.462 -158.467)">
    <g id="그룹_26" data-name="그룹 26" transform="translate(84.519 -84.616)">
      <path id="패스_60" data-name="패스 60" d="M4048.607,3695.951c19.73-1.064,88.921-42.579,108.082,52.16s-59.611,123.48-99,130.931-127.737,2.129-147.962-92.61,50.03-100.06,67.062-101.125S4028.877,3697.016,4048.607,3695.951Z" transform="translate(-3929.163 -3442.159)" fill="#5890ff"/>
    </g>
    <g id="Dalmation_1" data-name="Dalmation 1" transform="translate(-2874.447 -5.826)">
      <path id="Dalmation_1.4" data-name="Dalmation 1.4" d="M3091.793,186.668c-14.336,9.022-12.907,3.492-22.174,7.079-3.276,1.261-4.861,2.94-6.765,5.476-1.8,2.375-2.436,5.337-2.728,8.811-2.13,26.392,6.408,29.212,1.238,39.337-2.652,5.115-4.182,9.806-8.575,16.338-13.934,20.725-19.194,24.253-21.986,33.5a41.337,41.337,0,0,0-.753,18.823,28.169,28.169,0,0,1-5.946,2.9,59.923,59.923,0,0,1-7.2.233c-6.188-.472-7.831-1.741-11.581-2.682-2.137-.54-9.679-2.073-12.445-.863a1.267,1.267,0,0,0-.8,1.776c1.132,1.744,3.369.888,10.962,4.313,2.451,1.1,17.6,4.8,23.2,4.8,6.577,0,6.389-1.438,6.389,1.458a8.1,8.1,0,0,0,5.023,8.281c11.085,4.649,15.113,3.1,18.887,4.276,1.742.535,1.985,1.556,4.354,1.952,2.968.489,3.335-.6,4.142-1.01-.02.007.751-.333.583-.225,1.229-.5.768-1.529.935,2.086.084,1.477.462,1.316,1.73,2.47,1.193,1.071,1.363,2.464,4.02,2.135,3.287-.426,8.091-3.59,6.355-7.733-1.187-2.864-1.7-1.656-1.575-9.344.015-.9.084-.937.044-2.9,4.335-.673,8.451-.606,12.382-1.811,2.97-.9,1.149-5.6-3.954-5.2.613-.048-6.964.075-8.423-.093,0-6.365.541-18.457.667-19.756.045-.438-.177-.242,1.117-.777,4.788-1.98,3.321-.166,11.4-4.746,1.331,5.066,1.6,3.859,2.894,9.69,7.2,31.974,3.3,29.736,7.532,33.837a4.868,4.868,0,0,0,2.59,1.439c.979.283,1.133.671,1.966,1.05,2.714,1.256,2.723,1.544,5.33.479,1.685-.69,2.939-1.859,2.992-3.4.088-2.606-2.112-3.084-4.37-5.494-2.99-3.173-2.352-6.884-2.352-14.229.007-8.665-.8.889-2.167-25.97-.693-12.18,2.519-26.821-1.334-34.565-.634-1.282-.557-.931-1.845-3.5a43,43,0,0,0-6.939-11.632c-.356-1.2-5.584-12.561-7.234-17.815-4.028-12.932,17.9-20.464,14.406-32.832a19.6,19.6,0,0,0-1.045-2.937C3099.846,187.435,3095.679,184.221,3091.793,186.668ZM3065.3,320.6c-2.141-1.356-.142-4.22,1.19-8.161-.323,5.524.227-2.288-.333,8.493A4.425,4.425,0,0,0,3065.3,320.6Zm.23,7.952c.965-.233.311-.814.954,2.974.468,1.859.139,4.457.23,6.18a7.2,7.2,0,0,0-3.18-3.292c-2.972-1.471-10.56-1.713-10.611-1.709-.873.063-1.761.222-3.943-1.443-1.032-.828-.683-3.294-.172-4.641.065-.209,2.773.923,3.939,1.261C3054.838,328.5,3063.149,329.129,3065.531,328.548Z" transform="translate(0 -1.343)" fill="#eef2ff"/>
      <path id="Dalmation_1.3" data-name="Dalmation 1.3" d="M3130.652,216.114c1.354,0,1.922,2.161,2.225,3.485,1.179,5.11,5.044,4.208,6.039,8.848,1.25,5.81,3.97,3.49,2.671,9.907-.458,2.261-2.009,6.384-4.341,6.384-2.819,0-5.776-4.745-11.563-6.935-2.277-.866-3.563-.243-6.235-1.54-1.409-.683-2.706-1.27-1.926-3.77a6.443,6.443,0,0,1,1.934-3.131c4.69-4.791,2.747-5.558,5.31-8.292C3125.524,220.26,3129.677,216.114,3130.652,216.114Z" transform="translate(-68.544 -17.923)" fill="#afcaff"/>
      <g id="Dalmation_1.2" data-name="Dalmation 1.2" transform="translate(3031.719 187.483)">
        <path id="Dalmation_1.2.47" data-name="Dalmation 1.2.47" d="M3171.332,224.75a1.629,1.629,0,0,1-2.521-.836c-.656-1.767.911-4.383,2.111-2.716C3171.83,222.459,3172.6,223.874,3171.332,224.75Z" transform="translate(-3128.351 -207.894)" fill="#bad1ff"/>
        <path id="Dalmation_1.2.46" data-name="Dalmation 1.2.46" d="M3193.69,201.253c-.445.532-1.016.445-1.819.592-1.346.249-1.519-.629-.9-1.431C3191.943,199.159,3195.08,199.593,3193.69,201.253Z" transform="translate(-3140.366 -196.425)" fill="#bad1ff"/>
        <path id="Dalmation_1.2.45" data-name="Dalmation 1.2.45" d="M3209.307,192.489c-2.152.075-1.715,2.472.139,2.508,1.127.019,1.923,1.326,3.066.4C3213.485,194.318,3212.057,192.412,3209.307,192.489Zm-.147,1.244,0,0h0Zm1.839.486v0Z" transform="translate(-3149.79 -192.487)" fill="#bad1ff"/>
        <path id="Dalmation_1.2.44" data-name="Dalmation 1.2.44" d="M3219.075,218c1.037,0,3.18,1.345,1.753,3.183-.649.841-1.456,2.1-2.115,1.921-.286-.078-.8.063-.942-.572C3217.389,220.866,3217.344,218,3219.075,218Z" transform="translate(-3155.088 -206.436)" fill="#bad1ff"/>
        <path id="Dalmation_1.2.43" data-name="Dalmation 1.2.43" d="M3207.869,229.877c.272-1.473,1.125-3.16,2.054-3.257,1.313-.148,1.389,2.909.144,3.818C3208.881,231.306,3207.672,230.786,3207.869,229.877Z" transform="translate(-3149.78 -211.148)" fill="#bad1ff"/>
        <path id="Dalmation_1.2.42" data-name="Dalmation 1.2.42" d="M3191.013,229.968c.311-.123,1.842-.033,2.217.552.5.738-1.15,2.476-2.389,2.489a.589.589,0,0,1-.561-.851A1.514,1.514,0,0,1,3191.013,229.968Z" transform="translate(-3140.064 -212.955)" fill="#bad1ff"/>
        <path id="Dalmation_1.2.41" data-name="Dalmation 1.2.41" d="M3191.729,238.858c-.494,1.417-3.1,2.251-3.848.514C3186.989,237.295,3192.4,236.931,3191.729,238.858Z" transform="translate(-3138.808 -217.152)" fill="#bad1ff"/>
        <path id="Dalmation_1.2.40" data-name="Dalmation 1.2.40" d="M3186.908,245.872c.807-.169,1.677-.39,2.095.452.431.861-.517,1.744-.674,1.952-.348.472-.616,1.409-1.488,1.7a2.35,2.35,0,0,1-2.509-.6C3183.511,248.449,3184.555,246.37,3186.908,245.872Z" transform="translate(-3136.771 -221.591)" fill="#bad1ff"/>
        <path id="Dalmation_1.2.39" data-name="Dalmation 1.2.39" d="M3181.852,255.288c1.615,1.243,1.657-.351,2.955-.605,1.644-.315,2.137,1.329,1.622,2.841-.409,1.195-.837.915-3.6,1.9-.787.281-1.224.433-1.934-.025-.162-.1-2.006-1.4-2.253-2.308C3178.192,255.448,3179.061,253.14,3181.852,255.288Z" transform="translate(-3133.75 -226.35)" fill="#bad1ff"/>
        <path id="Dalmation_1.2.38" data-name="Dalmation 1.2.38" d="M3169.966,269.643c-1.643,2.3-.473,5.45.783,6.031,1.057.5,1.54.077,2.183.13a5.574,5.574,0,0,0,2.921-.09,2.781,2.781,0,0,0,.628-3.154c-.43-.918-1.679-.487-2.707-2.761C3172.984,268.057,3171.1,268.059,3169.966,269.643Zm2.251.2c-.024.005-.017.006-.025,0Z" transform="translate(-3128.625 -234.035)" fill="#bad1ff"/>
        <path id="Dalmation_1.2.37" data-name="Dalmation 1.2.37" d="M3192.179,286.965c-.83,1.089-1.786.832-2.867.209-2.984-1.711-2.285-1.173-2.976-1.612-1.382-.87-2.5-3.469.169-5.506.618-.47.823-1.995,2.42-.478.55.521.428,1.557,1.311,2.587C3190.653,282.656,3193.811,284.825,3192.179,286.965Z" transform="translate(-3137.222 -239.749)" fill="#bad1ff"/>
        <path id="Dalmation_1.2.36" data-name="Dalmation 1.2.36" d="M3159,282.976a2.1,2.1,0,0,0-3.373.911,4.631,4.631,0,0,0,.232,3.6,4.941,4.941,0,0,0,1.747,1.377c1.669,1.432.85,3.335,1.869,5.633.745,1.671,2.222,1.914,3.008,1.161a2.6,2.6,0,0,0,.618-1.123c.325-.706,1.243-1.187,1.833-2.977.958-2.926-2.593-4.635-3.243-5.887C3161.159,284.642,3160.142,283.152,3159,282.976Zm-2.011,4.03a.586.586,0,0,0,.091.029C3157.1,287.134,3157.134,287.159,3156.989,287.006Zm3.267-1.414a.24.24,0,0,0,.032-.051C3160.341,285.624,3160.339,285.6,3160.256,285.593Z" transform="translate(-3121.089 -241.673)" fill="#bad1ff"/>
        <path id="Dalmation_1.2.35" data-name="Dalmation 1.2.35" d="M3172.27,313.974c3.026-2.273,7.88,2.667,5.077,4.153a4.46,4.46,0,0,1-2.252.163C3171.09,318.182,3170.178,315.552,3172.27,313.974Z" transform="translate(-3129.731 -258.593)" fill="#bad1ff"/>
        <path id="Dalmation_1.2.34" data-name="Dalmation 1.2.34" d="M3188.21,303.83c.7-.528,2.671-.538,3.29,1.754.3,1.117,1.053,2.394.039,3.938a1.253,1.253,0,0,1-2.153.117c-.258-.358-.128-.421-.588-.664C3187.345,308.222,3186.2,305.338,3188.21,303.83Z" transform="translate(-3138.452 -253.21)" fill="#bad1ff"/>
        <path id="Dalmation_1.2.33" data-name="Dalmation 1.2.33" d="M3154.091,313.209c-.742-2.85,1.531-5.576,3.054-2.75.22.408,1.771,4.95-1.045,5.618C3154.481,316.458,3154.347,314.178,3154.091,313.209Z" transform="translate(-3120.308 -256.341)" fill="#bad1ff"/>
        <path id="Dalmation_1.2.32" data-name="Dalmation 1.2.32" d="M3202.7,301.584c.341,2.179,2.61,4.182,3.568,5.325.271.367.767,1.295,1.42,1.108.821-.237.717-1.34.5-2.161a13.121,13.121,0,0,0-2.773-5.976C3205.044,299.448,3202.315,299.134,3202.7,301.584Zm3.112,3.812.021.027Z" transform="translate(-3146.944 -251.046)" fill="#bad1ff"/>
        <path id="Dalmation_1.2.31" data-name="Dalmation 1.2.31" d="M3169.15,446.5c-.31-3.166,1.5-4.847,1-6.835a1.92,1.92,0,0,0-1.357-1.433.9.9,0,0,0-.444.166,3.5,3.5,0,0,0-2.49,1.539A20.147,20.147,0,0,0,3164.7,445a15.526,15.526,0,0,1,.207,2.769c-.113.881-.646,3.034.617,3.96a1.081,1.081,0,0,0,1.327.057C3168.948,450.228,3169.611,449.545,3169.15,446.5Zm-3.174,2.078c-.033.111-.033.127.006-.1C3166,448.48,3165.993,448.466,3165.976,448.573Z" transform="translate(-3126.19 -326.854)" fill="#bad1ff"/>
        <path id="Dalmation_1.2.30" data-name="Dalmation 1.2.30" d="M3165.23,485.972c-1.251-.828-.821-3.869,1.26-3.869,2.251,0,4.235,4.239.462,4.138C3166.025,486.213,3165.628,486.237,3165.23,485.972Z" transform="translate(-3126.095 -350.845)" fill="#bad1ff"/>
        <path id="Dalmation_1.2.29" data-name="Dalmation 1.2.29" d="M3158.018,405.39c1.775-1.616,4.384-1.141,2.382,1.822C3159.318,408.809,3155.994,407.232,3158.018,405.39Z" transform="translate(-3122.184 -308.399)" fill="#bad1ff"/>
        <path id="Dalmation_1.2.28" data-name="Dalmation 1.2.28" d="M3171.652,386.871a.953.953,0,0,1-1.313-.5c-1.058-1.07-.437-2.151.116-3.328a5.444,5.444,0,0,0,.207-1.236c.462-2.387,4.089-1.59,2.991,1.982C3173.04,385.778,3172.925,386.368,3171.652,386.871Z" transform="translate(-3128.956 -295.26)" fill="#bad1ff"/>
        <path id="Dalmation_1.2.27" data-name="Dalmation 1.2.27" d="M3166.081,386.182c.685,2.463-2.563,2.656-1.965.312C3164.444,385.234,3165.953,384.642,3166.081,386.182Z" transform="translate(-3125.828 -297.893)" fill="#bad1ff"/>
        <path id="Dalmation_1.2.26" data-name="Dalmation 1.2.26" d="M3145.469,378.549c.145.973.8,1.757.6,1.934-.751.535-1.338,1.04-1.318,1.97.109,4.068,3.758,4.468,3.6,1.835-.112-1.748-.292-1,.263-2.858a9.373,9.373,0,0,0-.335-5.231,1.566,1.566,0,0,0-2.126-.766C3145.481,375.872,3145.362,377.839,3145.469,378.549Zm.824,5.338c.021.24.044.258-.015.129S3146.228,383.924,3146.292,383.887Z" transform="translate(-3115.281 -292.422)" fill="#bad1ff"/>
        <path id="Dalmation_1.2.25" data-name="Dalmation 1.2.25" d="M3149.316,410.167c.361-2.978-.271-3.482-2.145-4.215-.516-.247-.533-.621-.775-1.35-.182-.546-.738-1.212-1.258-1.07a1.85,1.85,0,0,0-.785.762,1.894,1.894,0,0,0-.723,1.671c.128,2,1.544,2.543,1.732,3.908a3.656,3.656,0,0,0,.654,2.2C3147.272,413.5,3149.083,412.064,3149.316,410.167Zm-2.189-2.983c.045.02.04.007.016.05C3147.116,407.173,3147.113,407.178,3147.127,407.184Z" transform="translate(-3114.665 -307.873)" fill="#bad1ff"/>
        <path id="Dalmation_1.2.24" data-name="Dalmation 1.2.24" d="M3210.634,379.234c2.949-3.2,1.472-6.583.472-6.79a2.206,2.206,0,0,0-2.292,1.379c-1.225,2.446-.519,4.13-1.009,5.513C3207.307,380.411,3208.125,381.964,3210.634,379.234Zm-.394-4.923-.149.392c.01-.021.009-.048.01.116C3210.015,374.881,3210,374.946,3210.091,374.7Z" transform="translate(-3149.681 -290.869)" fill="#bad1ff"/>
        <path id="Dalmation_1.2.23" data-name="Dalmation 1.2.23" d="M3227.2,448.737c1.1-.3,1.037-1.218,1.171-.933,1.094,2.32,2.679,1.306,2.679.3,0-1.357-.383-5.329-1.89-5.329-1.6,0-1.3,2.281-1.489.871-.109-.813-.122-4.922-2.249-5.306-1.489-.272-1.849.651-2.158,2.317C3222.29,445.99,3225.391,449.222,3227.2,448.737Zm.138-3.076c.008.062.014.112.006.05C3227.346,445.694,3227.344,445.678,3227.342,445.661Zm-1.986.724.015-.02Zm-1.58-2.183.025.06Z" transform="translate(-3158.11 -326.888)" fill="#bad1ff"/>
        <path id="Dalmation_1.2.22" data-name="Dalmation 1.2.22" d="M3239.878,509.647c.874-1.868,4.235.12,3.069,1.937A1.815,1.815,0,0,1,3239.878,509.647Z" transform="translate(-3167.152 -365.496)" fill="#bad1ff"/>
        <path id="Dalmation_1.2.21" data-name="Dalmation 1.2.21" d="M3162.811,511.7c.248-1.336.343-2.693-.943-3.608-.495-1.093-1.659-1.23-2.1.28C3158.448,512.879,3161.917,516.48,3162.811,511.7Zm-1.592,1.046,0,0Zm-.072-.249c.205.117.255.009.138.187-.034.039-.022.043-.078-.021C3161.023,512.386,3161.1,512.465,3161.148,512.495Z" transform="translate(-3123.329 -364.597)" fill="#bad1ff"/>
        <path id="Dalmation_1.2.20" data-name="Dalmation 1.2.20" d="M3099.975,462.417c.854-1.851,4.076-1.3,2.906.761,1.615.15,2.35,3.221.643,3.92-1.894.77-4.359.027-3.354-2.352.278-.656.356-.39.067-.6A1.292,1.292,0,0,1,3099.975,462.417Z" transform="translate(-3090.684 -339.465)" fill="#bad1ff"/>
        <path id="Dalmation_1.2.19" data-name="Dalmation 1.2.19" d="M3118.377,461.21c1.044-1.9,4.115-2.067,3.558.522-.077.365-.187.29.052.356.972.256.6,1.523-.073,2.306C3120.838,465.586,3117.138,463.484,3118.377,461.21Z" transform="translate(-3100.722 -338.641)" fill="#bad1ff"/>
        <path id="Dalmation_1.2.18" data-name="Dalmation 1.2.18" d="M3099.781,440.983c3.2-2.281,1.181-4.783-1.133-2.265-.641.7-.753.808-.761,1.075C3096.492,441.572,3097.774,442.413,3099.781,440.983Zm.478-2.305,0,.005Z" transform="translate(-3089.335 -326.547)" fill="#bad1ff"/>
        <path id="Dalmation_1.2.17" data-name="Dalmation 1.2.17" d="M3079.743,448.13c.194-1.2,2.113-2.469,2.9-2.277a1.271,1.271,0,0,1,.7,1.827c-.084.2-.275.42-.356.577C3080.915,452.281,3079.545,449.408,3079.743,448.13Z" transform="translate(-3079.724 -331.013)" fill="#bad1ff"/>
        <path id="Dalmation_1.2.16" data-name="Dalmation 1.2.16" d="M3083.094,419.535c-.414-1.265.8-4.3,2.521-4.818.91-.279,1.248.845,1.133,1.791C3086.356,419.666,3083.677,421.374,3083.094,419.535Z" transform="translate(-3081.522 -313.976)" fill="#bad1ff"/>
        <path id="Dalmation_1.2.15" data-name="Dalmation 1.2.15" d="M3108.241,392.335c-.555-1.41.238-2.579.241-3.965a5.536,5.536,0,0,1,.324-2.645c.563-1.255,3.271-2.147,2.619,2.659-.226,1.761.068,2.011-.2,2.814C3110.641,392.936,3108.773,393.7,3108.241,392.335Z" transform="translate(-3095.209 -297.603)" fill="#bad1ff"/>
        <path id="Dalmation_1.2.14" data-name="Dalmation 1.2.14" d="M3129.568,404.978c1.645,1.619,5.335-.312,3.095-3.043-.123-.149-.27-1.248-1.325-1.248C3128.905,400.687,3128.368,403.8,3129.568,404.978Zm1.658-2.765c.008.006.009,0,0,.005Z" transform="translate(-3106.642 -306.328)" fill="#bad1ff"/>
        <path id="Dalmation_1.2.13" data-name="Dalmation 1.2.13" d="M3132.4,416.519c-.962-.213-.926.015-1.438-.078a1.8,1.8,0,0,1-1.25-1.882c.3-1.843,4.04-2.361,4.671-.069A1.7,1.7,0,0,1,3132.4,416.519Z" transform="translate(-3107.044 -313.042)" fill="#bad1ff"/>
        <path id="Dalmation_1.2.12" data-name="Dalmation 1.2.12" d="M3126.708,425.519c-1.139-.7-1.666-1.959-2.061-2.311a4.513,4.513,0,0,1-2.141-1.921,1.5,1.5,0,0,1,.22-1.6c.5-.661.7-.977,1.632-.772.991.216,1,.485,1.8.91,1.2.64.785.15,1.567.541a2.476,2.476,0,0,1,1.24,1.8,2.821,2.821,0,0,1-.23,1.117C3129.937,425.579,3127.829,426.216,3126.708,425.519Z" transform="translate(-3103.038 -316.258)" fill="#bad1ff"/>
        <path id="Dalmation_1.2.11" data-name="Dalmation 1.2.11" d="M3118.871,429.248c2.041-.816-1.532-4.307-2.813-3.034-.282.282-1.077.442-1.1,1.088C3114.256,428.911,3117.521,429.8,3118.871,429.248Zm-1.621-1.644c.017,0,.011,0,.029.027Z" transform="translate(-3098.938 -320.135)" fill="#bad1ff"/>
        <path id="Dalmation_1.2.10" data-name="Dalmation 1.2.10" d="M3144.063,432.125c.035-.172,1.822-1.739.82-2.836a1.167,1.167,0,0,0-1.382-.115,1.733,1.733,0,0,0-1.045.822c-.261.144-1.522-.2-2.23,1.915C3139.241,434.817,3143.783,435.554,3144.063,432.125Zm-.186-1.823.011,0Z" transform="translate(-3112.73 -321.809)" fill="#bad1ff"/>
        <path id="Dalmation_1.2.9" data-name="Dalmation 1.2.9" d="M3124.852,440.636c-1.147-.405-.716-1.84-.5-2.06.375-.374.239.1,2.246-.453C3129.669,437.283,3131.777,443.082,3124.852,440.636Z" transform="translate(-3103.983 -326.752)" fill="#bad1ff"/>
        <path id="Dalmation_1.2.8" data-name="Dalmation 1.2.8" d="M3192.426,413.33c1.878-1.584,1.059.006.776-1.947-.306-1.423.837-2.757,1.887-3.744a1.9,1.9,0,0,1,1.661-.59c.954-.489,2.159-.319,2.329,1.063.16,1.328-1.812,2.509-2.266,3.376a1.839,1.839,0,0,1-1.163,1.408,3.216,3.216,0,0,1,.175,2.007,4.271,4.271,0,0,1-2.922,2.134c-1.049.153-1.335-.361-1.605-1.481C3191.1,414.747,3191.356,414.234,3192.426,413.33Z" transform="translate(-3140.698 -309.67)" fill="#bad1ff"/>
        <path id="Dalmation_1.2.7" data-name="Dalmation 1.2.7" d="M3193.083,396.758c.708-1.27,2.376-3.361,1.792-4.505-1.56-2.507-5.672,3.594-5.936,4.106C3188,398.178,3190.96,400.564,3193.083,396.758Zm-3.179.286,0,.009Zm-.006.073c.006-.024,0-.015,0,.006Zm0-.037c0-.008,0-.016,0-.024Z" transform="translate(-3139.343 -301.387)" fill="#bad1ff"/>
        <path id="Dalmation_1.2.6" data-name="Dalmation 1.2.6" d="M3130.383,352.306a3.374,3.374,0,0,1,.553,2.951c-.32,1.062-2.024,2.384-2.846,1.146a1.369,1.369,0,0,1-1.442-.759c-.466-1.085-.134-1.988.288-3.152a6.756,6.756,0,0,1,1.812-3.086c1.2-1.338,1.45-1.609,2.029-1.835.349-.138.89-.3,1.089.133C3133.033,350.209,3130.383,351.066,3130.383,352.306Z" transform="translate(-3105.258 -277.205)" fill="#bad1ff"/>
        <path id="Dalmation_1.2.5" data-name="Dalmation 1.2.5" d="M3148.215,355.147c-.991-.184-1.2.6-1.342,1.436-.518,2.978,3.83,3.858,3.422.931C3150.185,356.745,3149.105,354.395,3148.215,355.147Zm-.127,1.332c.029-.135.01-.136.093-.051C3148.186,356.437,3148.191,356.423,3148.087,356.479Z" transform="translate(-3116.416 -281.347)" fill="#bad1ff"/>
        <path id="Dalmation_1.2.4" data-name="Dalmation 1.2.4" d="M3176.354,339.022c.152-.437-.007-.655-.576-1.409-2.115-2.684.846-3.608.923-3.685.834-.829,1.13,1.051,2.673,1.759a4.318,4.318,0,0,0,1.781-.089c.572-.062,2.35.527,2.286,2.079-.054,1.322-1.529,1.566-2.377,2.163a3.434,3.434,0,0,0-.891,1.548C3178.743,344.481,3174.978,341.924,3176.354,339.022Z" transform="translate(-3131.83 -269.712)" fill="#bad1ff"/>
        <path id="Dalmation_1.2.3" data-name="Dalmation 1.2.3" d="M3188.492,335c.637-.851,1.242-1.674,2.773-1.484,1.09.134.99.148,1.463-.716.442-.807.443-1.836,1.6-1.836.909,0,1.188.629.927.229-.867-1.316.068-5.221.077-6.442a3.524,3.524,0,0,1,.072-.945,2.512,2.512,0,0,1,.2-1.62c.357-.553,1.437-1.09,2.327.262s1.321,2.466,1.682,3.023c.75,1.162,1.393,1.334,1.559,3.29a3.022,3.022,0,0,1-1.521,3.076c-3.4,1.255-4.35-.92-3.855.031.98,1.893-.256,2.738-1.334,3.841a20.055,20.055,0,0,1-2.479,2.162C3190.455,338.616,3186.433,337.753,3188.492,335Z" transform="translate(-3138.883 -263.082)" fill="#bad1ff"/>
        <path id="Dalmation_1.2.2" data-name="Dalmation 1.2.2" d="M3222.508,348.9c1.064-2.086,3.365-.6,4.395,2.85.646,2.155-2.584,4.226-3.718,1.516-.371-.867-.2-.862-.514-1.682C3222.165,350.488,3221.88,350.125,3222.508,348.9Z" transform="translate(-3157.6 -277.486)" fill="#bad1ff"/>
        <path id="Dalmation_1.2.1" data-name="Dalmation 1.2.1" d="M3228.151,377.04c-1.542-.737-2.361-.069-2.611,1.642-1.155,1.512-1.223,7.944.49,7.483,3.1-.836,3.2-1.869,3.252-3.511.227-1.419.475-1.958.721-3.452C3230.6,375.633,3229.387,375.56,3228.151,377.04Zm.069.024h0Zm.774.89c-.023,0-.059.005-.093.009C3229.027,377.831,3229.011,377.8,3228.994,377.954Z" transform="translate(-3158.997 -292.902)" fill="#bad1ff"/>
      </g>
      <g id="Dalmation_1.1" data-name="Dalmation 1.1" transform="translate(3071.613 183.335)">
        <path id="Dalmation_1.1.3" data-name="Dalmation 1.1.3" d="M3214.792,184.622c-.752.509-.795,1.12.316,1.564,1.41.644,2.223,2.044,4.745.7.462-.14.929-.334.885-.849C3220.494,182.874,3217.26,182.6,3214.792,184.622Zm1.16-.8.064-.027Z" transform="translate(-3193.174 -183.335)" fill="#15130f"/>
        <path id="Dalmation_1.1.2" data-name="Dalmation 1.1.2" d="M3172.6,207.222c.858-4.083,3.956-1.86,3.11-.452C3175.318,207.423,3172.327,208.528,3172.6,207.222Z" transform="translate(-3170.392 -195.119)" fill="#15130f"/>
      </g>
    </g>
  </g>
</svg>
