<svg xmlns="http://www.w3.org/2000/svg" width="253.538" height="196.137" viewBox="0 0 253.538 196.137">
  <g id="그룹_27" data-name="그룹 27" transform="translate(-61.462 -158.467)">
    <g id="그룹_26" data-name="그룹 26" transform="translate(84.519 -84.616)">
      <path id="패스_60" data-name="패스 60" d="M4048.607,3695.951c19.73-1.064,88.921-42.579,108.082,52.16s-59.611,123.48-99,130.931-127.737,2.129-147.962-92.61,50.03-100.06,67.062-101.125S4028.877,3697.016,4048.607,3695.951Z" transform="translate(-3929.163 -3442.159)" fill="#5890ff"/>
    </g>
    <g id="French_Bulldog_4_white_black_" data-name="French Bulldog 4 [ white &amp; black ]" transform="translate(-94.67 -594.372)">
      <path id="French_Bulldog_4.6" data-name="French Bulldog 4.6" d="M290.012,921.586c-5.646,4.68-.431,15.977-.061,20.3,1.194,17.468,26.276,17.766,10.4,2.93-4.989-17.593,9.505-15.158-10.343-23.225m9.2,29.765c-.044-.04-.523-.418.011-.016l-.011.016" transform="translate(-24.532 -49.876)" fill="#afcaff"/>
      <path id="French_Bulldog_4.5" data-name="French Bulldog 4.5" d="M259.75,836.138c15.811,1.335,20.194,3.585,31.3.417,15.9,15.12,9.907,45.407,45.028,28.817,17.425-13.227-7.194,53.983,1.7,62.712,6.905,9.977,3.374,14.654-7.316,11.254-4.422-1-9.781-34.225-11.325-35.636-12.772,7.77-6.644,36.429-1.09,39.407,2.605,6.491-10.2,6.457-15,.888-2.572-1.421-3.375-4.326-3.681-6.822-11.8-52.153-2.458-18.359-43.372-51.467-2.514-1.081-2.945-4.859-8.569-.482l0,0c-37.292,50.68-12.133,36.6-22.622,45.825-19.789-3.006-3.028-22.51-4.332-32.527,2.09-30.045,10.42-61.505,39.279-62.388" transform="translate(0 -20.891)" fill="#eef2ff"/>
      <path id="French_Bulldog_4.4" data-name="French Bulldog 4.4" d="M372.224,810.08c1.52,2.11,5.364,9.239,7.993,13.734,3.636,17.736,11.933,12.187,18.656,24.946,2.87,8.9-11.061,16.028-12.791,1.979-1.525-14.016-8.889-10.106-8.056-3.533,2.2,3.791,2.8,3.873,1.9,8.971-.82,15.054-33.468,12.9-6.933-15.733a25.417,25.417,0,0,1-3.214-9.733c-7.012-21.3-15.638-11.2,2.44-20.63" transform="translate(-49.653 -12.052)" fill="#eef2ff"/>
      <g id="French_Bulldog_4.3" data-name="French Bulldog 4.3" transform="translate(287.816 774.55)">
        <path id="French_Bulldog_4.3.2" data-name="French Bulldog 4.3.2" d="M330.72,791.952c10.118.194,40.6,42.688,27.79,47.305-17.347,23.5,9.957,22.832,8.85,8.8-9.564-15.119,7.713-20.276,10.7-3.25,1.368,2.631,1.138,3.7,1.137,3.672-.1,3.569,1.374,4.435-.317,4.6-4.965,2.78-14.707,7.294-21.537,6.273-16.676-4.855-15.5-10.4-21.678-27.962-10.47-10.393-14.877-38.564-4.949-39.436" transform="translate(-325.155 -780.453)" fill="#bad1ff"/>
        <path id="French_Bulldog_4.3.1" data-name="French Bulldog 4.3.1" d="M385.592,774.55c4.356,0,8.671,8.544,8.876,12.618.632,2,6.787,26.247,7.058,31.595.513.856,2.588,11.97,2.851,17.634-.457,4.226-3.264-4.392-10.01-8.232-3.168-2.122-6.939-3.163-6.305-2.814-7.016-7.879-18.318-45.678-2.469-50.8" transform="translate(-342.931 -774.55)" fill="#bad1ff"/>
      </g>
      <g id="French_Bulldog_4.2" data-name="French Bulldog 4.2" transform="translate(290.494 776.864)">
        <path id="French_Bulldog_4.2.2" data-name="French Bulldog 4.2.2" d="M332.15,795.544c28.582,10.959-1.581,45.868-1.1,21.348-1.275-5.413-3.923-19.807,1.1-21.348" transform="translate(-329.208 -783.985)" fill="#eef2ff"/>
        <path id="French_Bulldog_4.2.1" data-name="French Bulldog 4.2.1" d="M387.926,778.052c5.159,0,6.483,12.616,6.207,10.869a28.448,28.448,0,0,0,1.644,6.172c10.52,26.988-29.632-3.223-7.851-17.041" transform="translate(-346.893 -778.052)" fill="#eef2ff"/>
      </g>
      <g id="French_Bulldog_4.1" data-name="French Bulldog 4.1" transform="translate(313.617 819.617)">
        <path id="French_Bulldog_4.1.3" data-name="French Bulldog 4.1.3" d="M392.823,858.508c3.73-.23,3.563,7.255-.153,7.609C386.485,865.891,385.767,858.51,392.823,858.508Z" transform="translate(-372.198 -848.095)"/>
        <path id="French_Bulldog_4.1.2" data-name="French Bulldog 4.1.2" d="M364.2,856.99c.468-1.186,6.156-2.59,6.854-.844C372.377,858.453,364.623,861.167,364.2,856.99Z" transform="translate(-364.2 -847.017)"/>
        <path id="French_Bulldog_4.1.1" data-name="French Bulldog 4.1.1" d="M401.361,845.882a4.365,4.365,0,0,1,5.013-3C410.823,844.049,403.121,849.645,401.361,845.882Z" transform="translate(-376.806 -842.752)"/>
      </g>
    </g>
  </g>
</svg>
