<svg xmlns="http://www.w3.org/2000/svg" width="253.538" height="196.137" viewBox="0 0 253.538 196.137">
  <g id="그룹_27" data-name="그룹 27" transform="translate(-61.462 -158.467)">
    <g id="그룹_26" data-name="그룹 26" transform="translate(84.519 -84.616)">
      <path id="패스_60" data-name="패스 60" d="M4048.607,3695.951c19.73-1.064,88.921-42.579,108.082,52.16s-59.611,123.48-99,130.931-127.737,2.129-147.962-92.61,50.03-100.06,67.062-101.125S4028.877,3697.016,4048.607,3695.951Z" transform="translate(-3929.163 -3442.159)" fill="#5890ff"/>
    </g>
    <g id="Italian_Greyhound_1_gray_" data-name="Italian Greyhound 1 [ gray ]" transform="translate(-645.683 -938.981)">
      <path id="Italian_Greyhound_1.6" data-name="Italian Greyhound 1.6" d="M762.815,1255.876c11.494-.745,11.39.181,19.541.127,6.535-.055,18.443-1.139,22.672-5.449-2.669-9.513-.508-17.319,1-22.825,8.595-31.408,25.627-41.374,31.555-51.579,5.759-10.2,4.176-11.3,1.187-16.307-3.682-6.15-8.652-8.9-10.453-22.619-.357-2.12-1.589-2.084-2.9-3.6-.963-1.1-3.237-4-2.21-5.023,1.2-1.207,4.087,2.284,6.454-.423,1.889-2.922,1.025-4.734.862-6.161-.291-2.584,1.586-.957,7.9-3.377,7.625-2.954,11.486,1.92,14.66,3.788,3.186,1.893,6.8,1.164,10.585,1.749,2.687.4,3.828,4.784,2.757,6.694a17.436,17.436,0,0,1-3.7,3.716c-7.631,6.02-12.215,6.16-7.478,11.941,6.8,8.193,6.326,7.157,10.652,15.33,4.012,7.575,12,15.93,13.206,24.461,1.67,12.131-2.149,18.82-1.219,23.02,4.424,20.517,3.042,20.429,12.115,44.929.979,2.645.487,2.538,1.985,3.517,2.351,1.574,4.471,1.282,5.384,1.875.968.622.915,1.174,2.5,2.434,1.117.86,4.655,2.6,1.265,4.738a4.092,4.092,0,0,1-3.581.663c-1.671-.289,6.482,1.724,1.268,4.9-2.881,1.746-4.338,1.107-5.632.663-2.12-.714-.911.5-5.1-1.589-3.1-1.554-2.868-7.506-7.323-10.927-1.888-1.45-.9-.459-3.556-2.26-3.495-2.368-2.977-7.855-5.131-12.9-.017-.028-7.131-16.022-11.945-23.556-6.879,2.883-18.2-.005-22.576,8.659-.228.451,3.721-1.931,7.927,1.426,4.994,3.982,4.031,13.674-.831,17.975-1.529,1.349-21.863,15.047-19.86,15.131,8.594.321,14.519-1.832,16.947-1.96,2.884-.148,7.369,2.4,7.835,3.326a1.71,1.71,0,0,1-.969,2.466c-1.045.429.189-.432-3.491,1.888-2.536,1.61-2.275.311-18.154.618-.212,0-13.876,1.4-15.983-.009-1.912-1.265-.875-5.908-1.166-8.267a54.8,54.8,0,0,1-3.116-7.378c-10.512,2.872-8.036,4.6-26.924,3.992-24.947-.758-28.208,1.7-29.715,1.048C747.031,1258.941,759.1,1256.117,762.815,1255.876Z" transform="translate(0 0)" fill="#bad1ff"/>
      <path id="Italian_Greyhound_1.5" data-name="Italian Greyhound 1.5" d="M950,1316.544c-.986.381-2.737.263-2.968.906-.241.677,1.743,1.188,2.94,2.292,1.019.924,1.015,1.612,2.517,1.353,3.167-.367,5.16-2.924,2.424-4.827-.185-.13-1.207-.79-1.482-.992a8.22,8.22,0,0,0-1.028-.9C951.607,1313.965,950.97,1316.111,950,1316.544Zm3.425-1.271-.074-.058C953.381,1315.236,953.406,1315.254,953.43,1315.274Zm.073.056-.035-.028Zm-4.627,1.478.065-.009Z" transform="translate(-53.485 -53.262)" fill="#eef2ff"/>
      <g id="Italian_Greyhound_1.4" data-name="Italian Greyhound 1.4" transform="translate(837.392 1117.986)">
        <path id="Italian_Greyhound_1.4.5" data-name="Italian Greyhound 1.4.5" d="M911.961,1187.233c1.014,0,2.1,6.577,7.676,13.373,3.269,4.047,2.023,9.885,1.8,15.1a35.382,35.382,0,0,1-4.948,16.537c-1.425,2.211-2.4,3.476-2.6.919-.535-3.384,3.313-5.974.221-20.735-1.983-9.416-2.061-7.143-1.143-11.451.392-1.846,1.081-2.9.571-5.3C913.165,1193.865,910.462,1187.233,911.961,1187.233Z" transform="translate(-881.259 -1136.819)" fill="#eef2ff"/>
        <path id="Italian_Greyhound_1.4.4" data-name="Italian Greyhound 1.4.4" d="M933.384,1307.6c.459,0,1.613,1.936,1.866,2.335,4.268,6.686,6.435,4.249,9.938,8.572,1.375.984,1.724,1.056,2.184,1.388a6.553,6.553,0,0,1,.834.791,1.362,1.362,0,0,1,.653,2.023,10.271,10.271,0,0,1-6.033,2.394c-.393,0-5.368-1.236-5.395-1.257a12.238,12.238,0,0,1-2.026-1.027c-1.6-.959-1.639-1.977-2.5-4.205-2.017-5.332-5.19-6.366-6.13-7.939a.476.476,0,0,1,.4-.745c2.543.085,1.505.559,3.171-.859A5.85,5.85,0,0,1,933.384,1307.6Z" transform="translate(-885.372 -1169.426)" fill="#eef2ff"/>
        <path id="Italian_Greyhound_1.4.3" data-name="Italian Greyhound 1.4.3" d="M871.3,1318.132c.948,2.591.008.707.5,3.972.186,1.2-.5,1.438-.866,1.832-.483.522-1.657,1.421-.241,1.62a11.9,11.9,0,0,0,1.477,0c8.068.414,6.192-1.659,7.664-1.891a2.548,2.548,0,0,0,.6-.123,12.814,12.814,0,0,1,1.875-.677c.487-.046.836-.131.75-.69a5.168,5.168,0,0,0-1.046-2.237c-.949-1.039-5.163-2.985-6.949-2.985C873.826,1316.954,870.511,1317.3,871.3,1318.132Zm.423,4.919.014-.031Zm7.794.713.023-.01Zm-.236.211.03-.038Zm-9.061.72.065-.05Zm6.122.04.034,0Zm-5.662.67c-.095.041-.043.02.01-.009Zm3.062.213-.034,0Z" transform="translate(-870.018 -1171.96)" fill="#eef2ff"/>
        <path id="Italian_Greyhound_1.4.2" data-name="Italian Greyhound 1.4.2" d="M879.4,1153.875c2.86.37,3.939-.59,7,1.174,6.369,3.654,5.651,8.01,10.121,12.565,2.064,2.107,2.872,2.584,3.964,5.145a5.856,5.856,0,0,0,.837,1.807c.375.389.969-.122.887-.585.03.167-.224-3-3.151-7.587-1.431-2.235-3.414-6.978-9.033-12.745-3.485-3.589-2.832-4.737-.941-6.566a41.761,41.761,0,0,1,5.544-4.227.43.43,0,0,0-.219-.8,13.3,13.3,0,0,0-2.493.933c-1.988.775-2.814,1.892-5.708,2.971a7.5,7.5,0,0,0-2.979,1.945c-3.212,2.49-7.373,3.213-7.691,3.915C874.736,1153.6,879.8,1153.916,879.4,1153.875Zm22.807,20.111,0,.037C902.211,1174.011,902.21,1174,902.208,1173.986Zm-16.728-19.418.093.039Zm-3.033-6.06-.017.013Z" transform="translate(-871.49 -1124.581)" fill="#eef2ff"/>
        <path id="Italian_Greyhound_1.4.1" data-name="Italian Greyhound 1.4.1" d="M876.156,1118.664c.233-.838,4.73-1.214,9.024,2.14a12,12,0,0,0,5.577,2.873c.668.112.695,1.1-.366.807-.073.008-.669-.079-.462-.047-6.56-.874-9.115-3.5-11.708-4.59C876.434,1119.055,876,1119.214,876.156,1118.664Z" transform="translate(-871.673 -1118.088)" fill="#eef2ff"/>
      </g>
      <g id="Italian_Greyhound_1.3" data-name="Italian Greyhound 1.3" transform="translate(840.26 1122.943)">
        <path id="Italian_Greyhound_1.3.2" data-name="Italian Greyhound 1.3.2" d="M906.435,1126.4c1.286,0,3.412.939,3.264,2.183a2.892,2.892,0,0,1-.408,1.038c-.378.742.748,2.773-2.155,3.052a3.017,3.017,0,0,1-2.006-.38c-1.024-.419-2.189-.314-2.726-2.275C901.833,1127.95,904.29,1126.4,906.435,1126.4Z" transform="translate(-881.636 -1125.297)" fill="#35322d"/>
        <path id="Italian_Greyhound_1.3.1" data-name="Italian Greyhound 1.3.1" d="M876.523,1124.887a3.694,3.694,0,0,1,2.033,1.017c.367.309,1.205.794.564,1.295a5.08,5.08,0,0,1-1.591,1.413,5.308,5.308,0,0,1-2.432,0c-1.926-.709-.875-1.069-.722-1.419C874.182,1127.83,874.936,1124.887,876.523,1124.887Z" transform="translate(-873.951 -1124.887)" fill="#35322d"/>
      </g>
      <path id="Italian_Greyhound_1.2" data-name="Italian Greyhound 1.2" d="M850.109,1118.932c2.6,0,2.935.65,4.935,1.871.955.723,1.056.658.795,1.528-.541,1.791.22,6.364-2.006,7.962-1.093.792-1.4,1.3-2.636,1.3a6.093,6.093,0,0,1-2.741-1.259c-.985-.857-1.079-1.3-2.058-1.228-.6.116-1.565,1.993-3.151,2.4a10.711,10.711,0,0,1-4.068-.107c-.31,0-.653.037-.627.032-2.647.453,1.178-5.971,4.47-8.263C844.81,1121.871,846.852,1118.932,850.109,1118.932Z" transform="translate(-23.863 -0.331)" fill="#afcaff"/>
    </g>
  </g>
</svg>
