<svg xmlns="http://www.w3.org/2000/svg" width="253.538" height="196.137" viewBox="0 0 253.538 196.137">
  <g id="그룹_26" data-name="그룹 26" transform="translate(23.057 -243.084)">
    <path id="패스_60" data-name="패스 60" d="M4048.607,3695.951c19.73-1.064,88.921-42.579,108.082,52.16s-59.611,123.48-99,130.931-127.737,2.129-147.962-92.61,50.03-100.06,67.062-101.125S4028.877,3697.016,4048.607,3695.951Z" transform="translate(-3929.163 -3442.159)" fill="#5890ff"/>
    <g id="그룹_23" data-name="그룹 23" transform="translate(-77.411 88.954)">
      <g id="Labrador_1_cream_" data-name="Labrador 1 [ cream ]" transform="translate(83.477 176.093)">
        <g id="Labrador_1.4" data-name="Labrador 1.4" transform="translate(48.986 84.567)">
          <path id="Labrador_1.4.2" data-name="Labrador 1.4.2" d="M3019.455,2482.744c-.794-.287-2.071,1.025-5.568,5.826-1.29,1.771-2.9,4.04-4.7,6.731-2.183,4.16-4.613,12.582-4.268,16.939.336,4.331,1.083,14.833,3.082,18.769,1.784,3.508.721,4.177,3.8,5.917a5.249,5.249,0,0,0,2.154.694,7.439,7.439,0,0,0,2.714.937c3.8.621,8.974.893,8.066-2.82-.39-1.6-1.245-2.053-2.6-3.049a2.764,2.764,0,0,0-1.383-.752,12.859,12.859,0,0,0-1.265-.281,2.967,2.967,0,0,1-1.049-.418c-1.154-.595-1.224-1.227-1.217-1.213-1.445-3.185-1.027-11.684-.955-14.574.3-13.138.5-16.832,1.13-19.43C3017.575,2495.278,3019.982,2482.934,3019.455,2482.744Z" transform="translate(-2909.04 -2480.848)" fill="#bad1ff"/>
          <path id="Labrador_1.4.1" data-name="Labrador 1.4.1" d="M2798.62,2478.281c-3.7,0-3.481,1.118-5.866,4.02-12.408,15.051-14.154,14.253-15.527,16.741-1.543-.344.8,15.692,1.1,16.944.049.2,1.177,4.03,1.1,3.786,1.638,4.993.357,7.148,5.946,8.082,3.021.516,1.925.844,4.872,1.114a9,9,0,0,0,6-1.626c.849-.635.4-2.049-.55-2.741-1.163-.849-1.021-1.792-3.736-2.5a14.9,14.9,0,0,1-1.743-.329c-2.3-.919-1.742-1.745-3.157-4.031a9.011,9.011,0,0,1-.551-2.424c-1.082-8.232.362-10.35,4.3-16.2,2.212-3.279,11.911-11.311,14.595-16.982a5.551,5.551,0,0,0,.672-1.886c.092-.538-.774-.665-.76-.66-2.853-.86-2.875-1.314-6.694-1.314" transform="translate(-2776.705 -2478.281)" fill="#bad1ff"/>
        </g>
        <path id="Labrador_1.3" data-name="Labrador 1.3" d="M2825.873,2276.958c-3.059,0-2.9-.177-7.082,1.107-2.084.646-1.15.448-1.594.448a17.178,17.178,0,0,0-2.331,1.259c-6.938,3.12-10.479,15.091-18.024,23.69-4.464,5.032-10.789,8.822-15.155,9.795-22.753,5.109-20.734,4.143-36.692,2.762-.237-.021-15.686-.586-17.328-.447a30.363,30.363,0,0,0-10.949,2.918c-.711.326-9.809.589-19.635,10.568-5.438,5.5-9.17,10.861-18.729,13.214-4.267,1.045-10.4,1.839-11.781,2.215-2.183.6-9.493,4.946-5.126,7.732,1.251.8,2.317,1.824,4.068,2.776a20.485,20.485,0,0,0,5.718,1.538c5.42,1.012,9.585.083,14.4-2.024a32.879,32.879,0,0,0,8.555-3.283c5.252-2.723,5.539-5.587,5.092-3.388-5.085,25,.642,25.644-5.713,35.906-1.873,3.036-3.463,2.725-4.021,6.469-.643,4.287-.676,7.4-1.272,10.322a88.768,88.768,0,0,0-1.089,12.133c.494,1.768.478,2.866,1.658,3.668.889.6,1.1.242,2.938,1.466,3.4,2.243,5.218,2,9.348.876,1.578-.425,1.732-2.03,1.072-3.3a4.933,4.933,0,0,0-1.8-1.783,5.893,5.893,0,0,0-2.052-1.691c-1.978-.992-1.189-2.744-1.565-3.1.059-.257.235-2.905.308-3.485-.034.082.342-2.376.34-2.362.283-1.977.328-3.067.327-3.053,1.217-13.828.473-6.5,15.41-20.443,7.409-6.924,8.485-9.4,12.014-13.346,3.274-3.645,1.35-3.523,3.983-3.867,11.512-1.481,16.2,7.832,35.348,8.76,7.9.383,22.817-.411,26.552-2.076.763,1.75.839,8.034.945,9.823,1.167,20.05-1.058,6.4,2.129,29.606,1.746,12.525-.594,13.591,4.546,16.625.015.01,2.63,2.641,5.64,2.924.05,0,5.927.3,5.942.3,4.485,0,6.11-3.172,3.91-5.386-3.842-3.842-5.224-.869-7.146-5.295.1-.989-1.948-1.107-1.948-19.084,0-9.851,1.7-21.887,9.444-27.907,4.443-3.452,9.708-17.079,11.754-27.781,1.6-10.113,1.692-12.01,3.16-19.169,1.208-5.93,1.739-14.189,5.051-17.4,5.942-5.673,10.874-4.258,14.987-8.508,2.877-2.954,4.861-9.077,3.132-14.044-.954-2.751-1.474-2.337-5.372-2.35-3.229-.014-8.085.165-10.725-1.411-1.652-.941-4.186-2.93-10.635-2.93" transform="translate(-2660.083 -2276.95)" fill="#eef2ff"/>
        <path id="Labrador_1.2" data-name="Labrador 1.2" d="M3010.905,2288.251c-.265,0-.267.163-1.746.8-1.364.536-5.583.43-7.943,6.151-4.293,10.38-2.55,10.5,2.625,12.421,3.442,1.278,4.912.489,6.685.619,2.886.218,8.954,1.955,10.168.443.657-.806.29-2.591.31-2.472-.947-5.659-6.479-10.966-7.528-12.258-1.923-2.7-1.281-2.807-1.639-4.483-.1-.448-.478-1.221-.933-1.221" transform="translate(-2856.521 -2283.505)" fill="#bad1ff"/>
        <g id="Labrador_1.1" data-name="Labrador 1.1" transform="translate(168.972 4.16)">
          <path id="Labrador_1.1.2" data-name="Labrador 1.1.2" d="M3112.456,2290.676a4.879,4.879,0,0,0-1.108-2.986c-.406-.607-.7-.531-2.111-.24a4.628,4.628,0,0,0-2.235,1.142,1.674,1.674,0,0,0-.542,1.535c.024,1.036,1.362,1.005,2.254,2.187a3.4,3.4,0,0,0,.3.363c.518.564.529,1.671.741,1.853C3110.421,2295.107,3112.577,2292.3,3112.456,2290.676Z" transform="translate(-3087.933 -2287.072)"/>
          <path id="Labrador_1.1.1" data-name="Labrador 1.1.1" d="M3067.651,2287.515a1.9,1.9,0,0,0-1.054-.508,3.6,3.6,0,0,0-.914-.154c-2.273,0-2.513,1.561-3.16,3.079-.048.114-.078.162-.063.243a.25.25,0,0,0,.277.415c.345-.223,1.015.136,2.556.029,1.054-.073,1.539-.952,2.418-2.455C3067.882,2287.866,3067.927,2287.728,3067.651,2287.515Zm-5.062,2.266c-.028.066-.03.07,0,0Z" transform="translate(-3062.357 -2286.853)"/>
        </g>
      </g>
    </g>
  </g>
</svg>
