<svg xmlns="http://www.w3.org/2000/svg" width="253.538" height="196.137" viewBox="0 0 253.538 196.137">
  <g id="그룹_27" data-name="그룹 27" transform="translate(-61.462 -158.467)">
    <g id="그룹_26" data-name="그룹 26" transform="translate(84.519 -84.616)">
      <path id="패스_60" data-name="패스 60" d="M4048.607,3695.951c19.73-1.064,88.921-42.579,108.082,52.16s-59.611,123.48-99,130.931-127.737,2.129-147.962-92.61,50.03-100.06,67.062-101.125S4028.877,3697.016,4048.607,3695.951Z" transform="translate(-3929.163 -3442.159)" fill="#5890ff"/>
    </g>
    <g id="Mastiff_1_tan_" data-name="Mastiff 1 [ tan ]" transform="translate(-1920.969 -1582.792)">
      <path id="Mastiff_1.8" data-name="Mastiff 1.8" d="M2152.723,1966.543a39.117,39.117,0,0,0-3.731-3.026c-4.047-2.691-4.854-3.622-3.432-.821,3.281,6.507,5.687,8.318,6.277,16.218.331,4.528-1.307,8.893-1.006,15.208.16,3.325.5,5.708.663,7.6.045.509.431,11.794-.027,14.071-.556,2.725,1.8,3.2,2.463,3.838,2.621,2.543,3.932.941,5.338.749a3.55,3.55,0,0,0,2-1.252,2.53,2.53,0,0,0,.461-1.952c-.092-1.161-1.329-1.668-2.239-2.811-2.408-3.245-2.016-12.211-1.914-16.278.661-8.732,5.561-18.388,6.738-24.231C2165,1970.469,2163.42,1975.524,2152.723,1966.543Zm5.117,42.712v0Zm3.751-37.255-.052-.018Zm-15.186-10.235h0C2146.339,1961.72,2146.349,1961.727,2146.405,1961.765Zm11.78,12.119h0C2158.222,1973.858,2158.233,1973.853,2158.185,1973.884Zm5.385.811a.607.607,0,0,0-.009-.069C2163.623,1974.493,2163.631,1974.439,2163.571,1974.695Z" transform="translate(-57.87 -121.805)" fill="#afcaff"/>
      <g id="Mastiff_1.7" data-name="Mastiff 1.7" transform="translate(2049.792 1761.785)">
        <path id="Mastiff_1.7.2" data-name="Mastiff 1.7.2" d="M2087.644,1839.9c-1.274,0-6.132.5-6.285.52-4.856.624-9.169,2.23-12.152,6.153-5.752,7.589-9.261,16.463-10.152,21.687-2.254,13.2-.009,15.831-1.97,25.487-2.4,11.8-2.054,10.938-1.891,20.516.161,9.08-.55,5.273-1.432,12.064-.9,7.005-.065,9.713-1.935,16.03a8.645,8.645,0,0,1-1.217,2.469,4.866,4.866,0,0,0-.586,4.125c.232.435.786.54,1.054.835.468.661.522,1.3,1.762,2.053,3.29,2,8.2-.5,8.357-2.683a7.55,7.55,0,0,0-.911-3.773c-1.306-1.915,1.959-24.986,2.067-25.841,1.544-12.415,4.767-15.135,7.165-20.809,2.114-5.07,3.15-8.968,7.042-11.424,6.536-4.08,13.261,1.4,19.022,6.413a19.433,19.433,0,0,0,8.155,4.645,13.253,13.253,0,0,0,2.711.53c1.091.5,1.58.071,1.542-.583-.753-11.821-3.052-12.541-3.775-16.065-.773-3.731-.379-5.081-.5-7.994-.132-3.17-.374-2.8-.785-5.8-.948-7.13.087-14.25,1.34-17.243a57.062,57.062,0,0,1,4.028-7.076c1.5-2.254,2.678-2.381,2.724-3,.189-.089.527-.26.511-.252a.513.513,0,0,0-.252-.953c-.317,0-1.709.911-4.29,1.7-2.817.858-2.5,1.305-8.573-.184-4.7-1.151-3.688-1.541-10.771-1.552" transform="translate(-2049.792 -1809.913)" fill="#eef2ff"/>
        <path id="Mastiff_1.7.1" data-name="Mastiff 1.7.1" d="M2257.957,1763.327c-3.594.013-10.153.4-10.169.4-5.414.428-7.363,1.156-10.3,6.466-1.917,3.434-2.122,3.025-2.631,9.092a13.258,13.258,0,0,1-1.287,5.9c-1.781,4.019-.035,3.967,1.114,9.934,1.187,6.105.807,6.5,2.125,9,1.65,3.11,5.338,3.072,8.224,6.152a5.128,5.128,0,0,0,1.339.827c1.828.89,3.318-.35,4.5-1.385,1.966-1.707,6.656.883,6.471.8a7.546,7.546,0,0,0,3.675.467c.79-.1.591-.076,2.809-1.85,1.134-.9,1.322-4.508,1.351-4.493.3-2.185.623-2.092,1.13-4.333a29.4,29.4,0,0,1,1.285-5.063c3.391-8.7,1.113-11.231,1.617-11.231-.826-6.392.5-7.633-4.173-15.958C2263.782,1765.808,2260.683,1763.316,2257.957,1763.327Zm-7.467,30.153a6.354,6.354,0,0,1,1.326-.735c1.028-.352,2.79.655,3.616,1.375a21.292,21.292,0,0,1,2.265,2.8c.343.477,1.211.779.841,1.271-1.218,1.555-4.445,1.289-7.206,1.289a5.54,5.54,0,0,1-4.064-1.249c-.261-.2-.476-.44-.246-.671a34.121,34.121,0,0,1,3.468-4.078" transform="translate(-2161.139 -1763.327)" fill="#eef2ff"/>
      </g>
      <path id="Mastiff_1.6" data-name="Mastiff 1.6" d="M2202.3,1827.056c-.069,0-7.419,3.756-7.435,3.765a17.171,17.171,0,0,0-4.817,3.557c-1.769,1.844-6.026,9.845-6.929,16.4a34.616,34.616,0,0,0,.63,12.385,15.93,15.93,0,0,1,.325,3.665,31.006,31.006,0,0,0,2.106,11.607c4.1,11.232.711,12.008,2.993,24.724,3.892,22.223-.116,28.066,1.695,36.913,1.619,7.585-1.131,10.475.988,12.638.768.793,1.178,2.737,2.509,3.364a6.261,6.261,0,0,0,3,.545c.134.016.652.009.636.009,1.818,0,2.828.881,5.139.579a5.138,5.138,0,0,0,3.542-2.354c.469-.871,1.166-1.25.987-2.715-.374-2.911-3.912-2.755-5.478-6.235-2.8-6.955-.45-33.72-.45-34.761,0-9.107-1.073-17.186,2.552-17.186,5-.018,5.6-.479,8.433-1.7.186-.081.363,21.887.808,21.983,0,0,1.132,9.743,1.241,17.429.039,2.726.747,6.952.938,8.8.064,1.832.424,6.532,1.705,7.839,3.909,3.929,2.056,2.139,4.477,3.414,3.063,1.623,5.511.465,7.376.694,1.816.289,2.259.494,3.546-.016a1.052,1.052,0,0,0,.865-.649c.63-1.6-.19-4.307-.378-4.687-.792-1.608-4.508-3.074-4.493-3.065-2.724-1.543-2.833-2.794-4.153-7.336-.068-.234-1.118-11.285-1.126-11.527-.3-7.781,2-16.626,2.555-19.335.261-1.269,1.96-14.976,1.958-14.961,1.926-11.054,7.876-13.26,7.543-28.753a82.563,82.563,0,0,0-1.664-14.165c-.2-.738-.861-.726-1.181-.1a4.166,4.166,0,0,1-2.866,1.726c-1.805.2-6.672-3.319-9.67-1.272-1.267.854-1.585,1.361-2.8,1.547-1.52.171-1.661-.512-2.885-1.094-5.788-4.54-6.528-3.181-8.16-7.544-1.493-3.977-1.215-6.222-2.109-9.572-.239-.9-1.2-4.558-1.954-4.558m12.874,92.834c-.014-.1-.017-.147,0,0" transform="translate(-80.929 -40.315)" fill="#eef2ff"/>
      <path id="Mastiff_1.5" data-name="Mastiff 1.5" d="M2274.251,1838.228c-1.01,0-2.7,1.586-2.686,1.571-.126.113-2.249,2.868-2.235,2.852-.488.581-.733.78.032,1.248a5.473,5.473,0,0,0,4.094,1.149c4.421,0,5.249,0,6.441-.812,1.358-.913.338-1.01-.227-1.7a27.854,27.854,0,0,0-2.3-2.841,6.211,6.211,0,0,0-3.124-1.463" transform="translate(-133.29 -47.112)" fill="#afcaff"/>
      <g id="Mastiff_1.4" data-name="Mastiff 1.4" transform="translate(2114.08 1760.792)">
        <path id="Mastiff_1.4.2" data-name="Mastiff 1.4.2" d="M2232.969,1764.532c-.506,0-5.065.591-4.775.553-3.955.524-3.07,2.2-10.211,7.415-2.755,2.016-4.013,3.266-4.02,6.459,0,3.861,1.526,4.216,2.63,7.576a14.081,14.081,0,0,0,.54,1.8c.853,2.03.412,2.3.639,3.213.39,1.6,1.542.022,2.347-.616,3.032-2.234,1.73-4,2.726-6.406a6.2,6.2,0,0,0,.607-1.559,20.127,20.127,0,0,0,.239-2.76c.016-.275.257-1.839.254-1.823.505-3.5.12-4.284,1.632-6.359,2.312-3.19,2.328-5.341,7.4-6.823.541-.17.389-.666-.007-.666" transform="translate(-2213.962 -1763.067)" fill="#bad1ff"/>
        <path id="Mastiff_1.4.1" data-name="Mastiff 1.4.1" d="M2302.336,1760.792a27.254,27.254,0,0,0-3.3.522c-.422.128-.27.712.253.715a11.418,11.418,0,0,0,1.226.413c.06.111,1.7,1.073,2.354,1.662a15.714,15.714,0,0,1,3.292,4.447h0l0,0h0v0h0l0,0h0v0h0v0h0l0,.008h0a3.973,3.973,0,0,1,.17.463c.222.608.8,1.863.782,1.863,1.707,3.891,1.531,8.122,1.8,10,.45,3.1,1.022,2.708,3.169,6.337,1.059,1.79,3.615,4.191,3.685,2.11a16.392,16.392,0,0,0,.13-2.691c-.1-1.215-.278-1.542-.348-2.748-.123-2.144,1.26-2.2,2.829-6.352.871-2.317,1.161-6.488-.642-8.46-2.293-2.522-3.6-1.25-6.524-3.495-1.977-1.546-2.19-.517-4.069-2.678A5.84,5.84,0,0,0,2302.336,1760.792Z" transform="translate(-2265.574 -1760.792)" fill="#bad1ff"/>
      </g>
      <path id="Mastiff_1.3" data-name="Mastiff 1.3" d="M2263.4,1788.13c-.4,0-.339.32-1.327,1.716a15.252,15.252,0,0,1-1.219,1.216,16.763,16.763,0,0,0-1.986,2.311c-1.857,2.136-2.513,2.467-3.527,4.523-1.468,2.965-1.429,2.095-2.345,4.173-2.561,5.842-.347,7.169.1,9.362a3.7,3.7,0,0,0,1.083,2.5,2.771,2.771,0,0,0,1.824.754c1.186.057,1.768-.74,2.962-2.208,3.131-3.844,3.645-5.291,6.565-4.005,1.5.656,1.422,1.612,4.027,4.147.9.867.745.926,1.511,1.357,2.5,1.413,3.125.529,5.036-1.652,1.617-1.856,1.7-3.49,1.8-6.15.173-4.608-1.938-4.419-3.363-7.426a6.258,6.258,0,0,0-2.395-3.056l-1.785-1.24c-7.18-5.149-6.224-6.323-6.963-6.323" transform="translate(-122.894 -16.633)" fill="#bad1ff"/>
      <g id="Mastiff_1.2" data-name="Mastiff 1.2" transform="translate(2131.661 1768.857)">
        <path id="Mastiff_1.2.2" data-name="Mastiff 1.2.2" d="M2291.477,1781.4a4.045,4.045,0,0,0-2.388,1.824,3.647,3.647,0,0,0-.515,4.2c.267.6.611.778,2.147,1.832.527.364.938.08.725-.426.074.172-.087-.21-.181-.434-.215-.536-.041-.3.072-1.337.07-.67-.168-1.053.314-1.7a22.45,22.45,0,0,1,1.929-1.771,1.108,1.108,0,0,0,.083-1.6,3.968,3.968,0,0,0-2.186-.578m-2.464,2.527h0m-.062.146h0m-.72.749h0m3.124,1.219c-.009.062-.008.053,0,0m-2.171.806c0,.016-.016.118,0,0m2.054,1.484c.021.048.023.056,0,0m.046.11c.02.047.022.052,0-.009l0,.009m0-.009c-.016-.038-.018-.043,0,0" transform="translate(-2276.676 -1781.387)" fill="#afcaff"/>
        <path id="Mastiff_1.2.1" data-name="Mastiff 1.2.1" d="M2260.649,1782.48c.43-.183-3.5,1.048-.889,3.89,1.662,1.811-.211,3.634,2.155,4.031,2.607.445,3.94-3.678,2.238-4.666-1.881-1.093-1.091-1.6-1.862-2.707a1.283,1.283,0,0,0-1.642-.548m-1.7,2.671c-.047-.11-.039-.089,0,0" transform="translate(-2258.857 -1781.984)" fill="#afcaff"/>
      </g>
      <g id="Mastiff_1.1" data-name="Mastiff 1.1" transform="translate(2130.017 1773.033)">
        <path id="Mastiff_1.1.3" data-name="Mastiff 1.1.3" d="M2275.114,1808.853c-1.121,0-3.646-.021-4.644.464-.137-.306-3.77,2.153-1.257,5.048a7.486,7.486,0,0,0,3.126,1.891c1.333.586.861,1.151,1.3,1.272a.3.3,0,0,0,.229.1c.022,0,1.933-1.447,1.851-1.386.76-.565.359-.533,1.056-1.168,1.19-.932,1.327-.727,2.082-1.794,1.169-1.655-.569-4.426-3.739-4.426" transform="translate(-2262.977 -1802.274)" fill="#2e2920"/>
        <path id="Mastiff_1.1.2" data-name="Mastiff 1.1.2" d="M2259.853,1796.672c-.073-.226-.37-.375-.387-.386a3.4,3.4,0,0,0-1.362-.988,2.264,2.264,0,0,0-2.176.295c-1.734,1.607-1.479,1.387-.486,2.141a3.366,3.366,0,0,0,3.158.28C2258.991,1797.828,2259.964,1797.01,2259.853,1796.672Zm-4.513.985.018.014Z" transform="translate(-2254.66 -1793.927)" fill="#2e2920"/>
        <path id="Mastiff_1.1.1" data-name="Mastiff 1.1.1" d="M2302.1,1793.4c-.154-.141-.24-.127-.582-.393a4.633,4.633,0,0,0-.939-.719,2.253,2.253,0,0,0-2.868.9c-.369.382-.489.411-.463.627-.042.312.249.313.5.5a3,3,0,0,0,1.656,1C2300.985,1795.583,2302.624,1793.879,2302.1,1793.4Z" transform="translate(-2280.566 -1792.052)" fill="#2e2920"/>
      </g>
    </g>
  </g>
</svg>
