<svg xmlns="http://www.w3.org/2000/svg" width="253.538" height="196.137" viewBox="0 0 253.538 196.137">
  <g id="그룹_27" data-name="그룹 27" transform="translate(-61.462 -158.467)">
    <g id="그룹_26" data-name="그룹 26" transform="translate(84.519 -84.616)">
      <path id="패스_60" data-name="패스 60" d="M4048.607,3695.951c19.73-1.064,88.921-42.579,108.082,52.16s-59.611,123.48-99,130.931-127.737,2.129-147.962-92.61,50.03-100.06,67.062-101.125S4028.877,3697.016,4048.607,3695.951Z" transform="translate(-3929.163 -3442.159)" fill="#5890ff"/>
    </g>
    <g id="Pug_1_tan_" data-name="Pug 1 [ tan ]" transform="translate(-649.735 -251.784)">
      <g id="Pug_1.7" data-name="Pug 1.7" transform="translate(806.207 500.081)">
        <path id="Pug_1.7.2" data-name="Pug 1.7.2" d="M886.9,526.549c-.4,0-1.039,2.343-.629,5.635,1.245,10.024-2.779,10.464-2.891,15.118-.2,7.759,2.99,6.963.794,13.11-1.6,4.467-.967,9.481-1.432,12.434-.839,5.3-2.231,1.351-1.829,14.448.254,7.264,3.636,8.08,4.736,9.957.712,1.209.295,1.622.708,1.737.993.293,2.068-1.367,4.086-1.46a29.218,29.218,0,0,0,4.84-.512c4.435-.548,8.86,2.066,15.989-4,4.346-3.69,3.525-9.816,3.524-9.573.02-4.561,1.81-9.786-5.921-19.236-4.518-5.527-3.734-6.3-6.328-11.031-.26-.479-3.551-5.16-3.534-5.135-4.531-6.523-3.025-8.47-7.317-13.819a41.562,41.562,0,0,1-3.71-5.6c-.957-1.715-.685-2.071-1.086-2.071" transform="translate(-835.043 -526.549)" fill="#bad1ff"/>
        <path id="Pug_1.7.1" data-name="Pug 1.7.1" d="M845.371,578c-.4,0-.341.638-.641,1.287-2.654,5.632-4.353,5.516-4.3,5.5-2.628.751-3.28.412-3.762,1.37-.621,1.192-1.315.888-1.836.691a3.142,3.142,0,0,1-1.42-.828c-4.748-4.579-6.672.479-8.563-4.224a22.406,22.406,0,0,1-1.13-2.676c.088-.487-.5-.593-.576-.072-1.369,6.9-2.551,4.814-.726,7.9.84,1.411.5,1.134,1.46,2.677,1.959,3.133,1.76,2.486,1.628,2.926-.611,2-1.475,4.548-3.1,5.883a4.785,4.785,0,0,1-3.433.547c-.6-.36-2.639-.666-2.24.047-.823,2.526.345,4.6-2.237,5.656-.341.135-.548.34-.639,2.058-.027.8,1.979,4.087,9.79,2.913,2.188-.328,3.46.271,5.6-1.148a.748.748,0,0,1,.4-.16c7.258-1.32,6.357-1.056,8.022-.86,5.852.746,5.934,2.215,7.3,2.147.772-.036.915.148,1.171-.154.892-.017.645-8.783.649-8.863.247-5.891,1.48-6.147-.567-17.033-.829-4.62-.222-5.584-.859-5.584" transform="translate(-813.852 -542.823)" fill="#bad1ff"/>
      </g>
      <path id="Pug_1.6" data-name="Pug 1.6" d="M836.98,446.022c-2.425,0-4.648,1.9-6.6,3.539-4.645,3.96-8.427,3.443-10.819,6.459-2.107,2.662-1.6,3.316-2.938,6.572a18.9,18.9,0,0,1-1.1,1.948c-3.515,6.18.655,11.312-1.328,16.3-.852,2.162-4.9,5.99-5.379,7.458a11.418,11.418,0,0,0-.26,1.6c-.48,2.416-2.708,5.787-3.541,8.255a43.144,43.144,0,0,0-.968,4.33c-2.24,14.169,1.133,10.257-2.264,22.855-3.615,13.525-1.289,16.273-2.067,23.52-1.517,14.274-7.224,12.307-9.773,16.542-.7,1.17.067,3.541,1.521,3.754,1,.144.312-.321,1.479.5,2.279,1.627,5.433.223,6.056.124.965-.051,3.943.818,5.83-1.435,2.3-2.761,1.335-4.217,1.939-5.209,2.591.493.855-3.471,4.983-14.118,4.478-11.609,4-11.917,4.031-11.81,3.587,9.12,3.655,2.327,10.174,7.677,1.389,1.15,2.616.926,3.448-.345.736-1.117.5-.507,2.048-.865,4.093-.926,4.38-3.952,6.265-7.2.24-.414.513,5.143,1.056,8.8a23.9,23.9,0,0,1,.595,8.449c-.813,4.76-.374,5.135-.374,7.706-.018,7.846-.98,4.863.449,8.215.458,1.3.026,1.343,1.129,3.1a4.037,4.037,0,0,0,3.232,1.844c.516.107.642.3,1.815.681,3.1.984,3.446-.026,4.236-.174.708-.131,3.029.5,3.917.554a2.387,2.387,0,0,0,.978-.2c.868-.278,3.53,1.3,2.949-2.314-.356-2.281-3.278-4.728-3.593-5.147-2.645-3.769-1.728-7.445-1.562-12.015a41.709,41.709,0,0,1,1.685-9.695h0c1.016-6.109-.9-4.032,1.832-12.214.693-2.1.805-4.078-.758-7.685-1.516-10.294,2.1-6.56,2.841-14.651a56.359,56.359,0,0,0-.655-7.242c-.2-2.56.98-3.6.621-7.459-.6-6.518-5.3-6.857-3.6-12.338.606-2.007,3.386-6.35,2.141-13.892-.165-2.224-.648-2.53-1.249-6.459-1.194-7.815-1.283-12.073-11.922-15.4-3.026-.946-3.641-2.913-6.5-2.913" transform="translate(0 -0.996)" fill="#eef2ff"/>
      <path id="Pug_1.5" data-name="Pug 1.5" d="M882.571,618.743c-.045.014-.564.092-.7.327-.749,1.249,3.518,6.093,4.043,6.892.29.446.345.889.635.87.247-.019,1.672-2.114,1-3.066-.233-.328-.179-.459-.381-1.2-.751-2.687-1.4-1.759-1.972-2.681a2.3,2.3,0,0,0-2.628-1.147m2.876,1.515c.025.01.02.009,0,0m-3.335.036h0m.92,1.949h0m4.378,1.288h0m-3.387,0h0m.093.12h0m-.013-.016c-.033-.043-.026-.033,0,0m-1.079-1.4h0m-.464-.833c-.023-.053-.019-.042,0,0m-.349-.859-.006-.014h0l.006.015" transform="translate(-29.132 -55.602)" fill="#afcaff"/>
      <path id="Pug_1.4" data-name="Pug 1.4" d="M853.793,505.384a5.109,5.109,0,0,1-3.9-3.488c-.959-3.293-.548-2.915-1.111-4.5-1.979-5.569-4.424-5.652-9.392-2.5-6,3.816-7.3,1.473-7.727,2.063-.252.248.041.441.27.772.786,1.145,1.012,1.268.989,1.243,1.814,1.9,4.051,6.334,7.378,6.721,4.18.472,2.931,1.674,7.445,1.674C851.232,507.392,854.652,506.1,853.793,505.384Zm-7.2-8.344h0Z" transform="translate(-13.248 -15.794)" fill="#afcaff"/>
      <path id="Pug_1.3" data-name="Pug 1.3" d="M866.82,480.271c-.212-1.5-1.22-2.4-2.05-3.642-4.394-6.729-7.382-.086-9.177-2.271-.467-.682.2-.52-1.353-1.635-.848-.609-1.509-.682-1.592-2.111A11.234,11.234,0,0,1,853.9,466.4c.857-1.711.3-2.248-.377-.939-1.73,3.088-1.817,4.163-3.135,4.726-1.656.714-1.88-1.013-5.748-.123-.773.163.185-.053.219-1.964a2.573,2.573,0,0,0-1.26-2.47c-1.47-1.034-1.242-1.095-4.178-1.38-6.122-.627-8.245.577-7.528,6.769.421,3.573-1.348,4.266-2.08,6.444-.574,1.76-.314,5.011-.49,5.923a5.5,5.5,0,0,0,1.759,4.448c3.8,3.048,11.6-6.5,14.532-3.319,2.67,2.93,2.315,6.234,2.824,7.66,1.369,3.793,3.225,4.608,5.354,4.4,2.5.382,5.053-4.145,5.331-6.341h0c1.885-3.4,2.759-3.4,4.412-4.45C865.492,484.554,867.149,482.561,866.82,480.271Zm-13.285-14.839,0,0C853.516,465.467,853.56,465.384,853.534,465.432Zm-.012.023c.009-.014.011-.02-.005.01Z" transform="translate(-12.527 -6.715)" fill="#bad1ff"/>
      <g id="Pug_1.2" data-name="Pug 1.2" transform="translate(822.034 459.982)">
        <path id="Pug_1.2.3" data-name="Pug 1.2.3" d="M837.734,468.232c-.7.189-.732.162-.732,1.594-.023,3.874,5.878,3.436,5.2,2.246C844.049,466.827,837.566,467.864,837.734,468.232Z" transform="translate(-837.002 -467.898)" fill="#2a272d"/>
        <path id="Pug_1.2.2" data-name="Pug 1.2.2" d="M874.021,483.3a3.524,3.524,0,0,0-2.857,1.078c-.025.02-.476.4-.451.384-.725.548,2.042,5.226,5.659,3.282.492-.263,1.665-.9,1.331-1.348.09-.237-1.387-3.4-3.682-3.4" transform="translate(-847.628 -472.77)" fill="#2a272d"/>
        <path id="Pug_1.2.1" data-name="Pug 1.2.1" d="M853.753,479.758c-3.159.16-2.436,3.21-.807,5.106.377.444.257.963,1.163.689,1.188-.342,4.4-.665,4.313-3.012-.055-1.459-1.165-1.617-2.536-2.115-1.253-.452-1.243-.694-2.132-.667" transform="translate(-841.605 -471.649)" fill="#2a272d"/>
      </g>
      <g id="Pug_1.1" data-name="Pug 1.1" transform="translate(813.386 442.873)">
        <path id="Pug_1.1.2" data-name="Pug 1.1.2" d="M836.379,442.873c-8.5,0-10.263,1.193-10.239,1.183-.722.282-1.274.57-1.323,1.968-.057,1.871-.446,2.854-.462,4-.07,5.155,1.34,6.087.232,9.2-.373,1.056.067,1.166.57.743s2.553-1.927,2.662-2.022c1.813-1.593,3.136-3.23,3.57-3.479,1.718-1.232,3.273-1.422,5.374-2.355,4.589-2.1,4.121-2.667,7.288-5.342,1.322-1.142,2.082-1.043,2.1-1.45a.3.3,0,0,0-.292-.289c-3.26,0-6.263-2.156-9.484-2.156" transform="translate(-824.352 -442.873)" fill="#afcaff"/>
        <path id="Pug_1.1.1" data-name="Pug 1.1.1" d="M882.437,458.572c-1.179,0,1.348,2.206,1.7,8.214.147,2.618,2.266,6.989,1.886,12.626a36.337,36.337,0,0,1-.532,4.8,5,5,0,0,0,.653,2.1c.953,1.829.754,2.056,1.935-.042a8.7,8.7,0,0,1,3.84-3.387c2.884-1.116,7.559-3.546,7.75-6.645.129-2.541-5.879-9.1-6.229-9.525-1.194-1.45-1.861-2.7-2.461-3.412-2.344-2.784-4.526-2.981-7.292-4.138-1.434-.665-1.106-.587-1.249-.587" transform="translate(-842.627 -447.838)" fill="#afcaff"/>
      </g>
    </g>
  </g>
</svg>
