<svg xmlns="http://www.w3.org/2000/svg" width="253.538" height="196.137" viewBox="0 0 253.538 196.137">
  <g id="그룹_32" data-name="그룹 32" transform="translate(-61.462 -158.467)">
    <g id="그룹_27" data-name="그룹 27">
      <g id="그룹_26" data-name="그룹 26" transform="translate(84.519 -84.616)">
        <path id="패스_60" data-name="패스 60" d="M4048.607,3695.951c19.73-1.064,88.921-42.579,108.082,52.16s-59.611,123.48-99,130.931-127.737,2.129-147.962-92.61,50.03-100.06,67.062-101.125S4028.877,3697.016,4048.607,3695.951Z" transform="translate(-3929.163 -3442.159)" fill="#5890ff"/>
      </g>
    </g>
    <g id="Rottweiler_1" data-name="Rottweiler 1" transform="translate(-1957.134 -1027.145)">
      <path id="Rottweiler_1.9" data-name="Rottweiler 1.9" d="M2227.547,1252.946c-.513,0,.309,1.558-2.791,4.041-3.058,2.475-2.123,7.467-6.625,8.784-1,.292-.917.379-1.229.43-2.894.316-1.628-.605-3.967-3.607s-4.918-2.55-8.15-3a7.51,7.51,0,0,0-2.768-.369c-1.946.138-3.18,1.495-4.249,2.7-1.048,1.177-1.108,1.032-2.153.622-.811-.361-2.606-3.369-2.74-3.661-1.236-2.98-.5-5.543-1.081-5.543-.538,0-1.286,3.819-1.148,3.324a29.674,29.674,0,0,0-.069,4.994c0,3.952-.383,1.961,1.217,5.226,3.06,6.3,1.4,6.579,3.561,9.249a5.708,5.708,0,0,0,1.708,1.088c6.633,2.317,2.831,7.159,7.435,8.558.5.147.514.321,1.02.433,2.095.453,3.009-.4,4.99-3.219,2.036-2.91,1.812-1.734,3.907-3.212.382-.269,2.729-2.55,2.745-2.566,2.285-2.139,2.873-5.373,3.242-6.89.648-2.647,1.431-3.021,2.4-4.44.87-1.279,1.492-2.072,1.65-2.384.284-.569,1.515-3.381,1.806-3.658.586-1.041,2.2-6.895,1.29-6.895" transform="translate(-51.534 -28.804)" fill="#eef2ff"/>
      <g id="Rottweiler_1.8" data-name="Rottweiler 1.8" transform="translate(2104.302 1263.293)">
        <path id="Rottweiler_1.8.3" data-name="Rottweiler 1.8.3" d="M2132.764,1348.834c-.262,0-3.722,3.4-6.767,10.561-4.925,9.851-3.465,5.58-5.228,10.168a15.592,15.592,0,0,1-1.214,2.543c-4.948,8.911-5.549,7.72-6.756,9.877-1,1.783-1.517,6.477-3.82,9.234-1.927,2.339-2.146,2.116-2.7,7.062-.419,3.874.3-.321-.567,4.823-.652,3.81,1.752,6.726.8,9.114-.585,1.329-.378,1.643.9.922.907-.519,1.526-1.389,2.714-1.594,1.354-.125,1.655.047,2.67-.486,1.774-.929,3.01-1.463,3.616-6.46.01-.073,1.193-5.716,1.109-5.356a8.6,8.6,0,0,1,1.558-3.6,16.784,16.784,0,0,0,1.753-2.717,2.411,2.411,0,0,1,3.062-.711c1.554,1.341,1.719,3.844,3.45,4.942a2.824,2.824,0,0,1,.838.714c.331.406.7.225.785-.066.24-.834-.544-1.088.1-8.549.292-3.357-.7-4.429.732-9.964.741-2.883-.022-4.61-.379-7.224-.388-5.338.892-3.576.892-9.484-.019-6.057,2.51-12.069,2.355-12.659.408-.466.477-.557.477-.707a.387.387,0,0,0-.386-.385" transform="translate(-2105.6 -1348.834)" fill="#afcaff"/>
        <path id="Rottweiler_1.8.2" data-name="Rottweiler 1.8.2" d="M2187.486,1467.307c-.586.056-.485.057-.916,3.444-.115.728-.329,1.291,1.207,1.077a6.47,6.47,0,0,0,1.391-.351c2.439-.865,1.539.423,5.178-1.988.586-.386,1.562-.861,1.425-1.451-.187-.846-2.791-.037-4.507-.168-1.677-.122-2.241.033-2.674-.233a2.335,2.335,0,0,0-1.1-.331m7.546.75v.006h0l0-.006m.22.391h0" transform="translate(-2153.463 -1418.933)" fill="#afcaff"/>
        <path id="Rottweiler_1.8.1" data-name="Rottweiler 1.8.1" d="M2229,1458.286a.384.384,0,0,0-.238.192c-.788.163-.64.5-2.347,1.026-1.956.615.022,1.367-.494,1.144.281.125.392.612.541.847,1.2,1.894.29,2.23,1.029,4.45.344,1.041.383.887.173,1.745a8.4,8.4,0,0,1-.615,2.009c-.722,1.285-3.287,3.926-1.95,3.9.38-.008,3.86-3.938,3.875-3.955,1.964-2.283,1.741-3.337,1.515-6.136a20.876,20.876,0,0,0-.707-3.579c-.348-1.05-.186-1.806-.784-1.643m-3.007,2.392c.039.015.017,0,0,0m.268.376c.037.089.03.074,0,0m.561,8.974h0" transform="translate(-2176.085 -1413.585)" fill="#afcaff"/>
      </g>
      <g id="Rottweiler_1.7" data-name="Rottweiler 1.7" transform="translate(2103.406 1306.309)">
        <path id="Rottweiler_1.7.2" data-name="Rottweiler 1.7.2" d="M2128.736,1477.931a20.033,20.033,0,0,1-.184-4.2c-.065-2.22-.415-3.965-.459-6.469-.047-3.008.173-3.2-.022-4.108-1.074-4.991-1.386-2.264-3.342-5.448-1.747-2.8-2.789-4.877-5.475-2.438a5.2,5.2,0,0,0-1.073,1.819c-.382.829-2.085,2.066-3.344,9.033-1.064,5.794-1.431,5.935-3.284,6.891-2.391,1.233-3.069.733-3.931,1.222-1.385.781-.952,1.044-2.282,1.249-.292.03-.516-.192-.72.677-.938,3.954.681,4.535-.137,6.944-.42,1.246-1.448,3.55-.938,5.411.2.747.579,1,1.257,1.516.661.531.611,1.274,1.6,1.609,1.576.529,1.842,1.06,2.994.553.594-.26,1.307-1.116,2.659-1.9a9.674,9.674,0,0,0,1.89-1.615,6.041,6.041,0,0,0,.724-2.452c.166-3.242-2.347-3.293-2.17-4.953a7.729,7.729,0,0,1,.794-2.767c.471-.532,1.924-.2,2.582.068,2.2.967,2.744.413,6.072.715a22.624,22.624,0,0,0,4.285-.248C2127.761,1478.832,2128.922,1479.036,2128.736,1477.931Zm-16.177,2.836.006-.043C2112.563,1480.738,2112.561,1480.753,2112.559,1480.768Zm.823-2.348h0C2113.4,1478.412,2113.4,1478.412,2113.382,1478.419Z" transform="translate(-2103.406 -1454.191)" fill="#eef2ff"/>
        <path id="Rottweiler_1.7.1" data-name="Rottweiler 1.7.1" d="M2210.575,1494.4a8,8,0,0,0-1.468-3.794c-2.62-3.852-5.4-1.6-6.99-6.3-.843-2.48-1.092-1.562-1.072-3.084.02-1.318.186-.8.524-3.153.784-5.478,4.751-4.878,2.787-9.218a2.57,2.57,0,0,1-.034-1.187c.009-1.445-1.156-3.9-1.7-4.16-.876-.419-.652,1.134-6.43,1.973-1.858.257-.067.222-3.187,2.073-1.824,1.081-2.09.717-4.414,1.506-2.011.68-2.561-.141-2.721.439-.049.184-.178,1.887-.178,1.9,0,.579.322-.044.193,1.026,0-.017-.414,4.794-.366,5.993.215,5.593-.419,5.052,1.5,5.052a13.533,13.533,0,0,0,3.957-.025c2.788-.4,2.6-.344,2.654-.024.292,1.628.6,3.128,1.924,4.142.446.362.225.827,1.468,2.132a6.859,6.859,0,0,0,1.657,1.323c.717.569.837,1.333,1.73,2.513a8.078,8.078,0,0,0,4.031,2.738,3.04,3.04,0,0,0,1.724.463c1.856.129,3.084,1.524,3.8-.346C2210.261,1495.74,2210.575,1495.949,2210.575,1494.4Zm-4.35-6.171.065.028Z" transform="translate(-2151.991 -1459.661)" fill="#eef2ff"/>
      </g>
      <path id="Rottweiler_1.6" data-name="Rottweiler 1.6" d="M2209.3,1268.286c-.729,0-1.127,3.927-4.169,7.1a8.193,8.193,0,0,0-1.48,2.517,9.522,9.522,0,0,0-.905,3.213,10.4,10.4,0,0,1-2.155,3.978c-2.08,3.139-3.612,3.382-5.074,4.495-2.582,1.968-3.636,5.143-5.663,5.507-.2.014-.473-.029-.736-.022-7.489-1.178-1.693-5.863-8.4-8.5a7.148,7.148,0,0,1-2.684-1.71c-.667-.918-.818-3.9-1.632-5.389-1.293-2.37-1.27-3.42-2.145-5.18,0-.344-.173-.493-.387-.493-.522,0-.376.456-.378,2.527,0,3.841.456,2.5-.076,5.277-1.251,6.317-.576,4.737-1.009,6.478-.476,1.905-2.23,3.359-4.646,7.5a9.962,9.962,0,0,0-1.145,2.5c-.265.778-3.031,11.969-3.2,13.809-.259,2.911.048,4.185-.594,7-1.237,5.413-.741,5.886.106,9.469.825,3.479-1.039,2.878-1.019,9.282,0,1.843.144,2.516.094,3.885-.047,1.323-.883,7.284.261,13,.69,5.346.19,13.815,1.271,15.226a15.652,15.652,0,0,0,1.912,2.469c1.31,1.109,1.155,2.271,2.3,3.112.666.5,1.232-.611,1.218-.594,3.736-4.513,2.391-8.673,2.784-16.9.281-5.752.914-8.134.968-8.143,3.914,1.053,2.571.5,4.416.5a49.151,49.151,0,0,0,6.076-.081c4.208-.5,4.808-2.072,6.167-2.812a25.68,25.68,0,0,0,2.975-1.472c3.3-1.92,4.579-7.475,7.3-8.311,2.6-.828-.309-1.157,1.679,16.123.059.487.051.984.586.9.287-.078.281-.321.547-.989a4.9,4.9,0,0,1,.855-1.277c.736-.856.31-.242.6,6.13.135,3,.135,3.859.135,3.842.159,3.183,1.794,7.687,3.476,5.886.954-1.012,1.638-.007,1.38-2.659-.7-6.9,2.229-15.819,2.666-22.2.163-2.417.532-10.64.622-11.435.334-2.366,2.885-5.469,1.779-12.884-.114-.98-.136-5.914-.9-8.607-3.45-12.043-6.492-10.259-5.531-28.8.144-2.743,2.136-7.284,2.136-11.374,0-1.322.154-1.88-.373-1.88" transform="translate(-34.473 -37.881)" fill="#bad1ff"/>
      <path id="Rottweiler_1.5" data-name="Rottweiler 1.5" d="M2199.947,1212.494c-.487.608-3.082,3.423-3.068,3.406-2.458,2.953-1.9,3.531-2.284,6.851-.225,1.52-2.418,6.125.572,10.851a32,32,0,0,0,1.962,2.636c2.219,1.686,3.449-1.779,4.057-2.251,2.533-1.871,3.963-.817,8.513-.36,8.038,1.383,4.892,7.883,8.865,6.305,2.05-.814,3.761.141,5.93-5.436a14.973,14.973,0,0,1,.75-1.656c1.5-2.647,5.075-4.812,4.136-6.83-.733-1.578-.851-3.346-1.528-5.249-.551-1.559-3.053-7.792-4.762-9.469a7.8,7.8,0,0,0-3.852-1.583,8.024,8.024,0,0,0-1.754-.061c-4.585,0-1.723-.054-3.358-.172C2211.465,1209.288,2205.165,1205.632,2199.947,1212.494Zm15.4,23.326.01.012h0C2215.447,1235.963,2215.426,1235.947,2215.344,1235.819Z" transform="translate(-53.373 -2.408)" fill="#bad1ff"/>
      <path id="Rottweiler_1.4" data-name="Rottweiler 1.4" d="M2209.113,1268.038a6.568,6.568,0,0,0-4.386,2.438,7.017,7.017,0,0,1-.665.854,6.694,6.694,0,0,0-1.053,1.759,8.777,8.777,0,0,0-.879,3.709c-.274,1.96-.932,4.023.648,5.166a6.563,6.563,0,0,0,5.78.555c1.563-.605,1.8-.983,1.783-.972a1.7,1.7,0,0,1,1.547-.036c1.89,1.157.9,2.144,5.526,3.054a2.42,2.42,0,0,0,2.647-1.287,7.077,7.077,0,0,0,1.249-2.263c1.632-5.569.175-5.816-.916-8.492-1.4-3.443-6.384-3.587-6.411-3.594a26.479,26.479,0,0,0-4.87-.891" transform="translate(-58.195 -37.734)" fill="#bad1ff"/>
      <g id="Rottweiler_1.3" data-name="Rottweiler 1.3" transform="translate(2125.326 1313.999)">
        <path id="Rottweiler_1.3.2" data-name="Rottweiler 1.3.2" d="M2168.662,1515.507c-.724,0-1.12,4.682-3.366,5.829-.545.172-3.8-5.534-4.277-5.534-.972,0,0,11.37-1.375,15.188-.765,2.142-3.565,10.386-2.165,12.138a1.792,1.792,0,0,0,.754.623c1.791.88,1.455,1.406,2.6,2.137,1.538.982,2.11.553,3.1,1.054a2.587,2.587,0,0,0,3.138-.378c1.819-1.516,4.866-.586,1.869-10.487a5.1,5.1,0,0,1-.015-1.982c.112-5.5-.129.984-.134-10.288,0-2.629.556-8.3-.133-8.3" transform="translate(-2157.093 -1498.162)" fill="#eef2ff"/>
        <path id="Rottweiler_1.3.1" data-name="Rottweiler 1.3.1" d="M2261.188,1473.026c-.578,0-1.141,1.649-2.082,2.519-.412.385.172,6.754-.173,12.782-.216,3.736.992,5.048.992,9.174a16.955,16.955,0,0,0,1.052,6.083,22.625,22.625,0,0,0,.551,2.525,6.354,6.354,0,0,1,.933,2.731c.133,4.2,2.408,3.023,5.389,4.25a4.128,4.128,0,0,0,3.413.015c.414-.166,1.092-.221,1.471-.833a9.4,9.4,0,0,0,.663-2.74,2.192,2.192,0,0,0-1.093-2.123c-1.391-1.233-1.333-3.609-1.818-4.493-.017.013-.74-1.482-.731-1.465-.565-1.059-1.175-3.87-1.78-5.033-2.567-4.9-.553-8.337-1.923-8.106-.157.025.048-.023-1.465.971-1.048.691-.9-.516-2.189-2.339a5.383,5.383,0,0,1-.722-3.225c.008-.848-.171-6.465-.171-6.483,0-3.272.362-4.212-.317-4.212m4.617,16.286c.107-.079.083-.06,0,0" transform="translate(-2217.338 -1473.026)" fill="#eef2ff"/>
      </g>
      <g id="Rottweiler_1.2" data-name="Rottweiler 1.2" transform="translate(2132.635 1204.267)">
        <path id="Rottweiler_1.2.2" data-name="Rottweiler 1.2.2" d="M2191.009,1204.267c-.978,0-3.378,1.075-4.61,1.151-4.893.589-8.975,1.488-9.561,5.6-1.031,7.142,1.685,6.833-1.308,11.875-1.586,2.673.646,2.117,2.833-.688,1.289-1.64,2.827-5.082,3.259-4.137.414,1.134.691,4.526,1.418,4.526,1.06-.044.308-4.169,1.354-6.574,1.3-3.029,3.18-3.458,5.323-6.273,2.066-2.655,3.739-2.841,5.286-3.5,1.2-.516-2.558-1.976-3.995-1.976" transform="translate(-2174.995 -1204.267)" fill="#afcaff"/>
        <path id="Rottweiler_1.2.1" data-name="Rottweiler 1.2.1" d="M2267.143,1212.482c-.792,0-3.65.857-1.979,1.707,1.084.539,4.258,7.181,4.939,10.939.644,3.575,1.206,2.947,1.439,4.108.146,2.167,1.512-.834,2.015-1.285a5.9,5.9,0,0,1,.151,1.941c-.222.28.325,4.274,4.652,7.566,1.542,1.178,1.047-.665.867-1.946a15.7,15.7,0,0,1,.121-3.022c.813-5.579,2.734-4.609,2.642-8.648a7.241,7.241,0,0,0-1.018-3.557c-1.2-1.7-1.708-.847-4.2-3.477-1.428-1.5-4.006-2.359-5.97-3.191a9.455,9.455,0,0,0-3.655-1.135" transform="translate(-2228.043 -1209.128)" fill="#afcaff"/>
      </g>
      <g id="Rottweiler_1.1" data-name="Rottweiler 1.1" transform="translate(2145.441 1219.968)">
        <path id="Rottweiler_1.1.3" data-name="Rottweiler 1.1.3" d="M2218.964,1270.019c-2.566,0-5.758,3.889-3.594,6.389.7.819,2.38,1.6,3.13,2.428.227.248.195.635.543.635.182,0,.273.222.579-.053.684-.875,5.055-.926,5.627-4.7a3.683,3.683,0,0,0-3.8-4.444c.336.057-2.388-.255-2.488-.255" transform="translate(-2211.267 -1258.874)" fill="#211f18"/>
        <path id="Rottweiler_1.1.2" data-name="Rottweiler 1.1.2" d="M2253.439,1249.2a3,3,0,0,0-2.169.933c-.984.939-.338,1.163-.4,1.19.875,1.8,1.766,2,2.728,2a3.023,3.023,0,0,0,2.409-1.6c.437-.909-.946-2.517-2.569-2.517" transform="translate(-2232.606 -1246.558)" fill="#211f18"/>
        <path id="Rottweiler_1.1.1" data-name="Rottweiler 1.1.1" d="M2208.758,1242.723c-1.023,0-2.806.984-2.316,1.522a2.752,2.752,0,0,0,3.865,1.986c1.338-.536,1.21-.591,1.008-1.323a2.565,2.565,0,0,0-2.556-2.185" transform="translate(-2206.358 -1242.723)" fill="#211f18"/>
      </g>
    </g>
  </g>
</svg>
