<svg xmlns="http://www.w3.org/2000/svg" width="253.538" height="196.137" viewBox="0 0 253.538 196.137">
  <g id="그룹_27" data-name="그룹 27" transform="translate(-61.462 -158.467)">
    <g id="그룹_26" data-name="그룹 26" transform="translate(84.519 -84.616)">
      <path id="패스_60" data-name="패스 60" d="M4048.607,3695.951c19.73-1.064,88.921-42.579,108.082,52.16s-59.611,123.48-99,130.931-127.737,2.129-147.962-92.61,50.03-100.06,67.062-101.125S4028.877,3697.016,4048.607,3695.951Z" transform="translate(-3929.163 -3442.159)" fill="#5890ff"/>
    </g>
    <g id="Jack_Russel_1_tan_white_" data-name="Jack Russel 1 [ tan &amp; white ]" transform="translate(-1458.114 19.446)">
      <path id="Jack_Russel_1.7" data-name="Jack Russel 1.7" d="M1653.773,202.927c-.436,0-.482.4-.564.7-.007.024-.168.668-.172.693-1.5,11.519-3.347,7.369-7.955,13.964-4.19,6-5.4,11.24-6.131,17.527-.419,3.572-1.708,6.61-2.183,12.366-.633,7.454.4,11.505.724,20.384.6,14.079,11.734,25.942,3.259,46.085-.5,1.194-1.488,1.87-.795,3.593.527,1.352,2.136,1.711,3.578,1.877,1.507.13,2.672,1.056,5.37.052,2.445-.924,4.363-.409,5.189-1.275,1.264-1.354.221-3.949.536-7.137.523-5.4-.327-7.241-.327-8.907,0-10.3,1-6.376-1.2-14.511-2.116-7.765-1.9-7.357-1.9-7.327-1.639-8.951.843-12.913,1.16-14.367,5.045.448,5.611,3.635,20.609,1.242.919-.145.987-.693-.988,5.827-2.1,6.98-3.586,23.888-3.587,23.923s.574,9.2.535,8.609c1.084,16.321,6.621,10.461,10.407,11.969,3.185,1.437,3.692.893,6.327-.076,1.514-.532,1.909-.14,2.621-.436.866-.356,1.209-1.868-.8-3.772-2.8-2.655-2.669-3.253-3.525-3.884-.385-.281-1.64-.767-1.993-.974-1.8-1.047-3.354-6.748-3.6-8.62v.037c-.407-3.777.464-5.743,1.778-9.747.483-1.466,2.318-7.471,2.348-7.455.095-.223,1.733-3.8,2.613-6.4,2.4-7.136,1.321-11.494,2.014-14.58.071-.074,4.849-10.972,4.849-15.663.569,0-.086-6.387-.056-6.387l-.006-.017c-.418-7.493-7.433-18.761-6.812-21.1-.766.082,3.153-14.259.832-12.562-5.664,4.234-5.165,2.908-7.7,5.614-5.488,5.907-13.144,10.946-18.377,4.8-.026-.03-1.619-1.9-1.521-1.792-.89-1.02-1.314-1.1-1.729-2.01-.349-.942-1.625-10.259-2.834-10.259" transform="translate(-7.395 -7.242)" fill="#eef2ff"/>
      <g id="Jack_Russel_1.6" data-name="Jack Russel 1.6" transform="translate(1592.917 182.074)">
        <path id="Jack_Russel_1.6.3" data-name="Jack Russel 1.6.3" d="M1672.116,323.411c-.754-3.567-4.307-2.39-7.126-11.88-.69-2.355-1.679-3.921-2.346-8.421-.761-6.52.711-7.48,1.607-9.358,1.58-3.284,2.792-12.23.818-12.324.177.016-.289-.014-.19-.007-7.131-.371-9.41-3.59-10.166-1.052-1.239,4.122-.936,2.2-1.426,6.282-.3,2.679,0,2.738.568,4.01a14.41,14.41,0,0,1,1,5.386c-.2,2.918,1.556,7.03,1.976,11.631.273,3.033.472,2.032,1.507,5.908,1.444,5.407.226,6.926,2.177,9.441,3.239,4.19,2.948,2.608,5.773,3.116s3.532-.167,5.084-.892C1672.038,324.984,1672.376,324.617,1672.116,323.411Zm-6.655-2.263-.007-.017C1665.461,321.15,1665.4,321,1665.462,321.148Zm2.125-2.054h0Z" transform="translate(-1603.124 -202.271)" fill="#afcaff"/>
        <path id="Jack_Russel_1.6.2" data-name="Jack Russel 1.6.2" d="M1642.471,215.9c-.319-.541-1.021-.271-2.226-.094-7.689.873-11.381,1.054-21.249,8.51-8.568,6.636-7.264,11.843-10.8,18.083-6.146,10.811-4.91,19.02-5.258,25.142-.193,3.133-.618,3.622-.957,6.392-1.219,9.688,1.047,11.463.011,17.906-1.51,9.42-.071,14.254-3.521,20.133-2.595,4.443-3.3,7.176,1.823,7.176,1.408,0,1.748.96,4.184-.221,1.688-.616,4.163,1.1,3.567-5.432-.918-11.35.284-11.733,2.307-25.321v0c1.2-7.7,1.91-7.417,3.122-9.883,3.579-7.259,1.089-6.554,8.694-13.479,1.687-1.529,2.047-3.19,6.317-3.811,4.149-.513-1.938,1.738,5.754-31.351.037-.1,1.534-4.169,1.551-4.273a2.62,2.62,0,0,1,.4-1.448c3.83-5.891,2.854-4.687,4.63-6.286C1642.068,216.51,1642.786,216.438,1642.471,215.9Z" transform="translate(-1593.519 -191.459)" fill="#bad1ff"/>
        <path id="Jack_Russel_1.6.1" data-name="Jack Russel 1.6.1" d="M1594.425,186.54c-.606,0-.3.483-1.2,3.26-1.681,5.283,3.969,17.581,6,20.718,5.748,8.935,4.245,6.062,7.029,9.784.46.625,1.123.988,1.586.354.533-.664,1.44.359,1.774-2.749.128-1.238-.163-.836.719-.836,1.483,0,.349-4.239-.468-5.445-.92-1.363.21-.591.21-1.856,0-.11-1.944-2.414-5.727-8.529-2.441-3.944-3.711-8.612-6.814-11.671-.333-.33-2.46-3.03-3.114-3.03" transform="translate(-1592.917 -186.54)" fill="#eef2ff"/>
      </g>
      <path id="Jack_Russel_1.5" data-name="Jack Russel 1.5" d="M1668.156,166.423c-2.177,0-3.525,1.049-4.983,2.658-1,1.1-3.793,2.473-6.131,4.549-4.773,4.221-2.121,10.836-2.412,15.191-.159,2.6-.155,4.132.844,5.884.67,1.149,2.047,3.312,2,4.39.524,5.1,1.824,5.207,1.851,3.734.054-3.292,1.152-3.719,2.415-5.929.453-.795,1.324-3.011,1.945-4.149,1.82-3.335,5.149-3.907,6.338-13.848.065-.443.546-2.67.541-2.64.541-3.008-.05-3.291.9-5.7a1.849,1.849,0,0,1,2.124-1.294c1.526.744,3.1-.461,4.336.419.928.748-.071-.324-.672,8.222-.826,11.022-1.93,10.37,4.545,17.473,3.372,3.7-.373,10.148,1.773,8.773a13.7,13.7,0,0,1,2.928-1.976c4.234-2.117,4.02-1.849,5.747-8.456.009-.033,1.046-3.964,1.036-3.93.634-2.161,1.719-2.356,1.719-5.131,0-3.019-1-3.372-2.448-6.118a46.18,46.18,0,0,0-3.464-7.061c-1.325-2.046-2.87-2.235-6.307-3.192a49.667,49.667,0,0,0-14.63-1.87" transform="translate(-10.374 -1.058)" fill="#bad1ff"/>
      <g id="Jack_Russel_1.4" data-name="Jack Russel 1.4" transform="translate(1632.145 160.178)">
        <path id="Jack_Russel_1.4.2" data-name="Jack Russel 1.4.2" d="M1657.85,160.178c-2.73,0-5.573,1.96-12.246,2.835-1.035.157-3.75.674-4.575,1.315-1.056.816-.9,7.808-.836,8.585.243,2.959.177,3.394,1.354,2.979,4.273-1.514,5.136-3.214,6.092-4.474.316-.4-1.246,2.647,1.253,4.574-.265-.231,0,.269,2.441,1.21.9.346,1.018-.079,1.3-.88,1.169-3.394,4.856-5.052,6.786-6.694,2.492-2.128,2.462-2.207,2.662-2.322,2.845-2.052,3.887-1.309,4.209-1.858.346-.6-1.295-5.27-8.436-5.27" transform="translate(-1640.146 -160.178)" fill="#afcaff"/>
        <path id="Jack_Russel_1.4.1" data-name="Jack Russel 1.4.1" d="M1695.036,164.972a3.753,3.753,0,0,0-3.268,1.686c-1.177,1.439-1.292,1.641-1.029,1.931.168.947,1.533-.565,4.3,3.077,2.5,3.273,1.734,5.147,4.625,8.827,1.542,1.974.844,2.611,1.687,2.669.452.035-.289,1.715,2.468,4.345.339.321.364.556.664.556.473,0,.419-.361.774-1.469h0c1.119-2.475,3.357-2.861,5.99-6.082.442-.538,4.1-6.488,4.106-6.511.157-.428-.036-.473-1.536-1.631-4.175-3.3-6.882-1.356-12.511-4.782-.044-.027-3.456-2.615-6.274-2.615" transform="translate(-1648.697 -160.99)" fill="#afcaff"/>
      </g>
      <g id="Jack_Russel_1.3" data-name="Jack Russel 1.3" transform="translate(1606.895 205.348)">
        <path id="Jack_Russel_1.3.2" data-name="Jack Russel 1.3.2" d="M1621.178,223.6a23.366,23.366,0,0,1-3.416-3.434c-4.814-4.945-4.2-6.468-5.124-5.149-1.01,1.175-.423.385.576,3.675,1.257,4.132-1.195,2.385-.976,3.678a4.331,4.331,0,0,1-.864,2.415c-.19.1-.222.049-.379.114a.979.979,0,0,0-.395.324c-.369.144-1.121.029-.758.642a34.644,34.644,0,0,0,4.184,5.149c1.525,1.552,1.235-1.947,5.018-4.953C1621.116,224.53,1622.057,224.249,1621.178,223.6Zm-.051-.039-.022-.017Zm-4.49.43,0,.018Zm-2.659-2.947c0,.032.01.091-.021.095C1613.966,221.1,1613.972,221.071,1613.979,221.04Zm-.472-1.1c0-.034,0-.009,0,.022Z" transform="translate(-1609.746 -214.561)" fill="#afcaff"/>
        <path id="Jack_Russel_1.3.1" data-name="Jack Russel 1.3.1" d="M1646.917,215.676c-9.3,0-17.221,4.121-18.7,5.44-1.684,1.5-4.839,5.459-2.9,6.635.282.363.219,2.816.452,3.706,1.583,6.006.995,5.513,1.4,6.479,1.415,3.383,3.234,3.155,4.3,1.183a9.746,9.746,0,0,0,1.032-2.343c1.016-2.34,1.537-2.641,1.509-2.611,3.549-3.854,3.841-11.821,10.945-16.318C1646.224,217.049,1651.052,215.7,1646.917,215.676Z" transform="translate(-1612.28 -214.75)" fill="#afcaff"/>
      </g>
      <path id="Jack_Russel_1.2" data-name="Jack Russel 1.2" d="M1673.931,169.631c-4.1,0-.639,12.1-6.986,20.253l0,0a16.4,16.4,0,0,0-3.45,5.566c-1.721,3.763-3.959,5.185-3.8,8.87a8.448,8.448,0,0,0,3.125,6.482c1.445,1.232,2.052,2.732,3.994,3.4v0l.037.019v0c3.434,1.471,9.028-1.915,8.06-1.3a41.364,41.364,0,0,0,9.137-8.04,7.887,7.887,0,0,0,.564-3.813c0-5.027-.959-4.362-4.647-9.02a10.14,10.14,0,0,1-2.082-4.564c-.436-1.937.138-3.037.441-4.469.667-3.161.2-5.224.389-7.177.281-2.719,2.334-6.058-.925-6.058-4.342.018-1.583-.148-3.854-.148" transform="translate(-11.311 -1.601)" fill="#eef2ff"/>
      <g id="Jack_Russel_1.1" data-name="Jack Russel 1.1" transform="translate(1648.641 177.316)">
        <path id="Jack_Russel_1.1.3" data-name="Jack Russel 1.1.3" d="M1689.614,184.907c-1.876,0-2.9,2.762-2.88,2.726-.38.82-.543,1.06.15,1.557,2.231,1.809,4.719,1.146,5.646-.284,1.292-2.017-1.356-4-2.915-4" transform="translate(-1664.479 -181.506)"/>
        <path id="Jack_Russel_1.1.2" data-name="Jack Russel 1.1.2" d="M1662.952,180.812a5.116,5.116,0,0,0-2.546,1.125c-.483.329-.493.205-.222,1.172.193.71.434,3.807,4.119,3.018.03-.007,1.187-.306,1.218-.321.693.131,1.265-4.994-2.569-4.994" transform="translate(-1660.006 -180.812)"/>
        <path id="Jack_Russel_1.1.1" data-name="Jack Russel 1.1.1" d="M1668.685,203.4c-2.425,0-4.745,2.778-2.823,6.329,1.019,1.856,3.189,1.812,3.959,3.17.184.318.417-.018.818-.086.437-.042,2.13-.066,2.665-.176,2.116-.452,4.619-2.938,3.959-5.927-.685-3.045-2.857-2.97-5.562-2.97-1.238.01-2-.34-3.015-.34" transform="translate(-1660.878 -184.638)"/>
      </g>
    </g>
  </g>
</svg>
