<svg xmlns="http://www.w3.org/2000/svg" width="24.413" height="26.041" viewBox="0 0 24.413 26.041">
  <g id="share" transform="translate(-16)">
    <g id="그룹_1" data-name="그룹 1" transform="translate(16)">
      <path id="패스_15" data-name="패스 15" d="M35.836,16.886a4.574,4.574,0,0,0-3.681,1.86L24.97,15.074a4.577,4.577,0,0,0-.149-3.007l7.531-4.525a4.559,4.559,0,1,0-.783-1.31l-7.549,4.536a4.577,4.577,0,1,0,.281,5.677l7.164,3.661a4.578,4.578,0,1,0,4.372-3.22Zm0-15.36a3.052,3.052,0,1,1-3.052,3.052A3.055,3.055,0,0,1,35.836,1.526ZM20.578,16.835a3.052,3.052,0,1,1,3.052-3.052A3.055,3.055,0,0,1,20.578,16.835Zm15.258,7.68a3.052,3.052,0,1,1,3.052-3.052A3.055,3.055,0,0,1,35.836,24.515Z" transform="translate(-16 0)" fill="#5890ff"/>
    </g>
  </g>
</svg>
