<svg xmlns="http://www.w3.org/2000/svg" width="253.538" height="196.137" viewBox="0 0 253.538 196.137">
  <g id="그룹_27" data-name="그룹 27" transform="translate(-61.462 -158.467)">
    <g id="그룹_26" data-name="그룹 26" transform="translate(84.519 -84.616)">
      <path id="패스_60" data-name="패스 60" d="M4048.607,3695.951c19.73-1.064,88.921-42.579,108.082,52.16s-59.611,123.48-99,130.931-127.737,2.129-147.962-92.61,50.03-100.06,67.062-101.125S4028.877,3697.016,4048.607,3695.951Z" transform="translate(-3929.163 -3442.159)" fill="#5890ff"/>
    </g>
    <g id="Whippet_1_white_" data-name="Whippet 1 [ white ]" transform="translate(-69.053 -2442.566)">
      <path id="Whippet_1.6" data-name="Whippet 1.6" d="M285.151,2622.3a28.835,28.835,0,0,0-5.592,1.093,6.88,6.88,0,0,0-3.709,1.42,16.255,16.255,0,0,0-2.317,2.56c-.8.82-.008-.081-2,1.838-2.966,2.833-.724,5.926-1.194,6.661-.728.827-3.393,2.6-3.577,2.914-.5.865,0,1.337-.054,3.2-.053,1.733-.2,2.411.561,3.547,2.774,4.1,4.992,3.18,9.855,3.169,1.935-.012,1.2-.5,1.592,3.269a40.972,40.972,0,0,1,.373,7.715s-2.974,5.052-5.878,5.3c-5.932.506.7-.809-11.423.955-2.985.364-11.442-.366-23.246,4.789-3.835,1.674-5.355,3.025-8.745,5.818-16.713,13.738-6.315,27.565-5.557,39.231,1.04,15.93-8.741,24.443-9.275,27.1-.4,1.977-.086,2.384-1.017,7.682-.689,3.922-.268,5.08-.223,7.49.118,7.354-4.989,15.648.22,16.869,1.815.427,2.909,1.185,5.135.15,2.013-.937.724-3.034.666-3.352a20.081,20.081,0,0,0,.043-3.841c-3.99-27.2,9.264-30.587,13.449-37.52,3.494-5.794,5.844-8.705,6.908-13.435,1.4-6.238,1.246-9.708,3.969-15.651,2.643-5.744,8.485-8.251,13.05-5.053,4.014,2.808,9.437,9.109,12.527,12.911,5.474,7.426.963,13.291,4.873,27.2,4.231,14.97,1.945,21.74,3.13,25.682,1.216,4.025,2.181,6.869,1.88,11.368-.208,3.151-.569,5.316,2.531,5.646,1.14.115,1.085.431,2.918.684.841.11.784-.48,2-.665,1.384-.162,1.934-.072,2.322-.663a3.307,3.307,0,0,0,.254-1.508c.007-.981-.23-.88.024-.83a20.64,20.64,0,0,1,3.243.508c2.92.731,2.889-.251,5.455-.69,2.472-.4,1.1-2.6,1.357-1.959-.238-.6-.458-.611-.874-1.4a4.909,4.909,0,0,0-2.074-2.184c-3.4-1.7-3.725-.454-4.846-8.322-.657-4.885,1.109-9.547,1.609-26.068,0,0,2.307-15.185,2.369-15.673,1.228-10.017,1.626-7.426,5.28-15.324,2.749-5.944,4.552-23.77.659-34.234-5.524-14.857-2.593-16.4-2.674-25.8-.049-5.509-1.5-8.453-.662-10.591.632-1.4,1.084-1.743.852-2.615-.715-2.635-3.871-3.514-5.639-5.734-1.4-1.886-.894-3.422-4.132-3.216C288.3,2622.834,287.6,2622.323,285.151,2622.3Zm-2.407,89.477c.155-.016-.51.132,1.148-.719a5.444,5.444,0,0,1,1.578-.585c3.468-.9,3.02-2.619,1.549,1.5-.791,2.208-.439,5.62-.467,11.167-.006,2.68-.423,5.266-.66,11.193-.254,6.357.4,11.554-.152,16.118-1.434,10.531.99,6.717,1.554,16.887,0,.023.175,3.765.175,3.742-1.626-3.08-.859-1.2-2.274-11.139-.1-.3-.543-4.673-.534-4.61-.856-6.314-2.177-.913-3.472-28.405C280.875,2720.283,282.744,2713.648,282.744,2711.778Z" transform="translate(-2.612 -1.175)" fill="#eef2ff"/>
      <g id="Whippet_1.5" data-name="Whippet 1.5" transform="translate(262.848 2619.887)">
        <path id="Whippet_1.5.2" data-name="Whippet 1.5.2" d="M327.89,2623.608a31.243,31.243,0,0,1-3.606.353c-1.837-.217-4.158,1.311-4.829,3.77-.036-.013-.063.223-.436.954-1.642,3.206-3.914,4.4-1.2,5.275a24.207,24.207,0,0,0,3.107.1c.147-.037.042-.018,0-.257-.035-.2.225-1.392.891-1.493a5.181,5.181,0,0,1,1.932-3.072c1.866-1.1,3.333-4.43,6.138-4.874C330.579,2624.252,329.995,2623.482,327.89,2623.608Z" transform="translate(-316.56 -2621.692)" fill="#bad1ff"/>
        <path id="Whippet_1.5.1" data-name="Whippet 1.5.1" d="M373.885,2619.887c-3.192,0-6.559,1.9-5.881,2.249.627.313.81,2.174,2.061,3.264,1.051.919,3.709,2.467,4.628,3.9.7,1.118.512,1.737,1.132.856a6.315,6.315,0,0,0,1.055-2.626c.906-1.944,1.343,1.275,2.766,2.122,1.979,1.16,5.036-.218,6.242-.532.841-.224.693-.348.413-.729-1.392-1.851-2.588-1.642-3.626-2.824-.133-.153-1.132-1.055-1.3-1.258C379.231,2621.814,377.171,2619.887,373.885,2619.887Z" transform="translate(-341.563 -2619.887)" fill="#bad1ff"/>
      </g>
      <g id="Whippet_1.4" data-name="Whippet 1.4" transform="translate(261.963 2629.5)">
        <path id="Whippet_1.4.3" data-name="Whippet 1.4.3" d="M326.127,2640.561c-.811,0-.8.7-1.049,1.164a.893.893,0,0,0,.31.916,1.384,1.384,0,0,0,1.978.048C327.389,2642.594,327.278,2640.561,326.127,2640.561Zm-.29.425-.029.009.012-.013C325.839,2640.97,325.846,2640.959,325.837,2640.986Z" transform="translate(-319.803 -2639.565)" fill="#2e2920"/>
        <path id="Whippet_1.4.2" data-name="Whippet 1.4.2" d="M320.018,2655.463a15.042,15.042,0,0,0-2.845.125c-1.788.3-3.218,1.938-1.693,3.793a6.019,6.019,0,0,0,2.172,1.43c1.593.809,4.028-1.769,4.291-2.973A1.924,1.924,0,0,0,320.018,2655.463Z" transform="translate(-314.835 -2646.819)" fill="#2e2920"/>
        <path id="Whippet_1.4.1" data-name="Whippet 1.4.1" d="M351.2,2638.975a2.833,2.833,0,0,0-1.136-.355c-2.309,0-3.11,1.943-2.7,2.038.005,0,.912.312,1.238.407a3.557,3.557,0,0,0,3.642-1.314C352.5,2639.317,351.956,2639.253,351.2,2638.975Z" transform="translate(-330.619 -2638.62)" fill="#2e2920"/>
      </g>
      <g id="Whippet_1.3" data-name="Whippet 1.3" transform="translate(206.238 2693.486)">
        <path id="Whippet_1.3.2" data-name="Whippet 1.3.2" d="M268.62,2763.641c-7.362,1.891-9.406,14.623-9.086,13-1.953,9.877-1.072,6.046-.294,10.994,1.542,12.292-6.869,15.573-9.2,18.1a6.231,6.231,0,0,0-1.476,3.578c-.518,4.182.872,16.114.87,16.088.566,5.7-.61,6.387.815,10.418.658,1.852,1.141,2.813,2.329,3.056,1.922.393,2.371.89,3.614.958.037,0,.951.115.929.115a4.907,4.907,0,0,0,1.384-.3c.249-.051,3.111.116,2.621-1.181a7.253,7.253,0,0,0-.91-2.048c-1.447-2.022-4.059-1.731-5.128-5.806-1.2-4.583-.921-12.451-.926-11.936.144-13.015,8.828-10.289,16.447-20.53,5.433-7.307,2.423-15.636,3.5-24.376,1.053-7.511,5.569-6.308.865-9.078A7.172,7.172,0,0,0,268.62,2763.641Z" transform="translate(-226.791 -2763.318)" fill="#bad1ff"/>
        <path id="Whippet_1.3.1" data-name="Whippet 1.3.1" d="M206.5,2809.27c-.568,0-.037.467.064.855a14.65,14.65,0,0,0,1.339,3.418c1.834,3.336,10.963,5.723,12.852,3.824.941-.915,1.685-8.389.886-7.783-.423.292-.349,3.771-2.855,4.905-2.076.819-6.327-.178-8.447-2.665A8.619,8.619,0,0,0,206.5,2809.27Z" transform="translate(-206.238 -2785.69)" fill="#bad1ff"/>
      </g>
      <path id="Whippet_1.2" data-name="Whippet 1.2" d="M359.049,2654.9c-.459,0-.9.642-1.12,1.045-.108.191-.69.939-.648.887a12.261,12.261,0,0,1-8.4,5.228c-3.567.544-4.5,1.593-6.546,1.99-.675.134-.383,2.237-.321,5.367.095,4.3.578,2.754.07,8.138-.789,8.191,2.978,10.3,2.978,13.92.837,6.551.094,9.432,3.63,13.841,3.783,5,2.3,10.949,8.924-2.446,3.464-7,.3-10.3,1.815-21.068.9-6.164-1.5-8.964-1.259-11.688.394-2.457,3.078-4.532,2.144-10.392C359.966,2657.566,360.1,2654.9,359.049,2654.9Z" transform="translate(-66.046 -17.046)" fill="#bad1ff"/>
      <g id="Whippet_1.1" data-name="Whippet 1.1" transform="translate(208.917 2754.384)">
        <path id="Whippet_1.1.3" data-name="Whippet 1.1.3" d="M351.383,2900.905c-.594,0-.568.729-.382,2.658.153,1.613.1,2.781.252,3.3.281.9.478.507,1.112,2.245.222.6.141-.164-1.454-.628-1.488-.441-1.825-.235-2.743-1.585-1.249-1.85-1.937-.79-3.681-2.884-.82-1.092-.656-.8-.837-1.169s-.767-.167-.822.153c-.02.11.392,3.775.4,3.8.259,2.279-1.126,7.521,2.2,7.82,1.589.13,1.887.8,3.555.866,1.246.049,1.107-.875,2.521-.773a1.785,1.785,0,0,0,2.1-1.726c.094-1.519-.228-1.221.813-.94.237.066,1.063.152,1.04.148,1.632.244,2.526,1.242,5.6-.273a3.157,3.157,0,0,1,1.545-.415c2.988-.179.565-4.04-2.246-5.576-1.892-1.05-2.914-.581-5.734-1.733C352.5,2903.257,351.918,2900.905,351.383,2900.905Z" transform="translate(-275.417 -2891.202)" fill="#bad1ff"/>
        <path id="Whippet_1.1.2" data-name="Whippet 1.1.2" d="M218.57,2886.388c-.346,0-1.018,1.489-1.053,1.592a8.422,8.422,0,0,1-1.873,2.322c-1.767,1.662-1.083,1.488-2.27,2.276-1.967,1.316-1.755,6.589-1.751,5.751-.008,1.513-.591,2.7.489,4.228.766,1.047,1.325,1.065,2.69,1.185a4.494,4.494,0,0,0,3.455.3c3.624-1.323,1.372-2.843,1.711-4.636.352-1.917-.382-6-.667-7.328.023,0-.284-3.2-.259-2.98C218.892,2887.732,219.3,2886.388,218.57,2886.388Z" transform="translate(-211.459 -2884.134)" fill="#bad1ff"/>
        <path id="Whippet_1.1.1" data-name="Whippet 1.1.1" d="M250.6,2882c-.863,0-.36,2.576-.452,4.727,0,.024-.1,3.349-.1,3.323,0,2.139,1.068,6.109,3.116,6.724,3.192.951,3.811,1.2,6.835.811h-.038c2.642-.2,2.538-.917,1.263-3.188-.633-1.984-2.587-1.381-4.477-4.507-1.533-2.447.822-.864-3.469-4.023a2.643,2.643,0,0,1-1.208-1.665C251.866,2883.562,251.27,2882,250.6,2882Z" transform="translate(-230.249 -2881.996)" fill="#bad1ff"/>
      </g>
    </g>
  </g>
</svg>
